<svg xmlns="http://www.w3.org/2000/svg" width="49.709" height="48.303" viewBox="0 0 49.709 48.303">
  <g id="megaphone" transform="translate(3 3)">
    <g id="Path_7007" data-name="Path 7007" transform="translate(-5.946 -5.019)" fill="none" stroke-linecap="round" stroke-linejoin="round">
      <path d="M14.627,13.683a8.681,8.681,0,1,0,0,17.362,1.576,1.576,0,0,0,1.555-1.334h.025V15.264A1.58,1.58,0,0,0,14.627,13.683Z" stroke="none"/>
      <path d="M 14.62698554992676 13.6833553314209 C 9.832295417785645 13.6833553314209 5.945764541625977 17.56981658935547 5.945764541625977 22.36441612243652 C 5.945764541625977 27.15900611877441 9.832295417785645 31.04546737670898 14.62698554992676 31.04546737670898 C 15.4030647277832 31.04434585571289 16.06278610229492 30.47832489013672 16.18182563781738 29.7114372253418 L 16.20680618286133 29.7114372253418 L 16.20680618286133 15.26373672485352 C 16.20680618286133 14.39114570617676 15.49958515167236 13.68368530273438 14.62698554992676 13.6833553314209 M 14.62698554992676 10.68335723876953 C 14.62736511230469 10.68335723876953 14.62774467468262 10.68335723876953 14.62811470031738 10.68335723876953 C 17.1528148651123 10.6843147277832 19.20680618286133 12.73905563354492 19.20680618286133 15.26373672485352 L 19.20680618286133 29.7114372253418 C 19.20680618286133 30.09743499755859 19.13394165039062 30.46631240844727 19.00115776062012 30.80524063110352 C 18.74888610839844 31.63130950927734 18.26603889465332 32.37465667724609 17.6042652130127 32.94244384765625 C 16.77706527709961 33.65216827392578 15.7212553024292 34.04388427734375 14.63131523132324 34.04546737670898 C 11.50674533843994 34.04546737670898 8.573315620422363 32.8304557800293 6.3670654296875 30.6242561340332 C 4.160804748535156 28.41803550720215 2.945764541625977 25.4846363067627 2.945764541625977 22.36441612243652 C 2.945764541625977 19.24419593811035 4.160804748535156 16.3107852935791 6.3670654296875 14.10457611083984 C 8.573305130004883 11.89836502075195 11.50673580169678 10.68335723876953 14.62698554992676 10.68335723876953 Z" stroke="none" fill="#2e2e2e"/>
    </g>
    <g id="Path_7008" data-name="Path 7008" transform="translate(-3.658 -6.526)" fill="none" stroke-linecap="round" stroke-linejoin="round">
      <path d="M47.367,8.105A1.572,1.572,0,0,0,44.83,6.857l-13.9,8.026H18.4a1.58,1.58,0,0,0-1.58,1.58v15h.02a1.575,1.575,0,0,0,1.56,1.385h11.12l15.2,8.775a1.55,1.55,0,0,0,2.634-1.33h.017V8.2h-.009C47.36,8.166,47.367,8.137,47.367,8.105Z" stroke="none"/>
      <path d="M 45.7872314453125 6.525604248046875 C 45.42525100708008 6.525604248046875 45.09580230712891 6.652263641357422 44.82968902587891 6.856784820556641 L 30.92789077758789 14.88302230834961 L 18.39614868164062 14.88302230834961 C 17.52363967895508 14.88302230834961 16.81631851196289 15.59032440185547 16.81631851196289 16.46282577514648 L 16.81631851196289 31.45842361450195 L 16.8360710144043 31.45842361450195 C 16.93199920654297 32.24759674072266 17.60115051269531 32.84148406982422 18.39614868164062 32.84299468994141 L 29.51596832275391 32.84300231933594 L 44.71579742431641 41.61818313598633 C 44.99760055541992 41.87963485717773 45.37236785888672 42.04290390014648 45.7872314453125 42.04290390014648 C 46.65962219238281 42.04258346557617 47.36673736572266 41.33547210693359 47.36705780029297 40.46310424804688 C 47.36705780029297 40.40325546264648 47.35602951049805 40.3463249206543 47.34963226318359 40.28821563720703 L 47.36705780029297 40.28821563720703 L 47.36705780029297 8.19720458984375 L 47.35775756835938 8.19720458984375 C 47.35951232910156 8.166404724121094 47.36705780029297 8.137355804443359 47.36705780029297 8.105403900146484 C 47.36673736572266 7.2330322265625 46.65962219238281 6.525924682617188 45.7872314453125 6.525604248046875 M 45.7872314453125 3.525604248046875 C 45.78759765625 3.525604248046875 45.78796005249023 3.525604248046875 45.788330078125 3.525604248046875 C 48.31211853027344 3.526535034179688 50.36613082885742 5.580524444580078 50.36705780029297 8.104305267333984 C 50.36705780029297 8.120296478271484 50.366943359375 8.136039733886719 50.36671829223633 8.151496887207031 C 50.366943359375 8.166713714599609 50.36705780029297 8.181934356689453 50.36705780029297 8.19720458984375 L 50.36705780029297 40.28821563720703 C 50.36705780029297 40.31642913818359 50.36666870117188 40.34465026855469 50.36589431762695 40.37267684936523 C 50.36664581298828 40.40188598632812 50.36705780029297 40.43204879760742 50.36705780029297 40.46310424804688 C 50.36613082885742 42.98798370361328 48.31211853027344 45.04197311401367 45.788330078125 45.04290390014648 C 44.77312469482422 45.04290390014648 43.79712677001953 44.70722961425781 42.99754333496094 44.09025573730469 L 28.712158203125 35.84300231933594 L 18.39614868164062 35.84299468994141 C 18.39424896240234 35.84299468994141 18.39234924316406 35.84299468994141 18.39044952392578 35.84298324584961 C 16.28149032592773 35.8389892578125 14.47133636474609 34.39180755615234 13.96487045288086 32.39335632324219 C 13.86846923828125 32.09915161132812 13.81631851196289 31.78485870361328 13.81631851196289 31.45842361450195 L 13.81631851196289 16.46282577514648 C 13.81631851196289 13.93751525878906 15.87081909179688 11.88302230834961 18.39614868164062 11.88302230834961 L 30.12405014038086 11.88302230834961 L 43.19984436035156 4.33367919921875 C 43.96743774414062 3.804195404052734 44.85689544677734 3.525604248046875 45.7872314453125 3.525604248046875 Z" stroke="none" fill="#2e2e2e"/>
    </g>
    <g id="Path_7009" data-name="Path 7009" transform="translate(-3.541 -1.446)" fill="none" stroke-linecap="round" stroke-linejoin="round">
      <path d="M29.005,39.78l-.022-.038c-.008-.014-.011-.028-.019-.042s-.019-.024-.027-.037l-4.825-8.357-.018.01a1.569,1.569,0,0,0-1.079-.637v-.017h-4.2v.01a1.571,1.571,0,0,0-1.238,2.36,1.491,1.491,0,0,0,.127.176l-.019.011,5.623,9.74v0l0,0,.056.1.01-.006a1.575,1.575,0,0,0,2.089.483,1.613,1.613,0,0,0,.232-.167l.015.025,2.9-1.671L28.6,41.7a1.573,1.573,0,0,0,.4-1.921l0,0Z" stroke="none"/>
      <path d="M 24.68771743774414 43.7488899230957 C 24.9546012878418 43.7488899230957 25.22461318969727 43.68104553222656 25.47131538391113 43.53921890258789 C 25.55556488037109 43.49039840698242 25.63167572021484 43.43288040161133 25.70314598083496 43.37245941162109 L 25.71767616271973 43.39743041992188 L 28.61296653747559 41.72642135620117 L 28.59960556030273 41.70317077636719 C 29.16524505615234 41.23500061035156 29.33186531066895 40.43785095214844 29.00109672546387 39.78231811523438 L 29.00516128540039 39.78000259399414 L 28.98308563232422 39.74166107177734 C 28.97553634643555 39.72771072387695 28.9720458984375 39.71318054199219 28.96390533447266 39.69924163818359 C 28.95577621459961 39.68529891967773 28.94531631469727 39.67483901977539 28.93718528747559 39.66205978393555 L 24.11169624328613 31.30521011352539 L 24.09368515014648 31.31567001342773 C 23.83807563781738 30.96277046203613 23.44719505310059 30.73208045959473 23.01470565795898 30.67886924743652 L 23.01470565795898 30.66144943237305 L 18.81848526000977 30.66144943237305 L 18.81848526000977 30.67190933227539 C 18.58639526367188 30.68922996520996 18.36110496520996 30.75811004638672 18.15901565551758 30.87351036071777 C 17.40324592590332 31.30959892272949 17.14434623718262 32.27592849731445 17.58088493347168 33.03142166137695 C 17.61806488037109 33.09534072875977 17.66338539123535 33.15111923217773 17.7081356048584 33.20748138427734 L 17.68953514099121 33.21852111816406 L 23.31393623352051 42.9616813659668 C 23.31437492370605 42.96255111694336 23.31496620178223 42.96332931518555 23.31567573547363 42.9640007019043 L 23.37204551696777 43.06161117553711 L 23.38191604614258 43.05580139160156 C 23.68471527099609 43.50384521484375 24.1805477142334 43.7488899230957 24.68771743774414 43.7488899230957 M 29.00516510009766 39.78001022338867 L 29.00516510009766 39.77999877929688 L 29.00516128540039 39.78000259399414 L 29.00516510009766 39.78001022338867 M 24.68771553039551 46.7488899230957 C 23.31343078613281 46.7488899230957 22.02448654174805 46.1352653503418 21.16003036499023 45.08819961547852 C 21.0137825012207 44.9285774230957 20.88411521911621 44.75234985351562 20.77413558959961 44.56190872192383 L 20.73785209655762 44.49908065795898 C 20.72171401977539 44.47204971313477 20.70598030090332 44.44473266601562 20.69070243835449 44.41721343994141 L 15.09142589569092 34.71846008300781 C 15.07553482055664 34.69093322753906 15.06007194519043 34.66315078735352 15.0451488494873 34.63534164428711 C 15.02612018585205 34.60474014282227 15.0069055557251 34.5728759765625 14.98766613006592 34.53979873657227 C 14.98622608184814 34.53731918334961 14.98477554321289 34.53482818603516 14.9833459854126 34.53234100341797 C 14.37111568450928 33.47280883789062 14.20835590362549 32.23833847045898 14.5250358581543 31.05632972717285 C 14.84169578552246 29.87435913085938 15.5997953414917 28.88661956787109 16.65967559814453 28.27506065368652 C 16.66356658935547 28.2728099822998 16.66746520996094 28.27056884765625 16.6713752746582 28.26833915710449 C 17.12914276123047 28.00693893432617 17.63535308837891 27.82563018798828 18.15577125549316 27.73489570617676 C 18.36898040771484 27.68681716918945 18.59074974060059 27.66144943237305 18.81848526000977 27.66144943237305 L 23.01470565795898 27.66144943237305 C 23.33345603942871 27.66144943237305 23.64054870605469 27.71114730834961 23.92874717712402 27.8032398223877 C 24.77335166931152 28.01478576660156 25.54425048828125 28.46555709838867 26.14279174804688 29.09734153747559 C 26.3645133972168 29.30130577087402 26.55625152587891 29.53933715820312 26.70968627929688 29.8050594329834 L 31.4741325378418 38.05619430541992 C 31.50232315063477 38.09942245483398 31.52933311462402 38.14320755004883 31.55537605285645 38.18785858154297 C 31.59256362915039 38.25154495239258 31.62733459472656 38.31633758544922 31.6600227355957 38.3829460144043 C 31.71305847167969 38.48372650146484 31.76009750366211 38.58703231811523 31.80103874206543 38.6922607421875 C 32.16747283935547 39.5504150390625 32.26454162597656 40.5106315612793 32.07304763793945 41.42678833007812 C 31.90805435180664 42.21615600585938 31.53368949890137 42.94968795776367 30.99862289428711 43.54666519165039 C 30.7647647857666 43.85343551635742 30.46752166748047 44.1198616027832 30.11257553100586 44.3247184753418 L 27.21728515625 45.99573135375977 C 27.17797088623047 46.0184211730957 27.13840675354004 46.04009246826172 27.09852027893066 46.06080627441406 C 27.05781173706055 46.08625793457031 27.01680755615234 46.11094665527344 26.97543525695801 46.13491821289062 C 26.97244644165039 46.13663864135742 26.9694652557373 46.13837051391602 26.96647644042969 46.14009094238281 C 26.27364540100098 46.53836822509766 25.48566627502441 46.7488899230957 24.68771553039551 46.7488899230957 Z" stroke="none" fill="#2e2e2e"/>
    </g>
  </g>
</svg>
