<svg xmlns="http://www.w3.org/2000/svg" width="66.478" height="66.506" viewBox="0 0 66.478 66.506">
  <g id="Group_27997" data-name="Group 27997" transform="translate(-99.75 -110.75)">
    <path id="Path_14619" data-name="Path 14619" d="M161.544,111c.192.076.381.16.577.226a5.192,5.192,0,1,1-4.214,9.414c-.13-.073-.257-.151-.359-.212l-5.328,5.349a26.548,26.548,0,0,1,6.638,12.917,5.237,5.237,0,0,1,3.939,2.143,5.173,5.173,0,0,1-3.494,8.172c-.493.062-.512.35-.585.674a26.274,26.274,0,0,1-5.541,11.213c-.326.392-.668.772-.991,1.144l5.328,5.325a5.207,5.207,0,0,1,4.473-.789,5.151,5.151,0,0,1,2.935,2.157,5.2,5.2,0,1,1-8.588-.191l-5.192-5.183c-1.872,1.262-3.718,2.613-5.668,3.792a22.114,22.114,0,0,1-6.741,2.553c-.425.094-.67.2-.739.739a5.172,5.172,0,0,1-10.223-.078c-.043-.343-.122-.534-.486-.612a26.306,26.306,0,0,1-12.421-6.455.655.655,0,0,0-.132-.08l-5.164,5.163a14.811,14.811,0,0,1,.8,2.838,5.187,5.187,0,0,1-10.23,1.551,3.533,3.533,0,0,0-.134-.355v-1.8a1.856,1.856,0,0,0,.127-.284,5.22,5.22,0,0,1,5.133-3.951,5.578,5.578,0,0,1,3,.974l5.316-5.294a.481.481,0,0,0-.058-.1,27.11,27.11,0,0,1-6.572-12.511.708.708,0,0,0-.491-.409,5.211,5.211,0,0,1-4.462-5.1,5.112,5.112,0,0,1,4.171-5.123c.666-.112.8-.393.923-.936a25.568,25.568,0,0,1,2.48-6.57,27.214,27.214,0,0,1,3.961-5.518l-5.338-5.33a5.25,5.25,0,0,1-6.523-.455A6.425,6.425,0,0,1,100,117.039v-1.8a5.133,5.133,0,0,1,1.825-3A19.447,19.447,0,0,1,104.24,111h1.8c.139.048.277.1.418.143a5.1,5.1,0,0,1,3.843,4.045,5.264,5.264,0,0,1-.877,4.04l5.317,5.325c5.113-4.118,6.663-4.926,12.6-6.607a.724.724,0,0,0,.4-.5,5.2,5.2,0,0,1,5.1-4.454,5.146,5.146,0,0,1,5.138,4.237.844.844,0,0,0,.8.835,23.678,23.678,0,0,1,7.791,3.164c1.577,1.007,3.053,2.173,4.521,3.23l5.259-5.26c-.081-.136-.2-.316-.3-.5a5.153,5.153,0,0,1,2.992-7.469c.2-.063.385-.15.577-.226Zm-33.731,8.513a24.717,24.717,0,0,0-19.3,19.305c2.5.953,3.754,2.476,3.829,4.8.089,2.755-1.341,4.471-3.861,5.357a24.756,24.756,0,0,0,19.343,19.247,5.077,5.077,0,0,1,4.962-3.823,5.132,5.132,0,0,1,5.185,3.862,24.66,24.66,0,0,0,19.236-19.319,5.277,5.277,0,0,1,.056-10.14c-2.229-10.845-11.125-17.885-19.314-19.281a5.2,5.2,0,0,1-5.077,3.846C130.5,123.367,128.843,122.109,127.813,119.513Zm-22.581-6.972a3.656,3.656,0,1,0,3.606,3.677A3.705,3.705,0,0,0,105.231,112.541Zm-3.687,59.029a3.648,3.648,0,1,0,3.706-3.65A3.707,3.707,0,0,0,101.545,171.57Zm59.01-59.029a3.649,3.649,0,1,0,3.688,3.669A3.692,3.692,0,0,0,160.555,112.541Zm.013,62.693a3.657,3.657,0,1,0-3.627-3.587A3.676,3.676,0,0,0,160.569,175.234Zm1.639-31.346a3.609,3.609,0,1,0-3.545,3.617A3.564,3.564,0,0,0,162.208,143.888ZM132.84,173.208a3.61,3.61,0,1,0-3.56-3.6A3.579,3.579,0,0,0,132.84,173.208Zm-3.56-55.03a3.613,3.613,0,1,0,3.554-3.6A3.548,3.548,0,0,0,129.28,118.179Zm-25.7,25.666a3.6,3.6,0,1,0,3.592-3.565A3.567,3.567,0,0,0,103.576,143.845Z" transform="translate(0)" fill="#2e2e2e" stroke="#2e2e2e" stroke-linecap="round" stroke-linejoin="round" stroke-width="0.5"/>
    <path id="Path_14621" data-name="Path 14621" d="M225.208,219.688a6.065,6.065,0,0,1,3.378,2.063,5.262,5.262,0,0,1-2.718,8.341c-.563.154-.678.393-.67.913.027,1.8.012,3.6.01,5.394,0,1.73-.641,2.375-2.347,2.376-.963,0-1.926.01-2.89,0a1.882,1.882,0,0,1-2.01-2,.733.733,0,0,0-.462-.788c-3.212-1.551-6.409-3.133-9.615-4.694a9.026,9.026,0,0,0-1.027-.348c-.018.356-.039.58-.039.8,0,2.183.008,4.367-.005,6.55a3.207,3.207,0,0,1-2.288,3.263,3.165,3.165,0,0,1-4.026-3.167c-.009-2.376.022-4.752.057-7.128a1.15,1.15,0,0,0-.445-1.042,3.191,3.191,0,0,1-1.184-2.592q0-2.44,0-4.88a3.384,3.384,0,0,1,3.56-3.606c1.455-.022,2.911.018,4.366-.018a3.209,3.209,0,0,0,1.283-.294c3.1-1.495,6.174-3.026,9.266-4.529a.82.82,0,0,0,.567-.854,1.923,1.923,0,0,1,2.054-2.045c1.006-.01,2.012,0,3.018,0a1.933,1.933,0,0,1,2.162,2.131c.023,1.734.006,3.467.006,5.2Zm-12.816-1.146c-.271.114-.463.186-.648.274-.945.449-1.878.926-2.837,1.343a.746.746,0,0,0-.511.82q.03,4.108,0,8.217a.818.818,0,0,0,.561.861c2.788,1.346,5.562,2.72,8.341,4.083.185.091.377.167.618.273V215.766c-1.187.588-2.3,1.158-3.437,1.692a.812.812,0,0,0-.547.864c.028,2.161.009,4.322.014,6.484,0,.533-.231.9-.767.91s-.793-.342-.786-.884,0-1.113,0-1.669C212.392,221.65,212.392,220.138,212.392,218.542Zm11.222,6.591c0-3.811-.01-7.623.011-11.434,0-.557-.161-.769-.728-.745-.855.036-1.714.04-2.569,0-.622-.03-.812.2-.808.813.022,3.725.011,7.45.011,11.174,0,3.832.011,7.663-.011,11.495,0,.617.182.836.807.8a21.443,21.443,0,0,1,2.5,0c.625.037.8-.181.8-.8C223.6,232.67,223.615,228.9,223.615,225.133Zm-21.526,5.94c0,2.493-.009,4.931,0,7.368a1.46,1.46,0,0,0,1.553,1.635,1.477,1.477,0,0,0,1.585-1.671c.008-2.1,0-4.195,0-6.292,0-.336,0-.673,0-1.041Zm23.184-9.64v7.142a3.66,3.66,0,0,0,0-7.142Zm-24.75,1.489h6.269v-2.189c-1.479,0-2.923-.011-4.368,0A1.8,1.8,0,0,0,200.523,222.922Zm.027,4.522c.036,1.193.354,1.824,1.171,1.892,1.671.14,3.354.154,5.065.222v-2.114Zm-.045-1.682h6.236v-1.185h-6.236Z" transform="translate(-81.443 -82.653)" fill="#2e2e2e" stroke="#2e2e2e" stroke-linecap="round" stroke-linejoin="round" stroke-width="0.5"/>
  </g>
</svg>
