<svg id="Group_27923" data-name="Group 27923" xmlns="http://www.w3.org/2000/svg" width="59.261" height="57.642" viewBox="0 0 59.261 57.642">
  <path id="Path_7164" data-name="Path 7164" d="M252.216,133.395a4.99,4.99,0,0,1,2.695-3.288,5.213,5.213,0,0,1,2.242-.451q16.845.01,33.69,0a4.815,4.815,0,0,1,5.077,5.081q.017,9.073,0,18.145v1.963a1.058,1.058,0,0,0,.555-.412q3.478-3.468,6.95-6.944a2.826,2.826,0,0,1,4.405.016q1.331,1.325,2.656,2.657a2.837,2.837,0,0,1,.007,4.3q-4.584,4.61-9.19,9.2c-1.648,1.648-3.29,3.3-4.95,4.939a1.376,1.376,0,0,0-.441,1.069q.018,6.27,0,12.54a4.849,4.849,0,0,1-2.37,4.414,4.349,4.349,0,0,1-2.3.667q-17.221.006-34.442-.012a4.535,4.535,0,0,1-4.263-2.855c-.132-.277-.22-.575-.328-.863Zm41.272,38.265a1.265,1.265,0,0,0-.638.462q-2.886,2.876-5.761,5.761a1.455,1.455,0,0,1-1.214.547c-1.529-.16-3.06-.3-4.588-.483-.954-.112-1.261-.483-1.356-1.472-.1-1.052-.162-2.113-.345-3.151a3.108,3.108,0,0,1,1.022-3.062c4.185-4.067,8.276-8.231,12.411-12.349a1.447,1.447,0,0,0,.477-1.113q-.018-11.036-.011-22.074a2.387,2.387,0,0,0-2.71-2.685H257.262a2.394,2.394,0,0,0-2.712,2.688q0,23.749,0,47.5a2.4,2.4,0,0,0,2.712,2.688h33.457c1.877,0,2.765-.877,2.768-2.745q.007-4.941,0-9.881Zm-11.539,1.058c.086.833.2,1.577.228,2.325a.621.621,0,0,0,.65.7c.689.062,1.387.082,2.064.212a1.117,1.117,0,0,0,1.121-.368q4.48-4.508,8.983-8.994,5.168-5.168,10.343-10.33c.331-.329.376-.535.017-.878-.975-.931-1.921-1.892-2.863-2.856-.259-.265-.425-.344-.735-.033q-9.73,9.758-19.484,19.493A.843.843,0,0,0,281.949,172.718ZM305.6,148.9a.642.642,0,0,0-.48.251c-.34.34-.667.694-1.025,1.015-.259.231-.208.389.013.607q1.521,1.5,3.019,3.02c.239.244.424.272.666.009.311-.34.642-.663.978-.98a.62.62,0,0,0,.005-1.032c-.878-.862-1.743-1.738-2.613-2.609A.714.714,0,0,0,305.6,148.9Z" transform="translate(-252.216 -129.656)"/>
  <path id="Path_7165" data-name="Path 7165" d="M282.029,174.375q-5.517,0-11.033,0a2.352,2.352,0,0,1-.966-.126,1.128,1.128,0,0,1-.747-1.184,1.083,1.083,0,0,1,.926-1.04,5.566,5.566,0,0,1,1.034-.079q10.773-.006,21.546,0a7.039,7.039,0,0,1,.978.066,1.13,1.13,0,0,1,.989,1.04,1.15,1.15,0,0,1-.782,1.213,2.8,2.8,0,0,1-.97.11Z" transform="translate(-260.163 -149.354)"/>
  <path id="Path_7166" data-name="Path 7166" d="M282,159.346q5.516,0,11.032,0a2.673,2.673,0,0,1,.969.121,1.132,1.132,0,0,1,.743,1.235,1.08,1.08,0,0,1-.959,1,6.978,6.978,0,0,1-1.035.069q-10.743.006-21.486,0a6.379,6.379,0,0,1-1.035-.074,1.144,1.144,0,0,1-.958-1.079,1.206,1.206,0,0,1,.786-1.164,2.752,2.752,0,0,1,.97-.111Z" transform="translate(-260.159 -143.485)"/>
  <path id="Path_7167" data-name="Path 7167" d="M287.145,149.149q-2.712,0-5.423,0c-.865,0-1.41-.46-1.413-1.174a1.282,1.282,0,0,1,1.418-1.2q5.452-.009,10.9,0c1.032,0,1.648.84,1.269,1.675a1.191,1.191,0,0,1-1.216.7C290.838,149.143,288.992,149.148,287.145,149.149Z" transform="translate(-265.301 -137.627)"/>
</svg>
