<svg xmlns="http://www.w3.org/2000/svg" width="71" height="70.116" viewBox="0 0 71 70.116">
  <g id="Group_27914" data-name="Group 27914" transform="translate(-297.953 -67.905)">
    <path id="Path_7146" data-name="Path 7146" d="M368.953,106.441c-1.708,1.725-3.61,3.233-5.465,4.788a9.038,9.038,0,0,0-2.645,3.374c-1,2.306-2.134,4.556-3.242,6.815a1.443,1.443,0,0,0-.005,1.363,4.936,4.936,0,0,1-3.949,6.965c-.447.053-.553.246-.623.645a4.89,4.89,0,0,1-4.426,4.353c-.417.068-.494.3-.561.647a4.887,4.887,0,0,1-4.441,4.34c-.422.073-.488.316-.548.662a4.872,4.872,0,0,1-3.243,4.061,4.761,4.761,0,0,1-4.876-.836c-.435-.353-.678-.332-1.077.058-3.025,2.951-7.317,1.844-8.563-2.2a.631.631,0,0,0-.688-.512,4.921,4.921,0,0,1-5.044-4.315.841.841,0,0,0-.789-.775,4.95,4.95,0,0,1-4.255-5.1.535.535,0,0,0-.479-.609,4.938,4.938,0,0,1-2.871-7.822.62.62,0,0,0-.032-.851c-1.877-2.517-3.689-5.084-5.638-7.544a29.012,29.012,0,0,0-3.658-3.273c-1.031-.924-2.1-1.809-3.15-2.709a1.53,1.53,0,0,1-.259-2.411q4.122-5.127,8.264-10.24l4.437-5.5a1.616,1.616,0,0,1,2.558-.436c2.221,1.41,4.447,2.815,6.662,4.237a5.887,5.887,0,0,0,1.7.748q3.143.834,6.273,1.723A2.856,2.856,0,0,0,330,96.08c2.031-.615,4.08-1.171,6.115-1.776a7.908,7.908,0,0,1,2.318-.328c2.7.013,5.4,0,8.1.011a2.486,2.486,0,0,0,1.431-.406c2.17-1.4,4.357-2.785,6.536-4.175,1.156-.737,1.8-.624,2.651.486q5.8,7.55,11.608,15.1a2.753,2.753,0,0,0,.188.2ZM322.463,122.7a4.923,4.923,0,0,1,5.236,4.34c.046.478.169.737.688.709a1.877,1.877,0,0,1,.542.093,4.861,4.861,0,0,1,3.759,5.059c-.009.568.106.915.712,1.038a3.519,3.519,0,0,1,1.3.637,5,5,0,0,1,1.787,5.785c-.083.248-.261.473,0,.759a2.2,2.2,0,0,0,2.342.578,1.96,1.96,0,0,0,1.289-1.869,2.171,2.171,0,0,0-.731-1.654q-1.557-1.576-3.1-3.168a1.378,1.378,0,0,1-.377-1.521,1.445,1.445,0,0,1,1.165-.971,1.564,1.564,0,0,1,1.413.576c1.06,1.062,2.1,2.14,3.18,3.185a2.027,2.027,0,0,0,3.433-1.6,2.267,2.267,0,0,0-.8-1.556q-2.871-2.906-5.731-5.822a1.457,1.457,0,1,1,2.06-2.052c.186.173.361.357.54.537q2.636,2.654,5.271,5.306a2.057,2.057,0,1,0,2.949-2.84q-4.243-4.324-8.511-8.624a4.212,4.212,0,0,1-.587-.677,1.436,1.436,0,0,1,.277-1.829,1.377,1.377,0,0,1,1.835-.064,6.62,6.62,0,0,1,.6.571q4.222,4.249,8.446,8.5a2.061,2.061,0,0,0,3.074.141,2.118,2.118,0,0,0-.171-3.03q-7.95-7.963-15.906-15.92a1.655,1.655,0,0,0-1.094-.519c-1.541-.107-3.085-.179-4.623-.319a1.246,1.246,0,0,0-1.36.778c-.98,1.8-1.984,3.6-3.041,5.358a4.713,4.713,0,0,1-4.522,2.423,4.788,4.788,0,0,1-4.339-3.063,4.678,4.678,0,0,1,.24-4.329q2.466-4.411,4.979-8.8c.308-.534.169-.692-.364-.816-.853-.2-1.7-.425-2.536-.693a.96.96,0,0,0-1.19.372q-5.933,7.267-11.9,14.5a.723.723,0,0,0-.025,1.074q2.279,3.007,4.5,6.06c.312.43.52.411.936.143a4.9,4.9,0,0,1,7.465,2.633C321.744,122.638,321.974,122.861,322.463,122.7ZM342.171,96.93c-1.362,0-2.724,0-4.086,0a3.315,3.315,0,0,0-.955.129c-2.525.737-5.029,1.56-7.585,2.163a4.364,4.364,0,0,0-3.166,2.5c-1.274,2.508-2.74,4.919-4.11,7.378a1.9,1.9,0,0,0,.143,2.154,1.944,1.944,0,0,0,1.937.823,2.168,2.168,0,0,0,1.643-1.241c1.2-2.134,2.414-4.256,3.609-6.39a1.786,1.786,0,0,1,1.935-.991c2.135.2,4.275.353,6.417.44a3.133,3.133,0,0,1,2.253.994q7.148,7.2,14.341,14.358c.567.566.581.565.929-.161,1.049-2.185,2.088-4.374,3.142-6.556a.724.724,0,0,0-.068-.879q-5.622-7.12-11.217-14.261a1.128,1.128,0,0,0-1.006-.46C344.942,96.943,343.557,96.93,342.171,96.93Zm-23.931-1.005c0-.22-.168-.28-.3-.362-1.556-.993-3.119-1.976-4.668-2.98-.343-.222-.536-.1-.752.165q-5.342,6.631-10.7,13.252c-.311.384-.246.611.1.906q1.958,1.649,3.882,3.342c.33.291.5.246.77-.078q5.678-6.938,11.375-13.861C318.06,96.184,318.149,96.05,318.241,95.925Zm37.006-3.471c-.074.039-.179.085-.276.146-1.577,1-3.148,2.01-4.733,3-.362.226-.25.419-.059.662q.731.921,1.456,1.847l8.63,10.986c.262.333.473.7.977.246,1.274-1.134,2.574-2.239,3.877-3.339.348-.293.325-.533.064-.871q-4.777-6.185-9.538-12.382C355.549,92.62,355.472,92.466,355.246,92.454ZM319.483,133a1.883,1.883,0,0,0,1.345-.49c1.191-1.155,2.393-2.3,3.512-3.527a1.99,1.99,0,0,0-.1-2.762,1.925,1.925,0,0,0-2.748-.1c-1.225,1.116-2.4,2.3-3.527,3.51a1.871,1.871,0,0,0-.256,2.257A2.008,2.008,0,0,0,319.483,133Zm4.98,4.995a1.683,1.683,0,0,0,1.28-.435c1.207-1.169,2.425-2.332,3.565-3.565a2.051,2.051,0,0,0-.111-2.774,2.008,2.008,0,0,0-2.761-.08c-1.218,1.123-2.391,2.3-3.518,3.515a1.9,1.9,0,0,0-.249,2.261A1.924,1.924,0,0,0,324.463,138Zm-9.225-10.662a1.372,1.372,0,0,0,.846-.207,8.908,8.908,0,0,0,2.546-2.588,2.015,2.015,0,0,0-3.03-2.526,19.307,19.307,0,0,0-2.053,2.045,1.924,1.924,0,0,0-.194,2.211A1.9,1.9,0,0,0,315.238,127.337Zm12.873,12.987a1.9,1.9,0,0,0,1.047,1.808,1.852,1.852,0,0,0,2.143-.126,12.625,12.625,0,0,0,2.137-2.149,2,2,0,0,0-1.8-3.213c-1.044.078-3.4,2.358-3.513,3.4C328.116,140.137,328.116,140.23,328.111,140.323Z" transform="translate(0 -7.324)" fill="#2e2e2e"/>
    <path id="Path_7147" data-name="Path 7147" d="M363.248,86.289a1.385,1.385,0,0,1-1.315-.742,1.364,1.364,0,0,1,.04-1.448,3.025,3.025,0,0,1,.447-.525q4.5-4.505,9-9.007a1.655,1.655,0,0,1,1.588-.636,1.445,1.445,0,0,1,.856,2.287,2.7,2.7,0,0,1-.274.31q-4.6,4.6-9.2,9.2A1.519,1.519,0,0,1,363.248,86.289Z" transform="translate(-22.211 -2.086)" fill="#2e2e2e"/>
    <path id="Path_7148" data-name="Path 7148" d="M335.107,86.284A1.445,1.445,0,0,1,334,85.8q-4.673-4.672-9.342-9.349a1.455,1.455,0,1,1,2.05-2.056q4.688,4.658,9.35,9.342a1.439,1.439,0,0,1,.366,1.707A1.355,1.355,0,0,1,335.107,86.284Z" transform="translate(-9.118 -2.08)" fill="#2e2e2e"/>
    <path id="Path_7149" data-name="Path 7149" d="M353.138,81.79c0,1.267.009,2.535,0,3.8a1.44,1.44,0,1,1-2.867-.018q-.014-3.767,0-7.535a1.434,1.434,0,0,1,1.408-1.618c.883-.015,1.453.613,1.461,1.636C353.146,79.3,353.138,80.546,353.138,81.79Z" transform="translate(-18.213 -2.965)" fill="#2e2e2e"/>
    <path id="Path_7150" data-name="Path 7150" d="M353.137,69.339a1.43,1.43,0,1,1-1.442-1.434A1.389,1.389,0,0,1,353.137,69.339Z" transform="translate(-18.219)" fill="#2e2e2e"/>
  </g>
</svg>
