<svg xmlns="http://www.w3.org/2000/svg" width="68.409" height="58.814" viewBox="0 0 68.409 58.814">
  <g id="Group_27922" data-name="Group 27922" transform="translate(0 0)">
    <path id="Path_7161" data-name="Path 7161" d="M213.132,149.1a1.588,1.588,0,0,1-1.067.727c-1.66.406-3.313.845-4.975,1.246a.857.857,0,0,0-.75.784c-.234,1.355-.576,2.694-.779,4.054a4.777,4.777,0,0,1-2.32,3.408,12.329,12.329,0,0,1-5.048,1.8,17.684,17.684,0,0,1-14.016-3.682,9.8,9.8,0,0,1-2.614-3,4.164,4.164,0,0,1-.488-3.014c.318-1.406.552-2.832.86-4.242a.966.966,0,0,0-.434-1.134c-1.341-.953-2.659-1.938-3.991-2.9-.464-.337-.9-.688-.782-1.348s.631-.893,1.231-1.045q8.85-2.235,17.693-4.5a2.147,2.147,0,0,1,1.986.37q7.378,5.445,14.8,10.834a2.652,2.652,0,0,1,.7.709Zm-3.9-1.088A2.606,2.606,0,0,0,209,147.8q-6.134-4.492-12.264-8.988a1.194,1.194,0,0,0-1.12-.159q-7.263,1.847-14.528,3.68c-.161.04-.344.044-.445.212a.921.921,0,0,0,.106.115q6.27,4.586,12.538,9.177a1.02,1.02,0,0,0,.942.128l14.526-3.7C208.923,148.22,209.108,148.216,209.232,148.013Zm-5.254,3.867c-.294.062-.489.1-.68.145-2.584.651-5.164,1.318-7.751,1.952-2.882.707-1.966.891-4.446-.893-2.147-1.545-4.275-3.117-6.4-4.7-.446-.332-.608-.294-.692.274a11.242,11.242,0,0,1-.474,2.279c-.631,1.687.147,2.879,1.25,3.979a10.619,10.619,0,0,0,1.368,1.166,15.507,15.507,0,0,0,12.08,2.678,9.15,9.15,0,0,0,4.218-1.715,1.841,1.841,0,0,0,.742-1.074C203.458,154.648,203.7,153.318,203.978,151.88Z" transform="translate(-144.723 -136.158)"/>
    <path id="Path_7162" data-name="Path 7162" d="M158.493,204.557c-9.434,0-18.867-.064-28.3.039a5.141,5.141,0,0,1-4.834-5.611c.066-.6.466-.945,1.227-.987.844-.047,1.69-.022,2.536-.026.645,0,1.291-.021,1.936,0,.5.019.769-.137.7-.682a3.634,3.634,0,0,1,0-.466c0-10.524.032-21.048-.029-31.571a3.352,3.352,0,0,1,3.6-3.6c1.713.026,3.426,0,5.139,0q8.61,0,17.22,0a3.446,3.446,0,0,1,1.125.105A1.064,1.064,0,0,1,159.6,163a1.034,1.034,0,0,1-1.015.968,7.2,7.2,0,0,1-.733.011H135.49c-1.257,0-1.507.253-1.508,1.532q0,15.485,0,30.97c0,1.3.2,1.494,1.52,1.494h45.988c1.329,0,1.522-.2,1.523-1.563q0-11.714,0-23.428c0-1.153.316-1.628,1.086-1.644.786-.016,1.144.5,1.144,1.662q0,12.048,0,24.1c0,.873,0,.876.895.878,1.312,0,2.625-.011,3.938.006,1.215.014,1.584.408,1.574,1.617a5.2,5.2,0,0,1-3.6,4.862,4.717,4.717,0,0,1-1.258.1Q172.643,204.559,158.493,204.557Zm0-4.272H128.931c-.2,0-.4.008-.6,0-.465-.02-.551.174-.344.567a2.414,2.414,0,0,0,2.354,1.408q21.388-.035,42.776-.016c4.56,0,9.121-.016,13.68.012a2.286,2.286,0,0,0,2.15-1.3c.306-.535.238-.655-.356-.674-.178-.005-.356,0-.534,0Z" transform="translate(-125.332 -145.782)"/>
    <path id="Path_7163" data-name="Path 7163" d="M166.336,187.147v-8.676c0-.178,0-.356,0-.534.029-1.294.866-1.808,2.011-1.213,2.229,1.159,4.451,2.333,6.676,3.5q5.436,2.851,10.874,5.7c.517.27.955.564.936,1.241-.018.64-.449.925-.937,1.18l-17.32,9.061c-.079.041-.158.083-.237.122-1.16.573-1.975.072-2-1.236-.012-.578,0-1.157,0-1.735Zm2.335-.024h0c0,2.336.007,4.672-.006,7.008,0,.49.108.581.566.34q6.7-3.529,13.413-7.033c.148-.078.388-.1.38-.319-.006-.169-.213-.206-.345-.276q-6.676-3.5-13.355-7c-.623-.326-.653-.3-.654.4Q168.668,183.686,168.671,187.123Z" transform="translate(-140.807 -151.376)"/>
  </g>
</svg>
