<svg xmlns="http://www.w3.org/2000/svg" width="65.687" height="65.688" viewBox="0 0 65.687 65.688">
  <g id="Group_28072" data-name="Group 28072" transform="translate(-127 -903.537)">
    <g id="Group_27917" data-name="Group 27917" transform="translate(-428.621 829.276)">
      <path id="Path_7156" data-name="Path 7156" d="M609.952,126.487c-2,0-4,.012-6-.007-.536-.005-.746.149-.82.729a5.893,5.893,0,0,1-5.825,5.157q-8.821.038-17.643,0a5.892,5.892,0,0,1-5.8-5.018c-.111-.765-.417-.875-1.073-.872-3.831.023-7.663.015-11.494.009a5.543,5.543,0,0,1-4.17-1.639,5.171,5.171,0,0,1-.782-6.283,13.4,13.4,0,0,1,6.327-5.767c.817-.367.8-.351.229-.981a7.226,7.226,0,0,1-1.629-7.733,6.9,6.9,0,0,1,6.113-4.752,7.252,7.252,0,0,1,7.466,3.917,7.381,7.381,0,0,1-1.342,8.591c-.442.446-.524.629.143.915a12.99,12.99,0,0,1,5.619,4.543c.325.464.59.528,1.059.2a10.1,10.1,0,0,1,2.425-1.191c.515-.18.546-.334.125-.709a8.5,8.5,0,0,1-.821-12.134,8.23,8.23,0,0,1,8.736-2.5,7.83,7.83,0,0,1,6.073,6.6,8.178,8.178,0,0,1-2.782,8.035c-.43.383-.367.526.132.71a11.637,11.637,0,0,1,2.553,1.262c.368.252.592.185.838-.169a13.156,13.156,0,0,1,5.842-4.716c.661-.276.355-.489.054-.8a7.384,7.384,0,0,1,6.52-12.525,7.2,7.2,0,0,1,6.029,6.057A7.277,7.277,0,0,1,614,111.864c-.425.447-.461.619.159.885a13.236,13.236,0,0,1,6.275,5.506,5.278,5.278,0,0,1-4.552,8.225C613.906,126.519,611.929,126.486,609.952,126.487Zm-21.488,3.343c2.9,0,5.8.02,8.706-.006a3.412,3.412,0,0,0,3.085-5.062,11.792,11.792,0,0,0-2.915-3.72,13.136,13.136,0,0,0-9.955-3.182A12.83,12.83,0,0,0,576.83,124.5a3.492,3.492,0,0,0,3.15,5.359C582.8,129.723,585.636,129.831,588.464,129.83Zm21.246-5.883c2.048,0,4.095.009,6.142,0a2.744,2.744,0,0,0,2.518-4.262c-3.828-7.014-14.218-7.5-18.708-.887a.76.76,0,0,0,.13,1.173,12.585,12.585,0,0,1,2.521,3.386,1,1,0,0,0,1.035.6C605.47,123.934,607.59,123.948,609.71,123.947Zm-42.466,0c2.145,0,4.29-.009,6.434.007a.9.9,0,0,0,.926-.533,13.161,13.161,0,0,1,2.608-3.5.69.69,0,0,0,.127-1.056c-4.471-6.675-14.906-6.226-18.748.817a2.742,2.742,0,0,0,2.511,4.265C563.15,123.957,565.2,123.947,567.244,123.948Zm21.205-8.787a6.006,6.006,0,1,0,.022-12.011,6.006,6.006,0,1,0-.022,12.011Zm-20.182-3.652a4.868,4.868,0,1,0-4.942-4.806A4.892,4.892,0,0,0,568.267,111.509Zm40.425,0a4.867,4.867,0,1,0-4.874-4.885A4.856,4.856,0,0,0,608.693,111.509Z" transform="translate(0 -8.694)" fill="#2e2e2e"/>
      <path id="Path_7157" data-name="Path 7157" d="M590.512,164.924c-12.12-.492-21.728-5.465-28.174-16.024-.152-.25-.3-.5-.429-.766a1.292,1.292,0,0,1,.388-1.855,1.243,1.243,0,0,1,1.773.624,31.646,31.646,0,0,0,3.63,5.13,29.44,29.44,0,0,0,18.208,10.011c10.576,1.524,19.585-1.7,27-9.372a28.412,28.412,0,0,0,4.134-5.662,1.572,1.572,0,0,1,.937-.869,1.175,1.175,0,0,1,1.251.409,1.239,1.239,0,0,1,.086,1.5,29.74,29.74,0,0,1-3.335,4.979,32.153,32.153,0,0,1-21.114,11.55C593.444,164.777,592,164.812,590.512,164.924Z" transform="translate(-2.111 -24.976)" fill="#2e2e2e"/>
      <path id="Path_7158" data-name="Path 7158" d="M593.1,74.261a32.149,32.149,0,0,1,23.12,10c.388.4.755.83,1.114,1.261a1.264,1.264,0,1,1-1.9,1.622,28.341,28.341,0,0,0-6.724-5.814,29.943,29.943,0,0,0-13.352-4.38,30.912,30.912,0,0,0-16.016,2.781,28.336,28.336,0,0,0-9.439,7.146c-.112.129-.212.269-.331.39a1.244,1.244,0,0,1-1.768.181,1.225,1.225,0,0,1-.114-1.822,27.239,27.239,0,0,1,3.978-3.978,32.087,32.087,0,0,1,16.958-7.112A39.793,39.793,0,0,1,593.1,74.261Z" transform="translate(-4.074)" fill="#2e2e2e"/>
      <path id="Path_7159" data-name="Path 7159" d="M595.018,157.859a25.328,25.328,0,0,1-19.98-9.483,1.371,1.371,0,0,1-.441-1.255,1.272,1.272,0,0,1,.919-.955,1.171,1.171,0,0,1,1.246.418c.644.7,1.239,1.445,1.911,2.116a22.176,22.176,0,0,0,13.742,6.491,23.119,23.119,0,0,0,16.817-4.519,21.3,21.3,0,0,0,3.626-3.5c.171-.206.337-.419.528-.607a1.23,1.23,0,0,1,1.872,1.6,21.633,21.633,0,0,1-2.879,3.111,25.841,25.841,0,0,1-15.167,6.576C596.487,157.917,595.75,157.859,595.018,157.859Z" transform="translate(-6.586 -24.982)" fill="#2e2e2e"/>
      <path id="Path_7160" data-name="Path 7160" d="M598.423,85a25.147,25.147,0,0,1,14.171,4.827,1.479,1.479,0,0,1,.789,1.236,1.163,1.163,0,0,1-.662,1.061A1.239,1.239,0,0,1,611.346,92a22.857,22.857,0,0,0-4.37-2.5,23.21,23.21,0,0,0-22.649,2.11c-.245.159-.476.344-.731.486a1.228,1.228,0,0,1-1.678-.368,1.212,1.212,0,0,1,.317-1.689,19.592,19.592,0,0,1,2.826-1.819A26.687,26.687,0,0,1,598.423,85Z" transform="translate(-9.068 -3.734)" fill="#2e2e2e"/>
    </g>
  </g>
</svg>
