<svg xmlns="http://www.w3.org/2000/svg" width="113" height="113" viewBox="0 0 113 113">
  <g id="Group_28123" data-name="Group 28123" transform="translate(-990 -1936.486)">
    <circle id="Ellipse_765" data-name="Ellipse 765" cx="56.5" cy="56.5" r="56.5" transform="translate(990 1936.486)" fill="#f0f9f0"/>
    <g id="bx-rupee" transform="translate(1017.104 1959.985)">
      <path id="Path_14836" data-name="Path 14836" d="M46.886,14.343V8H12v6.343H23.1a9.493,9.493,0,0,1,8.928,6.343H12v6.343H32.028A9.5,9.5,0,0,1,23.1,33.371H12v7.656L29.716,58.743h8.969L19.656,39.714H23.1A15.879,15.879,0,0,0,38.634,27.029h8.252V20.686H38.634a15.645,15.645,0,0,0-2.93-6.343Z" transform="translate(0)" fill="#46ac3f"/>
    </g>
  </g>
</svg>
