<svg xmlns="http://www.w3.org/2000/svg" width="113" height="113" viewBox="0 0 113 113">
  <g id="Group_28124" data-name="Group 28124" transform="translate(-990 -2163.256)">
    <circle id="Ellipse_766" data-name="Ellipse 766" cx="56.5" cy="56.5" r="56.5" transform="translate(990 2163.256)" fill="#f3f1f6"/>
    <g id="Group_27951" data-name="Group 27951" transform="translate(874.124 2003.364)">
      <path id="Path_14850" data-name="Path 14850" d="M196.078,246.543a6.261,6.261,0,0,1-3.691-2.531c-2.581-3.432-5.209-6.83-7.794-10.258-.345-.458-.571-.468-1.023-.141a24.9,24.9,0,0,1-11.994,4.729,25.6,25.6,0,0,1-22.824-8.551,25.123,25.123,0,0,1-6.437-14.057,2.33,2.33,0,0,0-.073-.284v-6.36c.061-.307.124-.613.182-.92,1.843-9.877,7.438-16.675,16.721-20.438a27.953,27.953,0,0,1,5.9-1.491h6.465a28.907,28.907,0,0,1,4.964,1.154c9.779,3.579,15.79,10.453,17.62,20.742a25.206,25.206,0,0,1-4.6,19.559c-.327.462-.24.664.167.973q5.267,4,10.509,8.038a5.425,5.425,0,0,1,1.578,7.222,5.733,5.733,0,0,1-3.552,2.614Zm-51.727-34.184a23.98,23.98,0,1,0,23.879-24.017A24.04,24.04,0,0,0,144.351,212.359Zm52.622,32.062a3.248,3.248,0,0,0,2.1-5.825c-3.64-2.82-7.307-5.6-10.958-8.409a.437.437,0,0,0-.7.048c-.4.432-.812.852-1.246,1.248a.463.463,0,0,0-.053.745c2.788,3.642,5.56,7.3,8.355,10.934A2.95,2.95,0,0,0,196.973,244.421Z" fill="#69528c"/>
      <path id="Path_14851" data-name="Path 14851" d="M172.553,238.757a22.188,22.188,0,0,1-5.515-43.692,1.1,1.1,0,0,1,1.445.731,1.117,1.117,0,0,1-.858,1.331c-.148.05-.3.092-.451.133a19.1,19.1,0,0,0-7.312,3.763,19.585,19.585,0,0,0-7.223,13.114,19.964,19.964,0,1,0,23.382-17.285,15.05,15.05,0,0,0-2.858-.28,3.892,3.892,0,0,1-.816-.07,1.055,1.055,0,0,1,.188-2.1,19.461,19.461,0,0,1,7.362,1.279c8.04,3.112,12.974,8.932,14.4,17.44a21.267,21.267,0,0,1-5.658,18.567,21.519,21.519,0,0,1-12.538,6.775A17.39,17.39,0,0,1,172.553,238.757Z" transform="translate(-4.141 -4.19)" fill="#69528c"/>
      <path id="Path_14852" data-name="Path 14852" d="M180.972,234.116c-3.585,0-7.17.008-10.754,0a3.1,3.1,0,0,1-3.32-2.553,3.141,3.141,0,0,1,.479-2.3q2.6-4.479,5.2-8.954,2.824-4.858,5.646-9.716a2.992,2.992,0,0,1,5.457-.03q5.445,9.357,10.872,18.724c1.372,2.367-.079,4.812-2.884,4.83C188.1,234.134,184.537,234.116,180.972,234.116Zm0-2.166q5.318,0,10.636,0c1.239,0,1.618-.673.994-1.748l-10.7-18.414c-.627-1.08-1.249-1.094-1.869-.029q-5.355,9.2-10.7,18.414c-.65,1.119-.276,1.775,1,1.776Q175.654,231.952,180.972,231.95Z" transform="translate(-12.635 -11.592)" fill="#69528c"/>
      <path id="Path_14853" data-name="Path 14853" d="M254.546,297.638a1.082,1.082,0,0,1-.6,1,.931.931,0,0,1-1.1-.106,10.534,10.534,0,0,1-1.2-1.2.936.936,0,0,1,.043-1.29.914.914,0,0,1,1.205-.3,4.491,4.491,0,0,1,1.555,1.558A1.073,1.073,0,0,1,254.546,297.638Z" transform="translate(-56.082 -56.189)" fill="#69528c"/>
      <path id="Path_14854" data-name="Path 14854" d="M193.655,227.89c0-1.1-.006-2.2,0-3.3.005-.784.424-1.285,1.062-1.3a1.131,1.131,0,0,1,1.1,1.268q.023,3.324,0,6.649a1.134,1.134,0,0,1-1.1,1.27c-.638-.012-1.058-.514-1.063-1.3C193.649,230.087,193.655,228.988,193.655,227.89Z" transform="translate(-26.41 -19.034)" fill="#69528c"/>
      <path id="Path_14855" data-name="Path 14855" d="M195.816,247.529c0,1.168-.414,1.678-1.207,1.612a.949.949,0,0,1-.339-.078c-.853-.426-.609-1.225-.618-1.921a1.061,1.061,0,0,1,2.053-.417A2.016,2.016,0,0,1,195.816,247.529Z" transform="translate(-26.396 -30.712)" fill="#69528c"/>
    </g>
  </g>
</svg>
