<?xml version="1.0" encoding="UTF-8"?><svg id="Layer_2" xmlns="http://www.w3.org/2000/svg" viewBox="0 0 110.75 110.75"><defs><style>.cls-1{fill:none;}.cls-2{fill:#f7b552;}.cls-3{fill:#fff;}</style></defs><g id="Layer_1-2"><rect class="cls-3" width="110.75" height="110.75"/><g><path id="Path_12563" class="cls-2" d="M8.77,67c.5-1.74,1.09-3.45,1.78-5.13,1.85-3.91,5-7.06,8.92-8.89,.27-.13,.54-.26,.78-.38-1.2-1.05-2.34-2.16-3.42-3.33-6.04-7.15-5.13-17.84,2.02-23.88,2.32-1.96,5.12-3.26,8.11-3.76,6.98-1.15,13.95,2.14,17.49,8.26,.8,1.4,.59,2.67-.55,3.33s-2.31,.2-3.16-1.19c-2.94-4.77-7.28-6.95-12.79-6.21-4.91,.51-9,3.97-10.33,8.73-2.13,6.68,1.57,13.83,8.25,15.95,1.18,.38,2.41,.58,3.66,.6,.69,0,1.39-.12,2.09-.17,1.15-.21,2.25,.54,2.46,1.69,0,.05,.02,.09,.02,.14,.15,1.15-.67,2.2-1.82,2.35-.06,0-.12,.01-.18,.01-1.96,.18-3.94,.2-5.9,.35-6.5,.62-11.82,5.46-13.05,11.87-.27,1.57-.29,3.19-.43,4.95h1.22c4.98,0,9.97-.01,14.95,0,1.82,0,2.91,1.54,2.2,3.05-.43,.87-1.37,1.38-2.33,1.26-3.34,0-6.69,0-10.03,0-2.37,0-4.74-.04-7.11,.02-1.06,.11-2.12-.28-2.85-1.07v-8.57Z"/><path id="Path_12564" class="cls-2" d="M45.83,65.29c-7.82-5.21-9.94-15.77-4.74-23.59,5.21-7.82,15.77-9.94,23.59-4.74,.78,.52,1.51,1.1,2.19,1.74,3.86,3.49,5.84,8.6,5.32,13.78-.38,5.2-3.16,9.93-7.51,12.8,2.7,1.14,5.11,2.87,7.05,5.07,3.14,3.57,4.85,8.18,4.79,12.94,0,1.12,0,2.25,0,3.37-.02,1.93-.77,2.67-2.73,2.69-.73,0-1.46,0-2.19,0H37.14c-.46,.01-.91-.02-1.36-.09-.89-.08-1.59-.8-1.66-1.69-.43-5.88,.12-11.54,3.99-16.38,1.84-2.32,4.18-4.19,6.84-5.47,.27-.13,.54-.27,.88-.43Zm8.95-1.46c7.02,.27,12.92-5.19,13.2-12.21,.27-7.02-5.19-12.92-12.21-13.2-7-.27-12.89,5.16-13.19,12.16-.32,6.99,5.09,12.92,12.08,13.24,.04,0,.08,0,.12,0h0Zm17.46,21.2v-2.22c-.09-6.46-4.32-12.12-10.49-14.04-2.71-.69-5.52-.91-8.31-.63-1.81,.04-3.61,.35-5.34,.91-6.6,2.36-10.65,9.03-9.69,15.98h33.82Z"/><path id="Path_12565" class="cls-2" d="M90.29,52.45c1.47,.84,2.9,1.75,4.28,2.73,4.66,3.53,7.39,9.04,7.39,14.88,.03,1.37,0,2.74,0,4.1,.15,1.21-.7,2.31-1.91,2.46-.19,.02-.38,.02-.58,0-2.19,.01-4.38,0-6.57,0-3.74,0-7.48,.01-11.21,0-1.8,0-2.88-1.42-2.3-2.93,.39-.93,1.35-1.49,2.35-1.37,4.8,0,9.6,0,14.4,0h1.5c.46-3.95-.62-7.93-3.03-11.11-2.83-3.72-7.24-5.89-11.91-5.84-1.46-.03-2.91-.08-4.36-.23-1.16-.1-2.01-1.11-1.92-2.27,0-.03,0-.05,0-.08,.09-1.12,1.08-1.95,2.19-1.86,.06,0,.13,.01,.19,.03,3.66,.62,7.4-.45,10.17-2.91,3.87-3.11,5.44-8.27,3.95-13.01-1.14-4.77-5.07-8.35-9.92-9.06-5.31-1.04-10.68,1.45-13.3,6.18-.39,.97-1.42,1.52-2.44,1.32-.91-.13-1.6-.88-1.67-1.79-.03-.51,.08-1.02,.32-1.47,4.48-8.2,14.77-11.22,22.97-6.74,4.35,2.38,7.43,6.53,8.45,11.38,1.34,7.11-.98,12.9-6.72,17.31-.14,.11-.28,.23-.36,.29Z"/><path id="Path_12566" class="cls-1" d="M54.78,63.83c-7.02-.27-12.48-6.18-12.21-13.2,.27-7.02,6.18-12.48,13.2-12.21,7.02,.27,12.48,6.18,12.21,13.2,0,.02,0,.03,0,.05-.28,7-6.18,12.44-13.17,12.16,0,0-.01,0-.02,0Z"/><path id="Path_12567" class="cls-1" d="M72.24,85.03H38.42c-.96-6.95,3.08-13.62,9.69-15.98,1.73-.56,3.52-.87,5.34-.91,2.78-.27,5.6-.06,8.31,.63,6.17,1.91,10.4,7.58,10.49,14.04,0,.72,0,1.44,0,2.22Z"/></g></g></svg>