<svg xmlns="http://www.w3.org/2000/svg" width="86" height="86" viewBox="0 0 86 86">
  <g id="Group_28118" data-name="Group 28118" transform="translate(-855 -3129)">
    <g id="Group_27996" data-name="Group 27996" transform="translate(-4 -487)">
      <circle id="Ellipse_784" data-name="Ellipse 784" cx="43" cy="43" r="43" transform="translate(859 3616)" fill="#fff" opacity="0.08"/>
      <g id="certificatealt" transform="translate(881 3630)">
        <path id="Path_14824" data-name="Path 14824" d="M37.609,21.459l5.365,5.756-7.544,2.347,1.788,7.656L30.12,35.6l5.7,18.162a3.333,3.333,0,0,1-1.565,2.906L31.35,53.759l-3.465,3.465a3.5,3.5,0,0,1-2.012-1.257,3.441,3.441,0,0,1-.782-2.207L21.459,42.247,17.882,53.759a3.441,3.441,0,0,1-.782,2.207,3.5,3.5,0,0,1-2.012,1.257l-3.465-3.465L8.718,56.664a3.333,3.333,0,0,1-1.565-2.906l5.7-18.162-7.1,1.621,1.788-7.656L0,27.215l5.365-5.756L0,15.7l7.544-2.291L5.756,5.756l7.656,1.788L15.7,0l5.756,5.365L27.215,0l2.347,7.544,7.656-1.788-1.788,7.656L42.973,15.7ZM21.487,10.729a10.36,10.36,0,0,0-7.6,3.157,10.36,10.36,0,0,0-3.157,7.6,10.36,10.36,0,0,0,3.157,7.6,10.36,10.36,0,0,0,7.6,3.157,10.36,10.36,0,0,0,7.6-3.157,10.36,10.36,0,0,0,3.157-7.6,10.36,10.36,0,0,0-3.157-7.6A10.36,10.36,0,0,0,21.487,10.729Z" fill="#f67712"/>
      </g>
    </g>
  </g>
</svg>
