<svg xmlns="http://www.w3.org/2000/svg" width="86" height="86" viewBox="0 0 86 86">
  <g id="Group_28116" data-name="Group 28116" transform="translate(-855 -2810)">
    <g id="Group_27994" data-name="Group 27994" transform="translate(9 -115)">
      <circle id="Ellipse_782" data-name="Ellipse 782" cx="43" cy="43" r="43" transform="translate(846 2925)" fill="#fff" opacity="0.08"/>
      <g id="group-solid" transform="translate(859.054 2937.993)">
        <path id="Path_14818" data-name="Path 14818" d="M19.3,21.522H17.758A15.353,15.353,0,0,0,6.372,25.985l-.425.5V41.143h7.225V32.82l.974-1.1.443-.514a19.479,19.479,0,0,1,8.341-5.065,11.67,11.67,0,0,1-3.63-4.622Z" transform="translate(0 4.432)" fill="#46ac3f"/>
        <path id="Path_14819" data-name="Path 14819" d="M45.952,25.945a15.353,15.353,0,0,0-11.387-4.463,18.541,18.541,0,0,0-1.93.106,11.67,11.67,0,0,1-3.542,4.339,19.32,19.32,0,0,1,8.854,5.313l.443.5.956,1.1v8.341h6.977V26.441Z" transform="translate(7.595 4.419)" fill="#46ac3f"/>
        <path id="Path_14820" data-name="Path 14820" d="M16.59,22.482h.549a11.422,11.422,0,0,1,5.507-11.139A7.243,7.243,0,1,0,16.59,22.552Z" transform="translate(1.115 0.019)" fill="#46ac3f"/>
        <path id="Path_14821" data-name="Path 14821" d="M33.868,21.173a11.581,11.581,0,0,1,0,1.222,7.243,7.243,0,0,0,1.027.089h.336a7.243,7.243,0,1,0-6.605-10.944,11.564,11.564,0,0,1,5.242,9.633Z" transform="translate(7.442 0)" fill="#46ac3f"/>
        <circle id="Ellipse_758" data-name="Ellipse 758" cx="7.916" cy="7.916" r="7.916" transform="translate(21.778 13.275)" fill="#46ac3f"/>
        <path id="Path_14822" data-name="Path 14822" d="M27.367,27.071a17.16,17.16,0,0,0-12.591,4.781l-.443.5V43.557a2.78,2.78,0,0,0,2.833,2.727H37.514a2.78,2.78,0,0,0,2.833-2.727V32.383l-.425-.531A16.965,16.965,0,0,0,27.367,27.071Z" transform="translate(2.752 6.25)" fill="#46ac3f"/>
      </g>
    </g>
  </g>
</svg>
