<svg xmlns="http://www.w3.org/2000/svg" width="86" height="86" viewBox="0 0 86 86">
  <g id="Group_28115" data-name="Group 28115" transform="translate(-855 -2400)">
    <g id="Group_27993" data-name="Group 27993" transform="translate(14 -183)">
      <circle id="Ellipse_781" data-name="Ellipse 781" cx="43" cy="43" r="43" transform="translate(841 2583)" fill="#fff" opacity="0.08"/>
      <g id="_7f03353d04dd79280627beba86822cd6" data-name="7f03353d04dd79280627beba86822cd6" transform="translate(855.729 2597.729)">
        <path id="Path_14816" data-name="Path 14816" d="M28.771,0A28.771,28.771,0,1,0,57.541,28.771,28.771,28.771,0,0,0,28.771,0Zm1.8,53.853v-3.5a1.8,1.8,0,0,0-3.6,0v3.5A25.174,25.174,0,0,1,3.688,30.569h3.5a1.8,1.8,0,0,0,0-3.6h-3.5A25.174,25.174,0,0,1,26.972,3.688v3.5a1.8,1.8,0,0,0,3.6,0v-3.5A25.174,25.174,0,0,1,53.853,26.972h-3.5a1.8,1.8,0,0,0,0,3.6h3.5A25.174,25.174,0,0,1,30.569,53.853Z" fill="#707ae1"/>
        <path id="Path_14817" data-name="Path 14817" d="M27.587,20.587H18.6V9.8a1.8,1.8,0,0,0-3.6,0V22.385a1.8,1.8,0,0,0,1.8,1.8H27.587a1.8,1.8,0,0,0,0-3.6Z" transform="translate(11.972 6.385)" fill="#707ae1"/>
      </g>
    </g>
  </g>
</svg>
