<?xml version="1.0" encoding="UTF-8"?><svg id="Layer_2" xmlns="http://www.w3.org/2000/svg" viewBox="0 0 110.75 110.75"><defs><style>.cls-1{fill:#fff;}.cls-2{fill:#707ae1;}</style></defs><g id="Layer_1-2"><rect class="cls-1" width="110.75" height="110.75"/><path id="Path_12540" class="cls-2" d="M55.34,90.12H21.89c-1.42,.08-2.84-.21-4.11-.84-2.25-1.18-3.61-3.55-3.49-6.09,0-11.77,0-23.55,0-35.32v-7.3c0-4.53,2.7-7.26,7.24-7.28,4.83-.03,9.67,0,14.5,0,1.33,0,1.33,0,1.33-1.3v-4.14c0-4.36,2.54-7.1,6.9-7.15,7.4-.09,14.8-.07,22.2,0,3.86,.04,6.73,2.58,6.91,5.94,.08,1.61,.02,3.22,.03,4.83,.01,1.91-.25,1.83,1.79,1.83h13.91c4.67,0,7.36,2.7,7.36,7.36v42.53c.16,3.15-1.96,5.97-5.03,6.7-.87,.19-1.75,.28-2.64,.26H55.34Zm.08-3.58c11.28,0,22.56-.04,33.84,.03,2.66,.02,3.74-1.56,3.74-3.76-.01-10.36-.02-20.72,0-31.08,0-1.09-.03-1.11-1.04-.72-9.53,3.7-19.06,7.4-28.59,11.1-.55,.14-.91,.68-.83,1.24,.04,1.64,.02,3.29,0,4.93,.14,.94-.51,1.82-1.45,1.96-.16,.02-.32,.02-.48,0-3.49,.02-6.97,.02-10.46,0-.94,.12-1.81-.54-1.94-1.48-.02-.16-.02-.32,0-.48-.02-1.58-.06-3.16,.01-4.73,.1-.73-.38-1.42-1.1-1.57-9.39-3.62-18.76-7.26-28.14-10.91-1.23-.48-1.23-.48-1.24,.86v30.79c0,2.74,1.1,3.83,3.82,3.83,11.28,0,22.57,0,33.85,0h0Zm-.05-49.67c-11.35,0-22.7,.04-34.04-.03-1.82-.16-3.43,1.2-3.59,3.02-.02,.2-.02,.39,0,.59,.03,1.78,.04,3.56-.01,5.33-.1,.66,.32,1.3,.98,1.45,9.51,3.67,19,7.36,28.49,11.08,.75,.29,1.12,.27,1-.65-.01-.16-.01-.33,0-.49,0-1.82,.59-2.4,2.44-2.41,2.93,0,5.86,.04,8.79-.02,2.29-.04,3.35,.28,3.12,3.01-.07,.8,.22,.86,.91,.6,9.55-3.73,19.11-7.45,28.68-11.15,.59-.15,.96-.72,.88-1.32-.04-1.74-.04-3.49,0-5.23,.04-2.21-1.04-3.83-3.78-3.81-11.29,.09-22.57,.04-33.85,.04h0Zm-.1-3.59c4.5,0,9.01-.02,13.51,.01,.82,0,1.2-.2,1.16-1.1-.06-1.58,0-3.15-.02-4.73,.13-1.65-1.1-3.09-2.74-3.22-.15-.01-.3-.01-.46,0-7.56-.01-15.12-.01-22.68,0-1.65-.13-3.09,1.11-3.21,2.76-.01,.15-.01,.3,0,.44-.02,1.54,.05,3.09-.02,4.63-.04,.97,.31,1.23,1.25,1.23,4.4-.04,8.81-.02,13.21-.02h0Zm-3.58,29.2c0,1.12,.02,2.23,0,3.35-.02,.65,.17,.96,.89,.95,1.87-.03,3.74-.03,5.62,0,.7,.01,.91-.28,.9-.94-.03-2.23-.03-4.46,0-6.7,0-.65-.17-.96-.89-.94-1.87,.03-3.74,.03-5.62,0-.7-.01-.92,.27-.9,.93,.04,1.12,.01,2.24,.01,3.36h0Z"/></g></svg>