<svg xmlns="http://www.w3.org/2000/svg" width="86" height="86" viewBox="0 0 86 86">
  <g id="Group_28117" data-name="Group 28117" transform="translate(-855 -2970)">
    <g id="Group_27995" data-name="Group 27995" transform="translate(48 -293)">
      <circle id="Ellipse_783" data-name="Ellipse 783" cx="43" cy="43" r="43" transform="translate(807 3263)" fill="#fff" opacity="0.08"/>
      <g id="workshirt" transform="translate(828 3284)">
        <path id="Path_14823" data-name="Path 14823" d="M39.375,45H5.625a5.419,5.419,0,0,1-3.977-1.648A5.419,5.419,0,0,1,0,39.375V11.25A5.419,5.419,0,0,1,1.648,7.273,5.419,5.419,0,0,1,5.625,5.625H8.438L11.25,1.406Q12.041,0,16.875,0h11.25q4.834,0,5.625,1.406l2.813,4.219h2.812a5.419,5.419,0,0,1,3.977,1.648A5.419,5.419,0,0,1,45,11.25V39.375A5.626,5.626,0,0,1,39.375,45ZM14.062,2.812,11.25,7.031l4.219,4.219,4.219-5.625Zm3.56,10.415a3.574,3.574,0,0,1-2.153.835,4.052,4.052,0,0,1-2.812-1.406L9.844,9.844a4.98,4.98,0,0,1-.967-1.406H5.625a2.739,2.739,0,0,0-1.978.813,2.682,2.682,0,0,0-.835,2V39.375a2.777,2.777,0,0,0,2.812,2.813h8.437l5.669-27.114ZM30.938,2.812,25.313,5.625l4.219,5.625L33.75,7.031Zm11.25,8.437a2.682,2.682,0,0,0-.835-2,2.739,2.739,0,0,0-1.978-.813h-3.3a4.345,4.345,0,0,1-.923,1.406l-2.812,2.813a4.052,4.052,0,0,1-2.813,1.406,3.574,3.574,0,0,1-2.153-.835l-2.153,1.89,5.713,27.07h8.437a2.739,2.739,0,0,0,1.978-.813,2.682,2.682,0,0,0,.835-2Z" transform="translate(0 0)" fill="#ffbd5a"/>
      </g>
    </g>
  </g>
</svg>
