<?xml version="1.0" encoding="UTF-8"?><svg id="Layer_2" xmlns="http://www.w3.org/2000/svg" viewBox="0 0 110.75 110.75"><defs><style>.cls-1{fill:#fff;}.cls-2{fill:#46ac3f;}</style></defs><g id="Layer_1-2"><rect class="cls-1" width="110.75" height="110.75"/><path id="Path_12562" class="cls-2" d="M20.95,45.17c.28-1.45,.46-2.91,.85-4.34,1.3-4.85,3.97-9.23,7.7-12.6,3.49-3.26,7.83-5.46,12.52-6.37,14.26-2.88,28.16,6.34,31.05,20.6,.55,2.7,.67,5.47,.35,8.2-.48,4.13-1.93,8.08-4.23,11.54-.26,.4-.26,.61,.23,.77,.73,.29,1.38,.75,1.9,1.34,5.61,5.6,11.21,11.2,16.81,16.81,1.98,1.98,2.21,4.52,.64,6.53-1.57,1.97-4.42,2.32-6.43,.8-.33-.27-.64-.55-.94-.86-5.56-5.55-11.11-11.11-16.67-16.66-.59-.51-1.07-1.15-1.39-1.87-.17-.47-.42-.26-.66-.08-1.14,.83-2.34,1.57-3.6,2.21-13.04,6.53-28.9,1.25-35.43-11.78-1.03-2.06-1.79-4.25-2.25-6.5-.19-.87-.3-1.76-.45-2.64v-5.1Zm2.83,2.52c0,12.96,10.5,23.46,23.46,23.46,12.96,0,23.46-10.5,23.46-23.46,0-12.95-10.49-23.45-23.43-23.46-12.92-.05-23.44,10.39-23.49,23.31,0,.05,0,.1,0,.15Zm63.09,37.05c0-.58-.25-1.13-.71-1.49-5.68-5.68-11.36-11.36-17.03-17.03-.17-.18-.36-.33-.57-.47-.55-.37-1.27-.39-1.85-.05-.57,.3-.91,.9-.88,1.55,.06,.7,.41,1.34,.98,1.76,5.5,5.5,11.01,11.01,16.51,16.51,.26,.28,.55,.52,.86,.74,.54,.36,1.23,.38,1.79,.05,.59-.29,.95-.91,.89-1.57h0Z"/></g></svg>