<svg xmlns="http://www.w3.org/2000/svg" width="91" height="91" viewBox="0 0 91 91"><g transform="translate(-286 -6340)"><g transform="translate(298 6364)"><path d="M422.969,203.767a2.451,2.451,0,0,1-.673,1.684q-8.176,9.993-16.346,19.991-2.5,3.053-5,6.1a2.484,2.484,0,0,1-1.982,1.009,2.548,2.548,0,0,1-2.037-1.051q-4.715-5.661-9.435-11.317c-.778-.934-1.571-1.856-2.323-2.811a2.448,2.448,0,0,1,2.246-3.967,2.571,2.571,0,0,1,1.728,1.055q4.565,5.5,9.139,10.983c.67.8.678.806,1.358-.024q9.421-11.523,18.837-23.049a2.493,2.493,0,0,1,2.892-.95A2.369,2.369,0,0,1,422.969,203.767Z" transform="translate(-356.023 -189.57)" fill="#ff7509"/><path d="M344.149,181.782q-8.222,0-16.444,0a2.416,2.416,0,0,1-2.579-2.236,2.362,2.362,0,0,1,2.473-2.625q16.631-.011,33.262,0a2.43,2.43,0,1,1-.043,4.859Q352.483,181.791,344.149,181.782Z" transform="translate(-325.116 -176.914)" fill="#ff7509"/><path d="M344.148,206.577q-8.222,0-16.445,0a2.411,2.411,0,0,1-2.575-2.157,2.369,2.369,0,0,1,2.464-2.7q16.631-.012,33.262,0a2.43,2.43,0,1,1-.038,4.859Q352.482,206.586,344.148,206.577Z" transform="translate(-325.114 -189.8)" fill="#ff7509"/><path d="M335.809,231.37c-2.778,0-5.555.013-8.332-.006a2.434,2.434,0,0,1-.622-4.769,3.431,3.431,0,0,1,.883-.087q8.146-.007,16.293,0a2.441,2.441,0,1,1-.037,4.865q-4.092.007-8.184,0Z" transform="translate(-325.111 -202.686)" fill="#ff7509"/></g><rect width="91" height="91" transform="translate(286 6340)" fill="none"/></g></svg>