<svg xmlns="http://www.w3.org/2000/svg" width="109.767" height="109.768" viewBox="0 0 109.767 109.768">
  <g id="Group_28052" data-name="Group 28052" transform="translate(-575.125 -4764.134)">
    <path id="Rectangle_267" data-name="Rectangle 267" d="M605,357.551h0a61.394,61.394,0,0,1,61.4,61.389v0h0a48.369,48.369,0,0,1-48.365,48.374h-61.4v-61.4A48.37,48.37,0,0,1,605,357.551Z" transform="translate(18.498 4406.583)" fill="#ecf1f9"/>
    <path id="Path_6263" data-name="Path 6263" d="M48.762,12.016A8.449,8.449,0,0,0,32.255,13.7h-5.2a8.451,8.451,0,0,0-16.51-1.68L4.108,33.485A2.635,2.635,0,0,0,4,34.222v2.566a12.819,12.819,0,0,0,24.571,5.131h2.171a12.819,12.819,0,0,0,24.571-5.134V34.222a2.635,2.635,0,0,0-.108-.736L48.762,12.016ZM16.831,44.484a7.71,7.71,0,0,1-7.7-7.7c0-.195.044-.377.056-.57a7.679,7.679,0,0,1,15.337.57v.023A7.707,7.707,0,0,1,16.831,44.484Zm25.651,0a7.707,7.707,0,0,1-7.694-7.674v-.023a7.7,7.7,0,1,1,7.694,7.7Z" transform="translate(600.351 4791.94)" fill="#1550b2"/>
  </g>
</svg>
