<svg xmlns="http://www.w3.org/2000/svg" width="72.937" height="60.264" viewBox="0 0 72.937 60.264">
  <g id="Group_27597" data-name="Group 27597" transform="translate(-52.91 -164.845)">
    <path id="Path_6349" data-name="Path 6349" d="M111.4,194.989q0,12.715,0,25.431a4.676,4.676,0,0,1-3.936,4.648,4.733,4.733,0,0,1-5.33-3.613,1.072,1.072,0,0,1-.063-.425c.222-1.112-.441-1.77-1.159-2.457A51.1,51.1,0,0,0,86.5,209.211a55.634,55.634,0,0,0-11.736-3.976c-1.326-.277-1.323-.289-1.651,1.025q-1.322,5.322-2.648,10.643c-.364,1.457-.834,1.824-2.317,1.825-1.71,0-3.419,0-5.129,0-1.391,0-2.01-.631-2.011-2.04,0-3.66-.015-7.322.013-10.982,0-.656-.171-.915-.851-.862s-1.4.014-2.095.011a5.16,5.16,0,0,1-5.157-5.134q-.015-4.768,0-9.537a5.15,5.15,0,0,1,5.065-5.077c3.443-.013,6.891-.109,10.33.022A32.873,32.873,0,0,0,80.623,183.1,61.25,61.25,0,0,0,97.751,174.1a37.615,37.615,0,0,0,3.838-3.4,1.368,1.368,0,0,0,.464-1.15,4.59,4.59,0,0,1,3.914-4.655,4.7,4.7,0,0,1,5.329,3.511,4.949,4.949,0,0,1,.1,1.291Q111.4,182.345,111.4,194.989Zm-9.4,19.6V175.506c-.1,0-.156-.019-.184,0-.264.209-.518.43-.782.639a62.082,62.082,0,0,1-26.4,12.27c-.664.135-.832.386-.826,1.035.033,3.443.015,6.888.015,10.332,0,1.546.007,1.518,1.526,1.861a63.032,63.032,0,0,1,25.515,12.031C101.214,213.952,101.56,214.233,102,214.586Zm3.618-19.608q0,12.316,0,24.63a3.227,3.227,0,0,0,.093,1.073,1.03,1.03,0,0,0,1.013.781.985.985,0,0,0,1-.785,3.109,3.109,0,0,0,.1-.781q.007-24.919,0-49.839a2.325,2.325,0,0,0-.121-.852,1.04,1.04,0,0,0-1.975,0,2.84,2.84,0,0,0-.117,1.069Q105.617,182.627,105.618,194.979Zm-35.362.046c0-1.876-.018-3.752.011-5.626.009-.574-.189-.751-.75-.739-1.418.031-2.837.023-4.255,0-.474-.006-.7.117-.694.644q.024,5.662,0,11.324c0,.507.181.672.676.665,1.442-.022,2.885-.028,4.327,0,.549.011.7-.2.695-.72C70.243,198.726,70.256,196.875,70.256,195.024Zm-9.249-.046q0-2.818,0-5.634c0-.359,0-.687-.507-.676-.746.017-1.5-.032-2.238.022a1.678,1.678,0,0,0-1.76,1.81q-.06,4.478,0,8.956a1.7,1.7,0,0,0,1.832,1.819c.648.039,1.3-.022,1.949.022.591.04.74-.205.733-.757C60.991,198.686,61.007,196.832,61.007,194.979Zm3.568,15.033c0,1.491.013,2.982-.007,4.471-.007.483.132.72.653.684a11.673,11.673,0,0,1,1.369,0c.414.02.592-.162.689-.556q1.125-4.582,2.292-9.153c.142-.555-.1-.609-.534-.6-1.25.012-2.5.032-3.75-.008-.6-.02-.731.231-.721.769C64.592,207.078,64.575,208.545,64.575,210.011Z" transform="translate(0 0)"/>
    <path id="Path_6350" data-name="Path 6350" d="M127.861,179.76a1.788,1.788,0,0,1,.907,3.357c-.775.433-1.59.794-2.39,1.183-.908.439-1.813.886-2.73,1.309a1.854,1.854,0,0,1-2.588-.768,1.816,1.816,0,0,1,1-2.507c1.593-.79,3.2-1.549,4.8-2.318A1.979,1.979,0,0,1,127.861,179.76Z" transform="translate(-7.257 -1.592)"/>
    <path id="Path_6351" data-name="Path 6351" d="M127.823,216.671a1.744,1.744,0,0,1-.874-.214c-1.651-.789-3.3-1.571-4.943-2.385a1.815,1.815,0,0,1,.414-3.473,1.686,1.686,0,0,1,1.054.156c1.762.833,3.527,1.662,5.266,2.546a1.723,1.723,0,0,1,.892,2.077A1.745,1.745,0,0,1,127.823,216.671Z" transform="translate(-7.258 -4.883)"/>
    <path id="Path_6352" data-name="Path 6352" d="M128.7,200.149c-.937,0-1.874.012-2.81,0a1.779,1.779,0,1,1,0-3.559q2.882-.019,5.765,0a1.779,1.779,0,1,1,0,3.558C130.675,200.161,129.69,200.149,128.7,200.149Z" transform="translate(-7.603 -3.389)"/>
  </g>
</svg>
