<svg xmlns="http://www.w3.org/2000/svg" width="109.767" height="109.768" viewBox="0 0 109.767 109.768">
  <g id="Group_28058" data-name="Group 28058" transform="translate(-1295.507 -4942.617)">
    <path id="Rectangle_267" data-name="Rectangle 267" d="M605,357.551h0a61.394,61.394,0,0,1,61.4,61.389v0h0a48.369,48.369,0,0,1-48.365,48.374h-61.4v-61.4A48.37,48.37,0,0,1,605,357.551Z" transform="translate(738.88 4585.066)" fill="#ecf1f9"/>
    <g id="hive-blockchain" transform="translate(1323.546 4975.376)">
      <path id="Path_6274" data-name="Path 6274" d="M13.592,3.274a.23.23,0,0,0-.2.112L.031,26.343a.228.228,0,0,0,0,.233L13.54,49.527a.235.235,0,0,0,.4,0L27.3,26.572a.228.228,0,0,0,0-.233L13.793,3.386a.23.23,0,0,0-.2-.112Zm6.4,0a.23.23,0,0,0-.2.344L31.4,23.677a.235.235,0,0,0,.2.119h6.973a.234.234,0,0,0,.2-.351L27.17,3.388a.233.233,0,0,0-.2-.114H20Zm13.178,0a.228.228,0,0,0-.2.344L46.206,26.455,32.977,49.292a.228.228,0,0,0,.2.344H40.16a.224.224,0,0,0,.2-.112l13.3-22.955a.224.224,0,0,0,0-.228L40.356,3.388a.224.224,0,0,0-.2-.114ZM31.406,29.446a.224.224,0,0,0-.2.116L19.8,49.292a.229.229,0,0,0,.2.344h6.972a.233.233,0,0,0,.2-.112L38.58,29.795a.23.23,0,0,0-.2-.347H31.4Z" transform="translate(0.001 -3.274)" fill="#1550b2"/>
    </g>
  </g>
</svg>
