<svg xmlns="http://www.w3.org/2000/svg" width="118" height="118" viewBox="0 0 118 118"><g transform="translate(-344 -2797)"><g transform="translate(351.018 2804)"><path d="M270.021,453.06c-5.858,0-11.717.013-17.575-.013a2.528,2.528,0,0,0-1.991.794,9.818,9.818,0,0,1-5.6,2.409,20.428,20.428,0,0,1-10.878-.906,5.583,5.583,0,0,1-2.339-1.477,2.435,2.435,0,0,0-2.094-.818q-17.524.027-35.047.008a5.452,5.452,0,0,1-5.743-5.067,13,13,0,0,1,.549-3.663q3.592-18.5,7.216-37c.45-2.294,1.788-3.341,4.13-3.372.1,0,.207,0,.31,0a7.446,7.446,0,0,0,2.153-.093c.806-.275.475-1.258.756-1.893a3.562,3.562,0,0,1,2.891-2.366c1.037-.123,1.229-.456,1-1.507a13.7,13.7,0,0,1,1.47-9.885,3.322,3.322,0,0,0,.415-1.938,7.1,7.1,0,0,1,3.46-6.72,2.2,2.2,0,0,0,1.117-1.568,8.8,8.8,0,0,1,10.262-7.083,1.469,1.469,0,0,0,1.5-.538,12.13,12.13,0,0,1,14.735-2.569,1.408,1.408,0,0,0,1.67-.106,7.122,7.122,0,0,1,9.547,1.1,2.5,2.5,0,0,0,1.864.866,15.119,15.119,0,0,1,13.827,11.313,1.643,1.643,0,0,0,1.165,1.257,7.217,7.217,0,0,1,4.589,8.555,2.274,2.274,0,0,0,.173,1.676,10.192,10.192,0,0,1,1.073,5.711c-.073.817.047,1.3,1.041,1.5a3.474,3.474,0,0,1,2.793,3.209c.124.919.551,1.143,1.366,1.081.582-.044,1.171-.017,1.757,0a3.746,3.746,0,0,1,4,3.281q2.2,11.093,4.338,22.2c1.117,5.744,2.278,11.48,3.31,17.24a5.308,5.308,0,0,1-5.423,6.373C281.876,453.079,275.949,453.059,270.021,453.06Zm-27.063-23.07q0,5.014,0,10.027c0,1.31,0,1.31,1.219.933a60.177,60.177,0,0,1,35.41-.069c1.343.411,1.433.307,1.2-1.064q-1.608-9.623-3.2-19.249-1.36-8.2-2.712-16.4c-.1-.629-.365-.969-1.061-1-.848-.034-1.432.436-1.8,1.737a14.987,14.987,0,0,1-5.1,7.949.847.847,0,0,0-.236,1.232,22.115,22.115,0,0,1,1.09,2.676,5.519,5.519,0,0,1-2.266,6.5,5.292,5.292,0,0,1-6.673-.661,14.906,14.906,0,0,0-5.951-3.549c-2.246-.823-4.59-1.845-5.657-4.079a4.3,4.3,0,0,0-3.892-2.64,1.652,1.652,0,0,0-1.323.312,11.067,11.067,0,0,1-16.4-2.743.976.976,0,0,0-1.17-.52,13.3,13.3,0,0,1-5.638-.089,14.016,14.016,0,0,1-8.595-5.674c-.68-.961-1.462-.456-2.23-.4-.727.052-.677.67-.767,1.157-.15.812-.278,1.628-.413,2.443q-2.74,16.5-5.482,33c-.228,1.369-.118,1.476,1.207,1.061a58.489,58.489,0,0,1,14.918-2.576,60.568,60.568,0,0,1,20.591,2.665c1.112.341,1.119.337,1.119-.849q0-9.924,0-19.848a3.55,3.55,0,0,1,.221-1.623,1.856,1.856,0,0,1,3.365,0,3.307,3.307,0,0,1,.224,1.519Q242.956,425.08,242.958,429.99Zm23.193-21.651a2.342,2.342,0,0,0-.423-.024,10.8,10.8,0,0,1-8.876-2.042,1.315,1.315,0,0,0-1.257-.113,6.181,6.181,0,0,1-6.641-2.685c-.758-1.191-.661-2.3.256-2.937.932-.647,1.974-.379,2.821.766a2.616,2.616,0,0,0,1.745,1.175c2.057.3,3.318-1.36,2.678-3.536a1.891,1.891,0,0,1,1.032-2.563,1.912,1.912,0,0,1,2.462,1.28,5.832,5.832,0,0,1-.151,5.09c-.257.517-.3.9.293,1.178a7.267,7.267,0,0,0,7.561-.479,7.025,7.025,0,0,0,3.233-6.728c-.108-1.5-.2-1.491-1.561-.972a1.863,1.863,0,0,1-2.393-.82,1.809,1.809,0,0,1,.654-2.441c.224-.16.476-.279.7-.44a3.639,3.639,0,0,0,1.415-3.841,3.568,3.568,0,0,0-2.887-2.622,4.139,4.139,0,0,0-2.844.667,1.841,1.841,0,0,1-2.556-.525,1.807,1.807,0,0,1,.509-2.552,5.158,5.158,0,0,1,1.243-.729.889.889,0,0,0,.594-1.352,11.277,11.277,0,0,0-9.062-7.552c-.547-.1-.711.109-.883.567-.425,1.131-1.1,1.562-2.086,1.427-.934-.128-1.482-.8-1.622-1.978a3.578,3.578,0,0,0-7.15.026c-.168,1.365-.985,2.1-2.163,1.955a1.994,1.994,0,0,1-1.589-2.477c.264-1.914.253-1.938-1.639-2.54a7.59,7.59,0,0,0-2.023-.385c-4.085-.152-7.258,2.078-8.69,6.113a1.939,1.939,0,0,1-2.438,1.484,1.833,1.833,0,0,1-1.171-2.406c.178-.692-.015-.909-.669-.82a5.362,5.362,0,0,0-4.311,2.989c-.339.663-.283,1.046.553,1.241a6.927,6.927,0,0,1,3.52,2.057c1.015,1.082,1.109,2.3.239,3.1s-1.873.628-2.955-.5c-.048-.049-.092-.1-.141-.151a3.565,3.565,0,0,0-6.082,2.594,3.77,3.77,0,0,0,1.749,3.107,1.829,1.829,0,0,1,.472,2.642,1.917,1.917,0,0,1-2.675.358,2.827,2.827,0,0,1-.332-.246c-.463-.4-.755-.361-.933.282a11.4,11.4,0,0,0-.529,3.559A10.731,10.731,0,0,0,223,405.8c.813-.076.945-.43.859-1.145-.082-.68-.6-.668-1.035-.811a6.171,6.171,0,0,1-4.409-5.542c-.066-1.315.582-2.2,1.687-2.3,1.064-.1,1.781.573,2,1.893a2.814,2.814,0,0,0,1.24,2.054c.617.392,1.135.5,1.4-.411a5.23,5.23,0,0,1,.541-1.113,1.883,1.883,0,1,1,3.344,1.7c-.128.282-.291.55-.4.838a7.232,7.232,0,0,0,1.328,7.9,7.339,7.339,0,0,0,10.773.238c.64-.628,1.3-1.22,2.259-.875a14.692,14.692,0,0,0,9.134.325,1.787,1.787,0,0,1,2.144,1.189,1.825,1.825,0,0,1-1.025,2.32,10.9,10.9,0,0,1-1.483.434c-.345.1-.874-.035-.946.43-.06.386.368.637.654.872a14.543,14.543,0,0,0,4.7,2.318,12.031,12.031,0,0,1,4.046,2.232c.495.426.942.908,1.409,1.366a1.727,1.727,0,0,0,2.259.325,1.647,1.647,0,0,0,.725-2.149c-.244-.644-.514-1.277-.759-1.921-.237-.622-.582-.846-1.271-.568a10.7,10.7,0,0,1-2.088.57,1.92,1.92,0,0,1-2.268-1.475,1.845,1.845,0,0,1,1.356-2.135c.49-.16,1-.241,1.5-.391A10.824,10.824,0,0,0,266.151,408.339Zm4.03,40.914q8.632,0,17.263,0c1.786,0,2.359-.725,2.02-2.466q-3.653-18.75-7.3-37.5c-.309-1.592-.3-1.56-1.918-1.529-.779.015-.928.331-.811,1.03q2.123,12.625,4.216,25.255c.389,2.342.826,4.68,1.1,7.036a3.482,3.482,0,0,1-2.731,3.946,4.518,4.518,0,0,1-2.628-.262,58.948,58.948,0,0,0-27.36-1.839c-.716.118-.906.4-.835,1.092.135,1.3.211,2.607.272,3.914.045.952.393,1.362,1.45,1.353C258.672,449.227,264.426,449.254,270.181,449.253Zm-58.287,0c5.789,0,11.578-.022,17.367.021,1,.007,1.345-.384,1.385-1.306.06-1.375.15-2.75.278-4.12.054-.583-.173-.807-.708-.9a58.717,58.717,0,0,0-8.212-.824,56.117,56.117,0,0,0-19.538,2.743,3.808,3.808,0,0,1-5.083-4.486c1.042-5.966,2.008-11.946,3-17.92q1.147-6.874,2.289-13.749c.054-.328.162-.69-.268-.893a1.675,1.675,0,0,0-2.429,1.225q-3.651,18.8-7.3,37.607c-.38,1.955.149,2.6,2.16,2.6Q203.366,449.259,211.894,449.254Zm29.185,3.509a13.353,13.353,0,0,0,5.923-1.04c.49-.218,1.015-.413.935-1.17-.2-1.916-.371-3.837-.493-5.759-.044-.7-.312-.8-.911-.625a36.475,36.475,0,0,0-4.385,1.532,2.574,2.574,0,0,1-2.186,0,39.344,39.344,0,0,0-4.386-1.533c-.6-.181-.871-.077-.912.622-.1,1.786-.206,3.578-.457,5.346a1.332,1.332,0,0,0,.981,1.64A14.1,14.1,0,0,0,241.08,452.762Z" transform="translate(-188.73 -352.255)"/><path d="M312.076,321.055a1.862,1.862,0,0,1,1.771,1.2c.685,1.615,1.369,3.231,2,4.867a1.821,1.821,0,0,1-1,2.4,1.746,1.746,0,0,1-2.361-.862c-.781-1.721-1.523-3.467-2.147-5.249A1.791,1.791,0,0,1,312.076,321.055Z" transform="translate(-276.669 -319.478)"/><path d="M232.394,411.393a1.75,1.75,0,0,1-2.284,1.783c-1.809-.633-3.583-1.382-5.324-2.187a1.723,1.723,0,0,1-.778-2.378,1.807,1.807,0,0,1,2.326-.953c1.664.639,3.307,1.333,4.947,2.034A1.753,1.753,0,0,1,232.394,411.393Z" transform="translate(-214.119 -382.061)"/><path d="M430.971,323.238a8.88,8.88,0,0,1-.278.915c-.553,1.374-1.114,2.744-1.692,4.108-.529,1.248-1.485,1.753-2.5,1.356a1.908,1.908,0,0,1-.982-2.738c.616-1.534,1.235-3.068,1.91-4.576a1.849,1.849,0,0,1,3.548.935Z" transform="translate(-359.94 -319.538)"/><path d="M503.353,413.235c-1.119-.122-1.773-.53-1.982-1.4a1.688,1.688,0,0,1,.872-2.1c1.748-.792,3.524-1.531,5.323-2.2a1.664,1.664,0,0,1,2.078.914,1.533,1.533,0,0,1-.327,2.144C507.44,411.886,505.218,412.436,503.353,413.235Z" transform="translate(-414.944 -381.987)"/><path d="M478.032,359.4a1.754,1.754,0,0,1,1.661,2.573,6.844,6.844,0,0,1-2.657,2.679,1.76,1.76,0,0,1-2.613-1.7C474.461,361.709,476.8,359.4,478.032,359.4Z" transform="translate(-395.493 -347.226)"/><path d="M267.386,362.694a1.774,1.774,0,0,1-.878,1.751,1.667,1.667,0,0,1-1.939-.043,9.864,9.864,0,0,1-2.317-2.319,1.676,1.676,0,0,1,.1-2.188,1.658,1.658,0,0,1,2.048-.523,6.939,6.939,0,0,1,2.885,2.842A1.26,1.26,0,0,1,267.386,362.694Z" transform="translate(-241.681 -347.089)"/><path d="M371.25,318.038a8.229,8.229,0,0,1,0-.825,1.885,1.885,0,1,1,3.771.045,10.756,10.756,0,0,1,0,1.65,1.914,1.914,0,0,1-1.908,1.909,1.935,1.935,0,0,1-1.869-1.954c-.021-.274,0-.55,0-.825Z" transform="translate(-320.816 -315.346)"/><path d="M356.857,459.542a2.014,2.014,0,0,1-2.228-1.81,1.887,1.887,0,0,1,1.944-1.971,5.273,5.273,0,0,0,3.134-1.173c.784-.668.76-.835-.189-1.171a10.8,10.8,0,0,1-4.093-2.537c-.988-.987-1.1-2.107-.336-2.923q1.231-1.306,2.9.187c4.248,3.82,10.111,2.174,11.781-3.308.422-1.385,1.256-1.98,2.386-1.7,1.105.272,1.6,1.27,1.242,2.637a10.432,10.432,0,0,1-7.317,7.731,2.966,2.966,0,0,0-1.893,1.513A8.734,8.734,0,0,1,356.857,459.542Z" transform="translate(-308.766 -407.782)"/><path d="M335.612,417.641a1.929,1.929,0,0,1,2.32,1.643c.122,1.109-.62,1.891-1.945,2.047a4.469,4.469,0,0,0-4.344,4.4,1.988,1.988,0,0,1-1.986,1.963,2.026,2.026,0,0,1-1.8-2.339A8.209,8.209,0,0,1,335.612,417.641Z" transform="translate(-289.417 -389.374)"/></g><rect width="118" height="118" transform="translate(344 2797)" fill="none"/></g></svg>