<svg xmlns="http://www.w3.org/2000/svg" width="118" height="118" viewBox="0 0 118 118"><g transform="translate(23 8)"><path d="M395.268,286.749c1.96.354,3.937.614,5.863,1.149a35.629,35.629,0,0,1,25.909,30,35.273,35.273,0,0,1-7.185,26.177,2.314,2.314,0,0,1-1.208.993,1.49,1.49,0,0,1-1.547-.452,1.346,1.346,0,0,1-.346-1.556,5.812,5.812,0,0,1,.673-1.1,31.912,31.912,0,0,0,6.521-22.682,32.4,32.4,0,0,0-27.888-29.107,32.011,32.011,0,0,0-24.125,6.434,2.651,2.651,0,0,1-1.3.7,1.52,1.52,0,0,1-1.622-.916,1.471,1.471,0,0,1,.435-1.889c.9-.732,1.845-1.424,2.816-2.064a34.463,34.463,0,0,1,15.434-5.57,2.1,2.1,0,0,0,.379-.116Z" transform="translate(-356.059 -286.749)"/><path d="M356.568,390.656c4.729,0,9.458-.034,14.186.026a1.927,1.927,0,0,0,2.125-1.3,39.758,39.758,0,0,1,4.213-7.239,1.961,1.961,0,0,1,1.321-.977,1.47,1.47,0,0,1,1.548.684,1.649,1.649,0,0,1-.113,1.96A49.944,49.944,0,0,0,375.9,390.4a1.232,1.232,0,0,0,.314,1.766,5.019,5.019,0,0,1,.832,6.7,1.255,1.255,0,0,0,0,1.6,5,5,0,0,1-.086,5.9,1.037,1.037,0,0,0,0,1.334c2.2,3.5.5,7.37-3.593,8.21a.815.815,0,0,0-.752.859,6.48,6.48,0,0,1-6.821,6.14q-9.191.01-18.382,0a6.481,6.481,0,0,1-6.879-6.183c-.061-.538-.293-.723-.794-.82a5.21,5.21,0,0,1-3.583-8.157,1.093,1.093,0,0,0,.013-1.418,4.985,4.985,0,0,1-.046-5.893,1.187,1.187,0,0,0,.013-1.515,5.03,5.03,0,0,1,.9-6.845,1.131,1.131,0,0,0,.259-1.612A52.081,52.081,0,0,0,329.368,379a34.209,34.209,0,0,1-8.233-19.557,35.082,35.082,0,0,1,7.551-25.486,4.7,4.7,0,0,1,.595-.671,1.5,1.5,0,0,1,2.09-.062,1.434,1.434,0,0,1,.357,1.972,15.241,15.241,0,0,1-1.125,1.524,32.308,32.308,0,0,0,1.483,40.516,50.073,50.073,0,0,1,8.514,12.732c.3.675.8.688,1.384.688Q349.275,390.65,356.568,390.656Zm.113,10.651q-7.992,0-15.983,0a2.045,2.045,0,0,0-2.238,2.024,2.072,2.072,0,0,0,2.219,2.062c.665.021,1.332,0,2,.013,1.172.029,1.915.641,1.94,1.579a1.741,1.741,0,0,1-1.869,1.675c-.8.041-1.6-.007-2.4.038a2.031,2.031,0,0,0-1.871,1.655,2.063,2.063,0,0,0,1.189,2.209,3.413,3.413,0,0,0,1.566.218H371.9c.266,0,.534.011.8-.013a2.085,2.085,0,0,0,2-2.09,2.032,2.032,0,0,0-2.064-1.993c-.365-.018-.732-.009-1.1-.009H351.158c-1.839,0-2.717-.52-2.738-1.617-.022-1.126.831-1.655,2.674-1.655h20.578a10.177,10.177,0,0,0,1.2-.03,2.035,2.035,0,0,0-.107-4.057c-.331-.024-.666-.012-1-.012Q364.223,401.3,356.681,401.307Zm-.159-3.278c5.29,0,10.581.008,15.871,0a2.057,2.057,0,0,0,2.308-2.054,2.112,2.112,0,0,0-2.342-2.046c-.166,0-.333,0-.5,0q-15.272,0-30.544,0a7.234,7.234,0,0,0-1.1.037,2.041,2.041,0,0,0-.164,4.014,6.792,6.792,0,0,0,1.194.056Q348.886,398.034,356.522,398.029Zm.09,21.74c2.992,0,5.985.012,8.977,0a3.567,3.567,0,0,0,3.695-2.464c.327-1.118.231-1.253-.967-1.254q-6.035-.007-12.07,0-5.736,0-11.471,0c-1.128,0-1.218.134-.911,1.22a3.548,3.548,0,0,0,3.669,2.5C350.56,419.783,353.586,419.769,356.612,419.769Z" transform="translate(-320.968 -320.532)"/><path d="M361.351,361.3a3.491,3.491,0,0,1,1.119-2.686,1.1,1.1,0,0,0,.18-1.508,15.753,15.753,0,0,1-1.391-3.2,1.231,1.231,0,0,0-1.2-.972c-2.565-.3-3.835-1.753-3.86-4.333-.011-1.132-.025-2.265.006-3.4a3.875,3.875,0,0,1,3.688-4.081,1.1,1.1,0,0,0,1.083-.831,20.433,20.433,0,0,1,1.531-3.789,1.032,1.032,0,0,0-.184-1.264,3.773,3.773,0,0,1,.318-5.457c.885-.9,1.774-1.8,2.687-2.68a3.685,3.685,0,0,1,5-.4,1.538,1.538,0,0,0,1.833.141,17.665,17.665,0,0,1,3.4-1.436,1.272,1.272,0,0,0,1.008-1.183,3.677,3.677,0,0,1,3.832-3.319c1.4-.013,2.8-.021,4.195,0a3.644,3.644,0,0,1,3.628,3.2,1.385,1.385,0,0,0,1.108,1.323,18.178,18.178,0,0,1,3.394,1.444,1.423,1.423,0,0,0,1.66-.116,3.74,3.74,0,0,1,5.225.472c.9.884,1.806,1.773,2.681,2.686a3.733,3.733,0,0,1,.254,5.234,1.194,1.194,0,0,0-.168,1.523,16.873,16.873,0,0,1,1.381,3.419,1.264,1.264,0,0,0,1.242,1.043A3.806,3.806,0,0,1,408.576,345c.064,1.328.057,2.664.005,3.994a3.845,3.845,0,0,1-3.741,3.929,1.343,1.343,0,0,0-1.341,1.071,14.762,14.762,0,0,1-1.354,3.107,1.144,1.144,0,0,0,.169,1.511,3.828,3.828,0,0,1-.193,5.691c-.863.879-1.724,1.762-2.618,2.608a3.714,3.714,0,0,1-5.448.057,1.312,1.312,0,0,0-1.767-.259,15.215,15.215,0,0,1-3.137,1.282,1.159,1.159,0,0,0-.9,1.242c-.1,2.54-1.583,3.933-4.151,3.946-1.265.006-2.531.025-3.8-.008a3.689,3.689,0,0,1-3.749-3.733,1.342,1.342,0,0,0-1.1-1.512,14.249,14.249,0,0,1-3.039-1.258,1.177,1.177,0,0,0-1.529.162c-2.065,1.8-3.945,1.726-5.883-.193-.852-.843-1.7-1.685-2.538-2.547A3.6,3.6,0,0,1,361.351,361.3Zm38.854-28.584a1.053,1.053,0,0,0-.418-.762c-.751-.755-1.523-1.491-2.252-2.267a1,1,0,0,0-1.559-.1,3.836,3.836,0,0,1-4.4.3,23.987,23.987,0,0,0-3.677-1.544,3.693,3.693,0,0,1-2.765-3.308.981.981,0,0,0-1.116-1c-1.065.006-2.13.009-3.2,0a1.023,1.023,0,0,0-1.164,1.06,3.669,3.669,0,0,1-2.718,3.236,19.772,19.772,0,0,0-3.409,1.408,4.035,4.035,0,0,1-4.843-.241.913.913,0,0,0-1.393.161c-.715.744-1.436,1.485-2.192,2.186a.994.994,0,0,0-.1,1.611,3.74,3.74,0,0,1,.454,4.3,20.182,20.182,0,0,0-1.343,3.329,4.069,4.069,0,0,1-3.791,3.283c-.642.062-.86.374-.851.974.016,1.065.025,2.131,0,3.2-.021.786.282,1.133,1.1,1.175a3.758,3.758,0,0,1,3.534,2.626,23,23,0,0,0,1.279,3.03c1.09,1.945,1.088,3.726-.484,5.4a.755.755,0,0,0,.041,1.21c.786.768,1.582,1.528,2.324,2.337.585.638,1.03.6,1.657.01a3.713,3.713,0,0,1,4.676-.648,19.558,19.558,0,0,0,2.76,1.152c2.1.612,3.35,1.832,3.337,4.123a.855.855,0,0,0,.991.965c1.065-.014,2.132-.037,3.2.011.91.041,1.23-.353,1.261-1.233a3.662,3.662,0,0,1,2.7-3.649,22.421,22.421,0,0,0,2.961-1.185,4.051,4.051,0,0,1,5.282.633.78.78,0,0,0,1.28-.019c.723-.737,1.429-1.494,2.2-2.18.676-.6.779-1.089.12-1.819a3.683,3.683,0,0,1-.534-4.524,24.379,24.379,0,0,0,1.5-3.479,3.782,3.782,0,0,1,3.638-2.764c.78-.036,1.056-.395,1.041-1.128-.021-1.032-.032-2.065,0-3.1.026-.743-.245-1.056-1.015-1.139a3.885,3.885,0,0,1-3.527-2.935,27.279,27.279,0,0,0-1.473-3.707,3.8,3.8,0,0,1,.439-4.219A1.621,1.621,0,0,0,400.205,332.713Z" transform="translate(-346.784 -311.774)"/><path d="M410.971,389.935a15.768,15.768,0,1,1,15.788-15.76A15.83,15.83,0,0,1,410.971,389.935Zm-.073-28.269a12.51,12.51,0,0,0-11.417,17.621c.445.976.5.993,1.252.2a13.16,13.16,0,0,1,3.7-2.842c.539-.268.639-.529.364-1.078a6.231,6.231,0,0,1-.607-4.073,6.6,6.6,0,0,1,4.835-5.439,6.821,6.821,0,0,1,8.108,9.412c-.282.63-.226.92.4,1.224a12.271,12.271,0,0,1,3.545,2.717c.836.888.9.871,1.365-.2A12.5,12.5,0,0,0,410.9,361.666Zm-.023,25.1a12.939,12.939,0,0,0,8.168-2.986c.651-.536.75-.981.181-1.645a11.525,11.525,0,0,0-4.391-3.2,1.646,1.646,0,0,0-1.343-.017,6.331,6.331,0,0,1-5.042.015,1.744,1.744,0,0,0-1.437.023A11.523,11.523,0,0,0,402.7,382.1c-.62.718-.479,1.172.185,1.716A12.953,12.953,0,0,0,410.874,386.766Zm-3.5-14.218a3.574,3.574,0,1,0,7.147.034,3.573,3.573,0,1,0-7.147-.034Z" transform="translate(-375.333 -339.273)"/></g><rect width="118" height="118" fill="none"/></svg>