<svg xmlns="http://www.w3.org/2000/svg" width="109.767" height="109.768" viewBox="0 0 109.767 109.768">
  <g id="Group_28057" data-name="Group 28057" transform="translate(-789.154 -4942.617)">
    <path id="Rectangle_267" data-name="Rectangle 267" d="M605,357.551h0a61.394,61.394,0,0,1,61.4,61.389v0h0a48.369,48.369,0,0,1-48.365,48.374h-61.4v-61.4A48.37,48.37,0,0,1,605,357.551Z" transform="translate(232.527 4585.066)" fill="#ecf1f9"/>
    <g id="cloudways" transform="translate(805.031 4978.831)">
      <path id="Path_6273" data-name="Path 6273" d="M42.244,11.045A12.048,12.048,0,0,0,35.6,13.228a1.058,1.058,0,0,1-.631.2q-10.9-.009-21.8-.006a1.635,1.635,0,0,0-1.589,1.37,1.844,1.844,0,0,0,.76,2.01,2.086,2.086,0,0,0,1.008.25c6.018.015,12.033.009,18.05.012.118,0,.241.009.407.018l-.241.4a15.892,15.892,0,0,0-1.8,3.964.391.391,0,0,1-.444.344c-6.807-.009-12.955-.009-19.238-.006A1.666,1.666,0,0,0,8.524,23.17,1.866,1.866,0,0,0,9.358,25.2a2.1,2.1,0,0,0,.936.21q7.719.018,15.435.009h.329a.652.652,0,0,1-.2.259A12.946,12.946,0,0,0,22.6,29.811a.5.5,0,0,1-.5.332q-10.277-.011-20.557-.006a1.542,1.542,0,0,0-1.19.68,2.011,2.011,0,0,0-.326,1.47A1.666,1.666,0,0,0,1.7,33.778H21.23a17.61,17.61,0,0,0-.2,4.771H19.444c-.623,0-.955.356-.974,1.063q-.02.721,0,1.443c.016.719.353,1.078.99,1.081.719,0,1.439.009,2.158,0,.2-.006.3.07.38.28A13.6,13.6,0,0,0,24,45.961c.219.28.449.548.733.889h-13.4A1.683,1.683,0,0,0,9.8,48.311a1.845,1.845,0,0,0,.936,2.022,2,2,0,0,0,.816.155c14.6.012,27.668.03,41.11-.055a9.582,9.582,0,0,0,3-.524c6.24-2.095,9.906-9.619,8.04-16.948a12.616,12.616,0,0,0-7.724-9.2.414.414,0,0,1-.289-.378q-.105-.6-.262-1.187c-1.725-6.65-7.1-11.3-13.183-11.156ZM2.027,38.552a.776.776,0,0,0-.614.267,1.014,1.014,0,0,0-.25.692c-.011.481-.005.962-.005,1.443,0,.834.318,1.181,1.059,1.181H13.351a.921.921,0,0,0,.955-.932q.022-.828,0-1.656a.919.919,0,0,0-.875-1H2.027Z" transform="translate(0 -11.042)" fill="#1550b2"/>
    </g>
  </g>
</svg>
