<svg xmlns="http://www.w3.org/2000/svg" width="60.913" height="60.771" viewBox="0 0 60.913 60.771">
  <g id="Group_27596" data-name="Group 27596" transform="translate(-400.2 -36.203)">
    <path id="Path_6344" data-name="Path 6344" d="M447.966,51.425c1.457-2.231,2.9-4.405,4.307-6.61a4.852,4.852,0,0,1,2.975-2.384,4.444,4.444,0,0,1,5.038,6.389,32.914,32.914,0,0,1-1.818,2.888q-4.25,6.515-8.512,13.022a1.339,1.339,0,0,0-.234,1c.585,4.358,1.14,8.72,1.7,13.081.212,1.648.407,3.3.64,4.945a3.888,3.888,0,0,1-3.456,4.487c-4.357.352-8.426,1.789-12.554,3.022-5.752,1.718-11.512,3.407-17.236,5.214a4.313,4.313,0,0,1-5.641-3.035c-3.422-11.574-6.932-23.121-10.409-34.679q-1.047-3.479-2.091-6.959a4.05,4.05,0,0,1,2.89-5.322c2.3-.68,4.6-1.387,6.9-2.062a.77.77,0,0,0,.655-.829,3.923,3.923,0,0,1,3.4-3.544c4.609-.612,9.222-1.2,13.832-1.8,3.984-.523,7.967-1.068,11.951-1.587a11.716,11.716,0,0,1,2.261-.2,3.989,3.989,0,0,1,3.763,3.552c.482,3.65.947,7.3,1.418,10.954A.605.605,0,0,0,447.966,51.425Zm-8.459,12.746-7.505,1c-.852.113-1.41-.2-1.514-.84s.369-1.142,1.2-1.252c2.982-.4,5.965-.789,8.95-1.16a1.1,1.1,0,0,0,.847-.564q2.119-3.259,4.26-6.506a1.574,1.574,0,0,0,.269-1.133c-.14-1.043-.275-2.085-.417-3.128-.446-3.293-.912-6.585-1.333-9.881-.2-1.592-1.009-2.3-2.592-2.107-1.336.16-2.67.344-4.005.522q-5.567.738-11.134,1.479c-3.774.5-7.551.979-11.323,1.5-1.635.225-2.186.909-1.99,2.52.4,3.32.854,6.635,1.292,9.951.485,3.671.983,7.339,1.465,11.01.484,3.691.949,7.385,1.433,11.077s1,7.38,1.472,11.072a1.984,1.984,0,0,0,2.42,2c1.693-.193,3.381-.429,5.07-.652q5.068-.672,10.135-1.351c3.775-.5,7.545-1.038,11.327-1.473,1.6-.185,2.322-1.028,2.089-2.772q-.892-6.661-1.766-13.325c-.089-.67-.2-1.337-.329-2.188-.887,1.356-1.66,2.556-2.453,3.743a14.448,14.448,0,0,1-2.915,3.7c-1.346,1.048-2.588,2.226-3.887,3.334a2.72,2.72,0,0,1-3.273.334,2.685,2.685,0,0,1-1.093-3.156c.148-.527.329-1.044.485-1.569.176-.591.121-.666-.511-.588-1.377.173-2.752.367-4.128.549-2.628.347-5.255.7-7.884,1.035a1.078,1.078,0,0,1-1.242-.911c-.086-.564.247-.993.9-1.162a2.562,2.562,0,0,1,.307-.073q3.441-.461,6.883-.916c1.981-.262,3.962-.528,5.945-.782a.874.874,0,0,0,.871-.743,7.821,7.821,0,0,1,1.337-2.835c.676-.967,1.3-1.969,1.938-2.962A1.757,1.757,0,0,0,439.508,64.171Zm-8.767,26.483-.019-.056c-3.085.409-6.167.852-9.257,1.219a3.955,3.955,0,0,1-4.616-3.48c-.523-3.624-.964-7.259-1.438-10.888q-.654-5.006-1.3-10.014-.671-5.1-1.351-10.2c-.456-3.441-.924-6.881-1.351-10.326-.068-.551-.265-.524-.683-.4-2.194.676-4.4,1.325-6.593,1.991a1.962,1.962,0,0,0-1.441,2.69c.531,1.8,1.079,3.591,1.619,5.386q4.46,14.825,8.919,29.65c.7,2.34,1.4,4.683,2.129,7.014a1.864,1.864,0,0,0,2.377,1.31c.449-.116.89-.257,1.334-.39Zm11.742-18.593c.271-.053.335-.278.445-.446q2.22-3.382,4.429-6.773c2.4-3.669,4.787-7.344,7.2-11,.335-.508.292-.774-.231-1.087-.958-.573-1.891-1.19-2.808-1.826-.384-.266-.576-.241-.837.165-1.573,2.446-3.174,4.874-4.765,7.309-2.306,3.529-4.6,7.062-6.926,10.579-.307.464-.276.691.205.98.992.6,1.947,1.257,2.919,1.888C442.242,71.93,442.371,72,442.483,72.061ZM458.692,46.9a2.313,2.313,0,0,0-1.637-2.418,2.4,2.4,0,0,0-2.706,1c-.235.349-.239.568.154.81.879.541,1.732,1.123,2.594,1.692.936.618,1.235.5,1.526-.6A3.028,3.028,0,0,0,458.692,46.9ZM437.9,71.652c-.191.017-.233.135-.272.26a6.71,6.71,0,0,1-.25.779c-.229.513-.191.859.438,1.025a2.774,2.774,0,0,1,.819.463c1.138.8,1.126.794,2.148-.148.273-.251.242-.38-.043-.563-.849-.544-1.691-1.1-2.537-1.652C438.1,71.749,437.981,71.7,437.9,71.652Zm15.088-23.8c-.382.127-.476.506-.668.786-.18.264.076.369.245.48,1.021.67,2.053,1.321,3.061,2.011.4.272.613.2.841-.2.2-.359.387-.619-.112-.92-1.026-.621-2.016-1.3-3.022-1.955C453.224,47.983,453.112,47.926,452.983,47.851ZM436.14,76.658c-.006.4.147.64.53.678a2.119,2.119,0,0,0,1.21-.9c.03-.222-.7-.88-1.07-.851C436.136,75.641,436.424,76.353,436.14,76.658Z" stroke="#000" stroke-width="0.5"/>
    <path id="Path_6345" data-name="Path 6345" d="M427.445,64.47c-.852.047-1.329-.3-1.4-.882a1.01,1.01,0,0,1,.976-1.167c1.726-.262,3.459-.476,5.19-.707q5.035-.67,10.07-1.336c1.98-.264,3.96-.54,5.942-.794a1.089,1.089,0,0,1,1.27.875,1.036,1.036,0,0,1-.942,1.2c-1.851.277-3.707.516-5.562.763q-4.535.605-9.07,1.2C431.71,63.914,429.5,64.2,427.445,64.47Z" transform="translate(-7.337 -6.633)" stroke="#000" stroke-width="0.5"/>
    <path id="Path_6346" data-name="Path 6346" d="M434.123,51.473c-.924.069-1.438-.288-1.5-.916-.062-.6.382-1.063,1.153-1.167,1.959-.267,3.92-.521,5.881-.776q4.6-.6,9.2-1.2a1.13,1.13,0,0,1,1.387.863,1.08,1.08,0,0,1-1.018,1.213c-1.769.26-3.544.472-5.317.706l-9.259,1.221C434.416,51.449,434.185,51.467,434.123,51.473Z" transform="translate(-9.224 -3.141)" stroke="#000" stroke-width="0.5"/>
    <path id="Path_6347" data-name="Path 6347" d="M432.243,101.962c-.789.039-1.288-.274-1.383-.889-.09-.583.348-1.1,1.1-1.2q3.523-.484,7.052-.919c.8-.1,1.324.3,1.373.951.046.618-.374,1.038-1.156,1.141Q435.738,101.5,432.243,101.962Z" transform="translate(-8.717 -17.923)" stroke="#000" stroke-width="0.5"/>
    <path id="Path_6348" data-name="Path 6348" d="M428.816,77.673a1.128,1.128,0,0,1-1.259-.893.973.973,0,0,1,.813-1.158q2.2-.356,4.423-.6a1.041,1.041,0,0,1,.194,2.069C431.56,77.319,430.123,77.494,428.816,77.673Z" transform="translate(-7.769 -11.063)" stroke="#000" stroke-width="0.5"/>
  </g>
</svg>
