<svg xmlns="http://www.w3.org/2000/svg" width="59.973" height="60.264" viewBox="0 0 59.973 60.264">
  <g id="Group_27595" data-name="Group 27595" transform="translate(-290.026 -35.852)">
    <path id="Path_6342" data-name="Path 6342" d="M290.029,90.892c0-2.312,0-4.624,0-6.936a2.976,2.976,0,0,1,3.106-3.095c1.289-.006,2.577,0,3.867,0a2.894,2.894,0,0,1,2.713,1.564.779.779,0,0,0,.8.439c1.621-.014,3.243-.01,4.864,0a2.982,2.982,0,0,0,.972-.191c2.582-.863,5.165-1.719,7.745-2.588a4.315,4.315,0,0,1,1.405-.228c3.971.007,7.941.019,11.911-.006a9.77,9.77,0,0,1,3.461.684c1.95.717,3.9,1.436,5.855,2.14a9.866,9.866,0,0,0,3.153.166c.223.007.287-.212.379-.372a3.057,3.057,0,0,1,2.888-1.612c1.289.017,2.578-.006,3.867.007a2.953,2.953,0,0,1,2.977,2.972q.014,7.092,0,14.185a2.937,2.937,0,0,1-2.692,2.923,27.609,27.609,0,0,1-4.607,0A2.987,2.987,0,0,1,339.94,98.4c-.033-.178.023-.537-.319-.29A6.481,6.481,0,0,1,335.74,99c-.481.011-.625.127-.609.639a3.076,3.076,0,0,1-3.545,3.414.751.751,0,0,0-.831.427,3.049,3.049,0,0,1-3.206,1.574.673.673,0,0,0-.774.414,3.139,3.139,0,0,1-4.474,1.13c-.323-.2-.449-.17-.682.132a3.127,3.127,0,0,1-4.8.483.912.912,0,0,0-.945-.241,3.1,3.1,0,0,1-3.657-1.557.619.619,0,0,0-.681-.365,3.122,3.122,0,0,1-3.652-2.616.447.447,0,0,0-.4-.38A3.117,3.117,0,0,1,304.9,99.5a.489.489,0,0,0-.474-.456,2.537,2.537,0,0,1-1.343-.617,1.481,1.481,0,0,0-1.194-.411,3.793,3.793,0,0,1-.436,0,3.108,3.108,0,0,0-1.169,0c-.38.157-.207.7-.377,1.053a2.98,2.98,0,0,1-2.522,1.876,27.775,27.775,0,0,1-4.731-.005,2.936,2.936,0,0,1-2.625-2.86C290.019,95.683,290.03,93.288,290.029,90.892Zm31.587-8.716a.392.392,0,0,0-.4-.159q-2.837,0-5.676,0a3.425,3.425,0,0,0-1.1.216q-3.752,1.257-7.506,2.509a3.926,3.926,0,0,1-1.032.218,39.585,39.585,0,0,1-5.045-.024c-.589-.041-.79.14-.784.757.03,3,.007,6,.017,9,0,1.286-.213,1.15,1.224,1.172.387.007.543-.116.591-.521a2.85,2.85,0,0,1,.881-1.684c.662-.663,1.313-1.336,1.987-1.986a3.145,3.145,0,0,1,5.041.716.608.608,0,0,0,.718.38,3.136,3.136,0,0,1,3.609,2.516c.089.371.283.441.578.517a3.109,3.109,0,0,1,2.393,2.375.727.727,0,0,0,.614.636,3.136,3.136,0,0,1,2.41,2.436,1.1,1.1,0,0,0,.265.55c.929.924,1.849,1.859,2.785,2.777a1.037,1.037,0,1,0,1.453-1.468c-1.144-1.18-2.316-2.333-3.478-3.5-.985-.988-.959-.964-.022-1.968.44-.471.7-.445,1.131.007,1.561,1.617,3.164,3.192,4.753,4.782a1.223,1.223,0,0,0,1.145.492.92.92,0,0,0,.768-.652,1.188,1.188,0,0,0-.366-1.243q-2.723-2.708-5.427-5.433c-.971-.973-.951-.953.009-1.966.409-.433.658-.443,1.084-.009,2.258,2.3,4.544,4.578,6.828,6.855.583.581,1.189.627,1.647.164a1.129,1.129,0,0,0-.158-1.61q-4.117-4.137-8.238-8.27c-.3-.3-.5-.305-.826-.025-.958.832-1.924,1.657-2.929,2.431a3.853,3.853,0,0,1-5.486-.726,3.911,3.911,0,0,1,.866-5.539C317.831,85.337,319.711,83.765,321.615,82.177Zm6.807,9.661c1.382,1.383,2.708,2.612,3.913,3.951a3.176,3.176,0,0,0,2.652,1.105,6.454,6.454,0,0,0,4.447-1.233,1.148,1.148,0,0,0,.5-.975c-.017-2.956-.026-5.913.005-8.87.007-.639-.2-.837-.82-.812a8.645,8.645,0,0,1-3.615-.458c-1.951-.769-3.926-1.482-5.908-2.166a6.088,6.088,0,0,0-6.146,1.065c-.437.352-.862.719-1.292,1.079q-2.464,2.061-4.929,4.122a1.741,1.741,0,1,0,2.2,2.681c1.326-1.071,2.623-2.177,3.929-3.273.69-.579.687-.584,1.329.033a5.261,5.261,0,0,0,6.583.772c1.2-.78,1.186-.767,2.085.386.3.382.228.588-.117.858A7.665,7.665,0,0,1,328.423,91.838Zm-36.312-1c0,2.247-.007,4.494,0,6.741,0,.887.383,1.27,1.245,1.279q1.713.019,3.426,0a1.079,1.079,0,0,0,1.221-1.239q.014-6.709,0-13.419c0-.841-.34-1.164-1.182-1.175-1.121-.015-2.242-.011-3.364,0-1.063.006-1.348.3-1.35,1.389Q292.105,87.621,292.111,90.836Zm49.9.036c0,2.226-.006,4.452,0,6.678,0,.924.377,1.3,1.281,1.307q1.682.015,3.364,0c.842-.009,1.245-.381,1.247-1.212q.016-6.741,0-13.481c0-.8-.347-1.127-1.153-1.14-1.1-.017-2.2-.009-3.3-.006-1.168,0-1.438.271-1.439,1.425Q342.008,87.657,342.012,90.871Zm-33.932,9.1a1.7,1.7,0,0,0,.577-.251c1.072-1.042,2.141-2.089,3.169-3.175a1.008,1.008,0,0,0-.1-1.365.92.92,0,0,0-1.3-.071c-1.1,1.037-2.163,2.125-3.217,3.216a.888.888,0,0,0-.088,1.053A1.169,1.169,0,0,0,308.08,99.976Zm3,3a1.753,1.753,0,0,0,.577-.253c1.071-1.041,2.137-2.086,3.163-3.17a1.024,1.024,0,0,0-.088-1.366,1,1,0,0,0-1.358-.043q-1.589,1.533-3.119,3.127a.989.989,0,0,0-.1,1.169C310.326,102.8,310.672,102.894,311.078,102.975Zm-6.019-6a1.516,1.516,0,0,0,.481-.173,12.842,12.842,0,0,0,2.357-2.373,1,1,0,0,0-1.472-1.308c-.766.7-1.488,1.444-2.2,2.2a.9.9,0,0,0-.105,1.051A1.16,1.16,0,0,0,305.059,96.974Zm9.99,8a1.454,1.454,0,0,0,.45-.157,12.785,12.785,0,0,0,2.371-2.373.914.914,0,0,0-.2-1.295.939.939,0,0,0-1.311.006c-.732.677-1.432,1.392-2.115,2.12a.994.994,0,0,0-.092,1.172A1.1,1.1,0,0,0,315.049,104.97Zm4.957-.18a.764.764,0,0,0-.391-.694c-.35-.194-.412.233-.605.373a2.876,2.876,0,0,0-.481.478c-.142.164-.428.277-.361.53.075.284.373.365.631.436C319.437,106.087,320.02,105.589,320.006,104.79Z" transform="translate(0 -12)"/>
    <path id="Path_6343" data-name="Path 6343" d="M325.2,65.946H310.109c-.927,0-.927,0-.928-.914,0-.188.012-.376,0-.562-.028-.4.083-.653.545-.61.364.033.457-.175.456-.5-.007-3.29,0-6.58-.011-9.87a3.673,3.673,0,0,0-.64-1.542c-.785-1.612-.795-1.607.886-2.279,2.971-1.188,5.933-2.4,8.918-3.55a1.1,1.1,0,0,0,.842-1.278,12.49,12.49,0,0,1,.049-2.8,4.8,4.8,0,0,1,3.289-3.9.793.793,0,0,0,.651-.876c0-1.583-.292-1.368,1.429-1.406.491-.011.712.166.636.649-.152.957.151,1.465,1.137,1.879a4.588,4.588,0,0,1,2.855,4.452c.017.791.025,1.583-.005,2.374a.705.705,0,0,0,.545.774q5.042,2,10.072,4.021c.819.328.875.364.428,1.087a7.782,7.782,0,0,0-1.081,4.575c.095,2.475.032,4.956.018,7.433,0,.468.055.684.628.812.761.171.248.937.363,1.426.065.279.037.609-.405.6-.208,0-.416.005-.623.005Zm-.071-14.086H337.72c.187,0,.374,0,.56-.013a.285.285,0,0,0,.274-.216c.045-.159-.076-.225-.185-.282a3.133,3.133,0,0,0-.344-.147q-6.161-2.469-12.321-4.942a1.172,1.172,0,0,0-.951-.019q-6.242,2.519-12.492,5.019c-.175.07-.476.078-.424.361.056.3.351.226.569.238.145.008.291,0,.436,0Zm-2.884-8.269c0,.319.009.569,0,.818-.019.393.162.516.487.321a4.424,4.424,0,0,1,4.947-.007c.334.206.485.038.473-.338a12.843,12.843,0,0,0-.108-2.052,2.9,2.9,0,0,0-5.628-.279A4.583,4.583,0,0,0,322.242,43.591ZM312.26,58.838c0,1.289-.006,2.577,0,3.865s-.157,1.114,1.169,1.169c.628.026.758-.215.752-.791-.026-2.619,0-5.238-.015-7.856-.007-1.45.23-1.247-1.292-1.29-.518-.015-.63.2-.623.662C312.274,56.011,312.26,57.425,312.26,58.838Zm5.9.059c0-1.268.006-2.536,0-3.8-.007-1.291.157-1.112-1.177-1.159-.568-.02-.751.151-.744.735.028,2.639,0,5.278.016,7.918.007,1.441-.232,1.244,1.3,1.28.457.01.623-.139.615-.606C318.148,61.807,318.163,60.351,318.163,58.9Zm2.081-.057c0,1.288-.005,2.577,0,3.865s-.157,1.113,1.169,1.168c.63.026.756-.217.751-.792-.026-2.618,0-5.237-.015-7.856-.007-1.449.23-1.245-1.293-1.289-.519-.015-.629.2-.622.663C320.258,56.013,320.245,57.426,320.244,58.84Zm3.993.066c0,1.268-.006,2.536,0,3.8.007,1.293-.157,1.115,1.175,1.161.563.019.753-.144.747-.732-.029-2.639,0-5.278-.016-7.918-.007-1.444.231-1.24-1.3-1.285-.526-.015-.624.209-.617.668C324.249,56.037,324.237,57.472,324.237,58.906Zm5.9,0c0-1.268.006-2.535,0-3.8-.007-1.3.157-1.119-1.172-1.164-.559-.019-.757.137-.751.729.03,2.639,0,5.278.017,7.918.007,1.447-.231,1.243,1.294,1.287.522.015.628-.2.62-.665C330.126,61.77,330.139,60.336,330.139,58.9Zm2.081.007c0,1.268-.005,2.535,0,3.8.008,1.29-.156,1.111,1.178,1.158.569.02.75-.153.743-.735-.028-2.639,0-5.278-.015-7.918-.007-1.44.232-1.244-1.3-1.279-.457-.01-.622.14-.615.607C332.236,56,332.222,57.455,332.221,58.909Zm5.9.06c0-1.288.005-2.577,0-3.865s.157-1.117-1.167-1.172c-.624-.025-.761.208-.754.788.026,2.619,0,5.238.015,7.856.007,1.454-.229,1.249,1.289,1.293.514.015.633-.19.626-.66C338.11,61.8,338.123,60.383,338.124,58.97Z" transform="translate(-5.18 0)"/>
  </g>
</svg>
