<svg xmlns="http://www.w3.org/2000/svg" width="261.333" height="80" viewBox="0 0 261.333 80">
  <g id="Group_28115" data-name="Group 28115" transform="translate(-1473.667 -9384.166)">
    <rect id="Rectangle" width="261.333" height="80" rx="12" transform="translate(1473.667 9384.166)" fill="#fff"/>
    <g id="Group_27042" data-name="Group 27042" transform="translate(1389.957 9331.433)">
      <path id="Path_15" data-name="Path 15" d="M306.6,92.978c0-3.25.025-6.5-.017-9.751-.01-.747.2-.954.939-.936,2.083.05,4.171-.022,6.254.027,5.531.132,8.607,3.01,9.079,8.546a23.668,23.668,0,0,1-.093,5.184,8.341,8.341,0,0,1-8.621,7.68c-2.226.037-4.453-.022-6.679.022-.721.014-.882-.236-.875-.914C306.618,99.55,306.6,96.264,306.6,92.978Zm3.078.008h-.007c0,2.364.023,4.729-.014,7.094-.011.653.18.859.832.835,1.305-.047,2.613.011,3.918-.021a5,5,0,0,0,5.163-4.265,18.613,18.613,0,0,0,.021-7.158c-.529-2.81-2.3-4.227-5.185-4.354-1.3-.057-2.613,0-3.917-.051-.649-.027-.839.164-.827.824C309.7,88.256,309.679,90.621,309.679,92.986Z" transform="translate(-31.709 -1.288)" fill="#302f2e"/>
      <path id="Path_16" data-name="Path 16" d="M126.76,103.946a9.482,9.482,0,0,1-6.1-1.732,5.63,5.63,0,0,1-2.048-4.576c-.012-.54.195-.781.751-.7a3.073,3.073,0,0,0,.742,0c.987-.111,1.705-.1,1.656,1.309a2.47,2.47,0,0,0,1.69,2.256,7.937,7.937,0,0,0,6.773-.058,2.724,2.724,0,0,0,.543-4.709,9.948,9.948,0,0,0-3.8-1.548c-1.451-.446-2.943-.756-4.35-1.344-2.491-1.042-3.589-2.689-3.49-5.232a5.223,5.223,0,0,1,3.891-5.1,11.183,11.183,0,0,1,7.982.2,5.232,5.232,0,0,1,3.354,4.746c.058.694-.166.9-.808.822a3.75,3.75,0,0,0-.847,0c-.9.1-1.481-.013-1.532-1.181a2.306,2.306,0,0,0-1.669-1.892,7.529,7.529,0,0,0-5.683.032,2.35,2.35,0,0,0-1.627,2.155,2.44,2.44,0,0,0,1.36,2.338,10.2,10.2,0,0,0,2.865,1.073,42.362,42.362,0,0,1,4.762,1.448c2.531.967,3.713,2.593,3.712,5.094,0,2.992-1.185,4.87-3.669,5.857A11.593,11.593,0,0,1,126.76,103.946Z" transform="translate(0 -1.217)" fill="#302f2e"/>
      <path id="Path_17" data-name="Path 17" d="M159.447,93.073c0,3.252-.024,6.5.017,9.757.01.752-.218.932-.942.921-2.117-.032-2.117,0-2.116-2.081,0-2.228-.019-4.455.012-6.682.009-.631-.164-.864-.826-.856-2.723.031-5.446.037-8.168,0-.717-.012-.794.289-.789.88.024,2.58-.022,5.162.03,7.742.016.806-.222,1.015-1.011,1-2.1-.033-2.1,0-2.1-2.118,0-6.116.016-12.232-.019-18.348,0-.791.19-1.018.992-1,2.117.042,2.117,0,2.117,2.082,0,2.05.025,4.1-.014,6.151-.012.645.163.856.826.848,2.688-.034,5.375-.045,8.062,0,.8.015.912-.3.9-.989-.037-2.4.014-4.808-.032-7.212-.013-.7.191-.881.876-.88,2.181,0,2.181-.027,2.181,2.194Q159.446,88.777,159.447,93.073Z" transform="translate(-4.204 -1.287)" fill="#32312f"/>
      <path id="Path_18" data-name="Path 18" d="M297.284,92.925a17.494,17.494,0,0,1-.329,4.208c-1,4.472-4.159,6.876-9,6.811a8.128,8.128,0,0,1-8.164-7.041,19.546,19.546,0,0,1,.317-9.125c1.232-3.938,4.486-6.054,8.879-5.859a8.249,8.249,0,0,1,7.917,6.591A17.521,17.521,0,0,1,297.284,92.925Zm-14.724.045a18.035,18.035,0,0,0,.353,4.157,5.7,5.7,0,0,0,10.984-.208,21.6,21.6,0,0,0,.013-7.9c-.5-2.762-2.489-4.275-5.344-4.329a5.3,5.3,0,0,0-5.657,4.122A18.073,18.073,0,0,0,282.56,92.97Z" transform="translate(-27.125 -1.223)" fill="#302f2e"/>
      <path id="Path_19" data-name="Path 19" d="M169.659,93.027c0-3.285.022-6.571-.019-9.857-.008-.711.2-.882.886-.877q6.147.045,12.3,0c.769-.007.844.238.752.911-.255,1.877-.224,1.881-2.1,1.88-2.65,0-5.3.017-7.951-.017-.648-.007-.85.18-.83.836.048,1.482.057,2.969,0,4.45-.032.778.175,1.036.99,1.018,2.508-.054,5.018.006,7.526-.034.771-.012,1.127.1,1.088,1.014-.076,1.79-.015,1.793-1.775,1.793-2.261,0-4.523.029-6.784-.014-.754-.015-1.075.149-1.043.98.062,1.623.055,3.251,0,4.874-.026.77.264.937.974.929,2.933-.035,5.867.016,8.8-.035.807-.014,1.072.223,1.174,1.023.233,1.841.283,1.834-1.521,1.834-3.746,0-7.493-.041-11.237.027-1.055.019-1.271-.307-1.249-1.3C169.7,99.317,169.659,96.172,169.659,93.027Z" transform="translate(-8.606 -1.288)" fill="#32312f"/>
      <path id="Path_20" data-name="Path 20" d="M331.988,93.031c0-3.286.021-6.572-.017-9.858-.008-.706.209-.884.889-.88q6.2.042,12.4,0c.617,0,.758.144.672.776-.274,2.006-.243,2.01-2.2,2.01-2.615,0-5.231.018-7.846-.012-.623-.007-.872.129-.85.81.051,1.553.05,3.11,0,4.663-.02.668.207.831.845.824,2.58-.033,5.16.014,7.739-.032.766-.014,1.042.151,1.017.98-.056,1.828-.006,1.831-1.841,1.83-2.262,0-4.525.023-6.786-.015-.7-.012-1.005.124-.976.912.06,1.658.051,3.322,0,4.981-.02.691.179.9.879.892,2.933-.037,5.867.017,8.8-.037.822-.015,1.157.17,1.277,1.037.254,1.827.312,1.82-1.541,1.82-3.817,0-7.634-.032-11.45.022-.884.012-1.045-.276-1.035-1.08C332.014,99.462,331.989,96.246,331.988,93.031Z" transform="translate(-35.991 -1.288)" fill="#32312f"/>
      <path id="Path_21" data-name="Path 21" d="M257.775,92.922a11.875,11.875,0,0,0,.767,5.4,5.4,5.4,0,0,0,5.97,2.806,4.594,4.594,0,0,0,4.211-4.341c.1-1.139.519-1.455,1.544-1.3a3.176,3.176,0,0,0,.847,0c.584-.069.693.18.677.731a7.717,7.717,0,0,1-7.6,7.714c-5.665.222-9.2-2.99-9.411-8.664A26.513,26.513,0,0,1,255,88.714c.734-3.45,2.7-5.85,6.245-6.56,3.453-.692,6.649-.152,8.97,2.843a8.457,8.457,0,0,1,1.577,4.866c.006.106.056.266.006.308-.759.649-1.662.145-2.488.293-.372.067-.623-.057-.58-.5a1.96,1.96,0,0,0-.023-.423c-.383-3.132-2.082-4.782-4.992-4.847a5.269,5.269,0,0,0-5.77,4.74A20.179,20.179,0,0,0,257.775,92.922Z" transform="translate(-22.954 -1.219)" fill="#302f2e"/>
      <g id="Group_33" data-name="Group 33" transform="translate(182.396 74.657)">
        <path id="Path_14" data-name="Path 14" d="M238.007,85.425a10.239,10.239,0,0,1-3.137,7.518q-8.686,8.705-17.381,17.4c-.569.574-.894.653-1.505.035-5.849-5.9-11.746-11.743-17.6-17.637a10.5,10.5,0,0,1-1.935-12.137,10.786,10.786,0,0,1,10.661-5.844,10.611,10.611,0,0,1,6.236,2.875c.926.872,1.835,1.767,2.7,2.7.5.54.821.545,1.353.015a27.085,27.085,0,0,1,3.914-3.712,10.627,10.627,0,0,1,16.694,8.784ZM214.271,98.841a1.255,1.255,0,0,0,1.227-.968c.714-2.137,1.507-4.25,2.264-6.373.662-1.86,1.313-3.723,1.976-5.582.136-.382.316-.815-.234-.95-.667-.164-1.335-.2-1.643.672-1.428,4.055-2.854,8.111-4.33,12.148C213.215,98.656,213.689,98.744,214.271,98.841ZM207.942,92c.352-.217.49-.321.643-.393,1.115-.53,2.228-1.067,3.352-1.577.808-.367.68-1.115.472-1.636s-.747-.053-1.07.1c-1.594.753-3.158,1.567-4.743,2.339a1.177,1.177,0,0,0-.677,1.2,1.043,1.043,0,0,0,.7,1.051c1.587.773,3.154,1.585,4.742,2.358.316.153.759.554,1.019.088a1.2,1.2,0,0,0-.18-1.47,2.247,2.247,0,0,0-.636-.368C210.422,93.153,209.273,92.622,207.942,92Zm17.39-.135a4.341,4.341,0,0,1-.49.359c-1.145.55-2.288,1.1-3.442,1.633a1.114,1.114,0,0,0-.538,1.533c.258.718.778.177,1.126.011,1.561-.746,3.094-1.548,4.652-2.3a1.122,1.122,0,0,0,.746-1.136,1.108,1.108,0,0,0-.717-1.143c-1.624-.776-3.221-1.607-4.836-2.4-.264-.13-.548-.43-.863-.143-.263.24-.173.6-.161.906.021.532.371.781.826.983C222.821,90.69,223.991,91.248,225.332,91.868Z" transform="translate(-195.338 -74.657)" fill="#fd9e8f"/>
        <path id="Path_22" data-name="Path 22" d="M217.942,100.915c-.582-.1-1.057-.185-.739-1.053,1.476-4.037,2.9-8.093,4.33-12.148.308-.873.976-.835,1.643-.672.55.135.37.569.234.95-.663,1.859-1.314,3.723-1.976,5.582-.757,2.123-1.55,4.236-2.264,6.373A1.255,1.255,0,0,1,217.942,100.915Z" transform="translate(-199.01 -76.73)" fill="#fcefed"/>
        <path id="Path_23" data-name="Path 23" d="M210.09,94.742c1.331.619,2.48,1.15,3.625,1.688a2.247,2.247,0,0,1,.636.368,1.2,1.2,0,0,1,.18,1.47c-.26.466-.7.065-1.019-.088-1.588-.772-3.155-1.584-4.742-2.358a1.042,1.042,0,0,1-.7-1.051,1.177,1.177,0,0,1,.677-1.2c1.584-.772,3.149-1.586,4.743-2.339.323-.152.86-.626,1.07-.1s.336,1.269-.472,1.636c-1.124.51-2.237,1.047-3.352,1.577C210.58,94.421,210.442,94.525,210.09,94.742Z" transform="translate(-197.486 -77.396)" fill="#fcefed"/>
        <path id="Path_24" data-name="Path 24" d="M230.49,94.608c-1.342-.62-2.511-1.178-3.7-1.7-.456-.2-.806-.451-.826-.983-.012-.311-.1-.666.161-.906.315-.287.6.013.863.143,1.614.8,3.212,1.627,4.836,2.4a1.108,1.108,0,0,1,.717,1.143,1.122,1.122,0,0,1-.746,1.136c-1.558.751-3.091,1.554-4.652,2.3-.348.166-.869.707-1.126-.011a1.114,1.114,0,0,1,.538-1.533c1.154-.531,2.3-1.083,3.442-1.633A4.342,4.342,0,0,0,230.49,94.608Z" transform="translate(-200.496 -77.397)" fill="#fcefed"/>
      </g>
      <path id="Path_25" data-name="Path 25" d="M310.3,93.55c0-2.365.025-4.73-.017-7.094-.012-.66.178-.851.827-.824,1.3.056,2.613-.007,3.917.051,2.886.127,4.656,1.545,5.185,4.354a18.615,18.615,0,0,1-.021,7.158,5,5,0,0,1-5.163,4.265c-1.305.032-2.613-.026-3.918.021-.653.023-.843-.183-.832-.835.037-2.365.014-4.73.014-7.094Z" transform="translate(-32.332 -1.851)" fill="#fcfbfb"/>
      <path id="Path_26" data-name="Path 26" d="M283.2,93.534a18.075,18.075,0,0,1,.349-4.161,5.3,5.3,0,0,1,5.657-4.122c2.856.053,4.844,1.567,5.344,4.329a21.6,21.6,0,0,1-.013,7.9,5.7,5.7,0,0,1-10.984.208A18.037,18.037,0,0,1,283.2,93.534Z" transform="translate(-27.764 -1.787)" fill="#fcfbfb"/>
    </g>
  </g>
</svg>
