<svg xmlns="http://www.w3.org/2000/svg" width="60.763" height="60.781" viewBox="0 0 60.763 60.781">
  <g id="Group_27593" data-name="Group 27593" transform="translate(-31.347 -34.148)">
    <path id="Path_6333" data-name="Path 6333" d="M62.738,75.792c0,2.161.014,4.323-.01,6.484a.755.755,0,0,0,.64.887,5.854,5.854,0,1,1-3.2-.032.655.655,0,0,0,.551-.764q-.017-6.635,0-13.27c0-.46-.117-.642-.612-.638q-4.21.031-8.422,0c-.45,0-.6.149-.592.6.018,1.959,0,3.918.016,5.877a1.572,1.572,0,0,1-.505,1.236c-1.014.985-2,2-3.009,2.989a.64.64,0,0,0-.157.923,5.895,5.895,0,1,1-6.144-2.9,5.658,5.658,0,0,1,3.915.68.628.628,0,0,0,.927-.136c.854-.887,1.731-1.753,2.611-2.615a1.03,1.03,0,0,0,.337-.8c-.011-1.737-.024-3.474.006-5.211.009-.532-.206-.637-.68-.633-2.1.019-4.2.011-6.3.006A10.721,10.721,0,0,1,41.044,47.1a9.394,9.394,0,0,1,3.846.237c.427.123.6.027.74-.4a10.487,10.487,0,0,1,8.945-7.578,9.859,9.859,0,0,1,6.329,1.15c.407.224.56.137.8-.223A12.318,12.318,0,0,1,70.866,34.5,12.644,12.644,0,0,1,84.927,45.2a11.283,11.283,0,0,1,.1,1.992.723.723,0,0,0,.494.78,10.341,10.341,0,0,1,6.246,8.481,10.653,10.653,0,0,1-8.828,11.888,27.762,27.762,0,0,1-4.172.12c-1.272.024-2.545.021-3.817,0-.457-.009-.592.159-.587.6.019,1.757.013,3.514,0,5.272a.973.973,0,0,0,.315.749c.907.893,1.813,1.787,2.7,2.7.284.294.5.269.833.084a5.894,5.894,0,1,1,3.645,10.964A5.888,5.888,0,0,1,76,80.108a.679.679,0,0,0-.164-.974c-1.016-.983-2-2-3.009-2.989a1.512,1.512,0,0,1-.485-1.182c.018-1.959,0-3.918.016-5.878,0-.475-.145-.63-.623-.627q-4.182.027-8.362,0c-.517,0-.648.182-.644.669C62.749,71.347,62.738,73.57,62.738,75.792ZM61.7,66.445q8.9,0,17.81,0c.807,0,1.611-.021,2.418-.087a8.615,8.615,0,0,0,7.707-10.194,8.508,8.508,0,0,0-5.711-6.594c-.855-.319-1.057-.581-1.005-1.478a15.213,15.213,0,0,0,.019-1.868,10.526,10.526,0,0,0-11.308-9.658,10.344,10.344,0,0,0-8.737,5.851c-.558,1.047-1.053,1.189-2.014.516a8.415,8.415,0,0,0-5.719-1.521,8.593,8.593,0,0,0-7.8,7.27c-.187,1.173-.707,1.481-1.808,1.055a9.053,9.053,0,0,0-3.969-.575,8.557,8.557,0,0,0-7.893,8.605,8.328,8.328,0,0,0,3.735,7.11A9.041,9.041,0,0,0,42.8,66.442Q52.245,66.457,61.7,66.445ZM46.155,82.932a3.822,3.822,0,1,0-3.8,3.85A3.907,3.907,0,0,0,46.155,82.932Zm15.583,2.04a3.817,3.817,0,1,0,3.808,3.843A3.892,3.892,0,0,0,61.737,84.972ZM81.209,79.16A3.767,3.767,0,0,0,77.327,82.9a3.793,3.793,0,0,0,7.583.177A3.745,3.745,0,0,0,81.209,79.16Z" transform="translate(0)" stroke="#000" stroke-width="0.5"/>
    <path id="Path_6334" data-name="Path 6334" d="M61.868,64.786a14.06,14.06,0,0,1,.011-1.514.977.977,0,0,0-.694-1.1c-1.184-.555-1.173-.577-1.173.729,0,.424,0,.848,0,1.272,0,.121.034.274-.025.357-.418.588-1.03.177-1.546.272-.342.063-.451-.162-.449-.478.006-1.05-.018-2.1.009-3.149a.763.763,0,0,0-.513-.845,5.524,5.524,0,0,1-.914-.471,1.025,1.025,0,0,1-.017-1.8,4.347,4.347,0,0,1,.479-.258c3.575-1.789,7.156-3.565,10.721-5.374a1.9,1.9,0,0,1,1.885,0c3.547,1.8,7.11,3.567,10.666,5.345.145.072.292.139.43.224a1.042,1.042,0,0,1-.021,1.928C79.65,60.5,78.549,61,77.472,61.559c-.626.322-1.457.464-1.822,1.02-.382.582-.1,1.413-.121,2.135-.023.625-.019,1.252,0,1.878a1.176,1.176,0,0,1-.517,1.03,10.789,10.789,0,0,1-12.626.009,1.17,1.17,0,0,1-.522-1.028C61.882,66,61.868,65.391,61.868,64.786ZM77.782,58.94c-.057-.153-.2-.189-.325-.251q-4.167-2.086-8.332-4.173a.876.876,0,0,0-.859,0q-4.163,2.091-8.333,4.17c-.121.061-.3.093-.315.249-.017.177.171.2.289.263Q64.1,61.3,68.3,63.4a.772.772,0,0,0,.748.028q4.245-2.13,8.495-4.252C77.642,59.124,77.772,59.09,77.782,58.94Zm-9.016,8.6a8.4,8.4,0,0,0,3.82-.866c.662-.292,1.058-.677.925-1.465a4.945,4.945,0,0,1-.006-1.088c.025-.449-.116-.533-.52-.325-1.129.585-2.28,1.127-3.4,1.721a1.746,1.746,0,0,1-1.777,0c-1.123-.6-2.276-1.136-3.4-1.72-.417-.216-.533-.1-.516.331.019.5.026,1.01,0,1.514a.749.749,0,0,0,.451.77A8.372,8.372,0,0,0,68.767,67.537Z" transform="translate(-6.969 -5.07)" stroke="#000" stroke-width="0.5"/>
  </g>
</svg>
