<svg xmlns="http://www.w3.org/2000/svg" width="109.767" height="109.768" viewBox="0 0 109.767 109.768">
  <g id="Group_28056" data-name="Group 28056" transform="translate(-311.152 -4942.617)">
    <path id="Rectangle_267" data-name="Rectangle 267" d="M605,357.551h0a61.394,61.394,0,0,1,61.4,61.389v0h0a48.369,48.369,0,0,1-48.365,48.374h-61.4v-61.4A48.37,48.37,0,0,1,605,357.551Z" transform="translate(-245.475 4585.066)" fill="#ecf1f9"/>
    <g id="digitalocean" transform="translate(336.961 4970.36)">
      <path id="Path_6272" data-name="Path 6272" d="M27.23,0A27.165,27.165,0,0,0,.01,27.123H10.5a16.709,16.709,0,0,1,22.762-15.5A15.719,15.719,0,0,1,42.641,21a16.7,16.7,0,0,1-15.47,22.762V33.336H16.715V43.792H27.142v10.49a27.225,27.225,0,0,0,25.777-35.8A26.269,26.269,0,0,0,35.786,1.346,28.95,28.95,0,0,0,27.228,0ZM16.713,43.792H8.657v8.061h8.056Zm-8.059,0V37.056H1.921v6.735Z" transform="translate(-0.01 0)" fill="#1550b2"/>
    </g>
  </g>
</svg>
