<?xml version="1.0" encoding="UTF-8"?><svg id="Layer_2" xmlns="http://www.w3.org/2000/svg" viewBox="0 0 60.19 60.27"><g id="Layer_1-2"><g id="Group_27598"><path id="Path_6353" d="M30.1,35.13c-.3,0-.59-.08-.85-.23L12.23,26.39c-.48-.24-.88-.53-.89-1.14,0-.55,.36-1.04,.88-1.22,5.7-2.84,11.39-5.69,17.08-8.54,.49-.28,1.09-.28,1.59,0,5.69,2.85,11.39,5.7,17.08,8.54,.52,.17,.88,.65,.89,1.2-.02,.53-.37,.98-.87,1.15-5.68,2.83-11.35,5.67-17.02,8.51-.26,.17-.56,.25-.87,.25Z"/><path id="Path_6354" d="M17.89,35.67v-3.41c0-.78,.05-.81,.73-.47,3.15,1.57,6.32,3.1,9.43,4.74,1.27,.74,2.84,.73,4.11-.02,3.08-1.61,6.21-3.12,9.32-4.68,.79-.39,.81-.38,.81,.47v6.48c.06,1.33-.62,2.58-1.78,3.23-6.33,3.8-12.82,3.95-19.46,.86-.6-.29-1.17-.65-1.68-1.08-.99-.72-1.55-1.9-1.49-3.12,.05-1,.01-2,.01-3.01Z"/><path id="Path_6355" d="M11.06,53.4c0,.62-.01,1.15,0,1.67,.01,.49,.08,.98,.07,1.47,.06,.63-.4,1.2-1.03,1.26-.63,.06-1.2-.4-1.26-1.03,0-.04,0-.07,0-.11-.1-.73-.05-1.46-.12-2.2-.11-1.2-.15-2.4-.18-3.6-.12-.68,.32-1.33,1-1.46,.11-.02,.23-.03,.34-.02,1.84-.12,3.69-.21,5.53-.29,.91-.04,1.44,.38,1.48,1.09s-.52,1.2-1.43,1.25c-.89,.05-1.77,.1-2.65,.14-.07,.25,.11,.31,.22,.4,9.57,7.73,23.16,7.99,33.01,.63,5.88-4.07,9.95-10.27,11.34-17.29,1.12-5.68,.37-11.58-2.12-16.81-.09-.2-.2-.4-.28-.61-.31-.56-.11-1.26,.44-1.57,.56-.31,1.26-.11,1.57,.44,.04,.07,.07,.13,.09,.21,.59,1.23,1.1,2.49,1.52,3.78,1.09,3.19,1.63,6.54,1.59,9.91-.08,6.54-2.38,12.87-6.52,17.93-4.27,5.46-10.29,9.29-17.04,10.85-8.92,2.1-17.03,.12-24.4-5.19-.37-.27-.74-.55-1.17-.86Z"/><path id="Path_6356" d="M49.12,6.88c.07-.78,.05-1.56-.06-2.33-.02-.29-.02-.58-.01-.87,0-.61,.46-1.12,1.06-1.17,.6-.07,1.14,.37,1.21,.97,0,.01,0,.02,0,.03,.11,.77,.13,1.55,.17,2.33,.06,1.18,.13,2.36,.16,3.53,.03,1-.38,1.47-1.35,1.53-1.84,.11-3.69,.21-5.53,.28-.91,.04-1.43-.38-1.47-1.09s.53-1.19,1.44-1.24c.89-.04,1.77-.1,2.64-.14,.08-.22-.07-.28-.17-.36C38.65,1.36,26.67,.38,17.09,5.87,10.3,9.47,5.29,15.7,3.22,23.1c-1.72,6.16-1.15,12.73,1.61,18.49,.15,.32,.31,.64,.43,.98,.23,.54,0,1.16-.53,1.41-.54,.28-1.21,.08-1.51-.45-.17-.31-.33-.63-.46-.96-1.51-3.31-2.41-6.86-2.68-10.48-.58-7.65,1.94-15.21,6.99-20.99C11.41,5.81,17.42,2.15,24.1,.71c8.46-1.86,16.2-.03,23.26,4.89,.58,.4,1.14,.83,1.75,1.28Z"/></g></g></svg>