<svg xmlns="http://www.w3.org/2000/svg" width="109.767" height="109.768" viewBox="0 0 109.767 109.768">
  <g id="Group_28059" data-name="Group 28059" transform="translate(-1700.559 -4942.617)">
    <path id="Rectangle_267" data-name="Rectangle 267" d="M605,357.551h0a61.394,61.394,0,0,1,61.4,61.389v0h0a48.369,48.369,0,0,1-48.365,48.374h-61.4v-61.4A48.37,48.37,0,0,1,605,357.551Z" transform="translate(1143.932 4585.066)" fill="#ecf1f9"/>
    <g id="business" transform="translate(1744.077 4975.376)">
      <path id="Path_6275" data-name="Path 6275" d="M19.982,3.234l-6.573,7.58,6.414,30.215q.318.848.424,1.193a1.592,1.592,0,0,1,.027.769,1.524,1.524,0,0,1-.451.8L11.554,53.7a1.746,1.746,0,0,1-1.352.583A1.915,1.915,0,0,1,8.8,53.7L.581,43.786a1.876,1.876,0,0,1-.5-1.14,6.242,6.242,0,0,1,.5-1.617L7,10.761.475,3.234A1.824,1.824,0,0,1,.13,1.3,1.492,1.492,0,0,1,1.641,0H18.869a1.42,1.42,0,0,1,1.458,1.3A1.979,1.979,0,0,1,19.982,3.234Z" transform="translate(-0.016 0)" fill="#1550b2"/>
    </g>
  </g>
</svg>
