<svg xmlns="http://www.w3.org/2000/svg" width="109.767" height="109.768" viewBox="0 0 109.767 109.768">
  <g id="Group_28053" data-name="Group 28053" transform="translate(-912.862 -4764.134)">
    <path id="Rectangle_267" data-name="Rectangle 267" d="M605,357.551h0a61.394,61.394,0,0,1,61.4,61.389v0h0a48.369,48.369,0,0,1-48.365,48.374h-61.4v-61.4A48.37,48.37,0,0,1,605,357.551Z" transform="translate(356.235 4406.583)" fill="#ecf1f9"/>
    <g id="Group_28032" data-name="Group 28032" transform="translate(926.253 4785.672)">
      <g id="Group_28030" data-name="Group 28030" transform="translate(0 0)">
        <ellipse id="Ellipse_93" data-name="Ellipse 93" cx="9.7" cy="9.7" rx="9.7" ry="9.7" transform="translate(35.83 16.891)" fill="#1550b2"/>
        <path id="Path_14644" data-name="Path 14644" d="M-377.867,302c2.329-1.077,4.6-2.13,6.879-3.181,1.512-.7,3.015-1.419,4.542-2.084a4.37,4.37,0,0,1,6.219,4.026,4.154,4.154,0,0,1-1.79,3.469,146.49,146.49,0,0,1-20.519,12.5,36.188,36.188,0,0,1-8.272,3.009,11.194,11.194,0,0,1-5.667-.426,77.185,77.185,0,0,1-14.322-6.469c-.9-.488-1.789-.989-2.687-1.486a3.84,3.84,0,0,1-4.14,2.778q-4.63,0-9.26,0c-1.109,0-1.372-.269-1.372-1.379q0-11.547,0-23.095c0-1.068.257-1.321,1.338-1.322,3.064,0,6.13.071,9.19-.025a3.916,3.916,0,0,1,4.35,3.375c.794,0,1.59-.007,2.387,0,2.811.03,5.627-.017,8.433.118a19.154,19.154,0,0,1,9.506,3.366c.824.532,1.569,1.185,2.384,1.731a2.186,2.186,0,0,0,1.1.4c2.148.038,4.3.018,6.447.019C-379.932,297.335-378.309,298.748-377.867,302Zm-35.554-8.425v.922c0,4.515.031,9.029-.026,13.543a1.8,1.8,0,0,0,1.081,1.846,108.228,108.228,0,0,0,15.089,7.291,11.958,11.958,0,0,0,8.878.02c1.505-.6,3.029-1.159,4.49-1.852a141.231,141.231,0,0,0,19.891-11.963,8.273,8.273,0,0,0,1.247-.958,2.5,2.5,0,0,0-.951-4.1,2.726,2.726,0,0,0-2.184.174q-6.271,2.916-12.55,5.811a1.453,1.453,0,0,0-.51.328A4.844,4.844,0,0,1-383,306.295c-4.825-.026-9.65-.009-14.476-.011a4.931,4.931,0,0,1-.751-.04.83.83,0,0,1-.752-.914.868.868,0,0,1,.816-.871,4.516,4.516,0,0,1,.617-.011q7.478,0,14.956,0a2.618,2.618,0,0,0,2.782-2.659,2.579,2.579,0,0,0-2.768-2.584c-2.424-.005-4.848-.02-7.272.01a2.4,2.4,0,0,1-1.732-.626,19.5,19.5,0,0,0-7.914-4.359,18.884,18.884,0,0,0-4.181-.621C-406.889,293.516-410.111,293.577-413.42,293.577Zm-12.953,18.708h8.85c1.613,0,2.294-.676,2.294-2.287q0-8.757,0-17.515c0-1.651-.685-2.345-2.322-2.346q-4.078,0-8.157,0h-.666Z" transform="translate(428.257 -251.789)" fill="#1550b2" stroke="#1550b2" stroke-linecap="round" stroke-linejoin="round" stroke-width="0.4"/>
        <path id="Path_14645" data-name="Path 14645" d="M-233.292,162.513a15.571,15.571,0,0,1-15.536,15.552,15.592,15.592,0,0,1-15.508-15.659,15.6,15.6,0,0,1,15.545-15.481A15.568,15.568,0,0,1-233.292,162.513Zm-15.528-13.72a13.729,13.729,0,0,0-13.7,13.713,13.724,13.724,0,0,0,13.72,13.689,13.71,13.71,0,0,0,13.688-13.713A13.707,13.707,0,0,0-248.82,148.793Z" transform="translate(294.382 -136.314)" fill="#1550b2"/>
        <path id="Path_14646" data-name="Path 14646" d="M-231.074,103.954a4.82,4.82,0,0,1-.823-.511q-1.88-1.848-3.727-3.731a.951.951,0,0,1-.128-1.393.9.9,0,0,1,1.387.08c1.269,1.249,2.542,2.5,3.759,3.8a1.428,1.428,0,0,1,.25,1.089C-230.4,103.529-230.8,103.711-231.074,103.954Z" transform="translate(271.24 -96.378)" fill="#1550b2"/>
        <path id="Path_14647" data-name="Path 14647" d="M-153.479,103.9c-.236-.206-.635-.391-.707-.662a1.277,1.277,0,0,1,.233-1.031c.99-1.074,2.046-2.085,3.079-3.118.274-.274.54-.559.831-.815a.828.828,0,0,1,1.226.01.81.81,0,0,1,.074,1.225c-1.33,1.381-2.693,2.73-4.056,4.078A2.681,2.681,0,0,1-153.479,103.9Z" transform="translate(204.445 -96.357)" fill="#1550b2"/>
        <path id="Path_14648" data-name="Path 14648" d="M-182.776,92.794c0,.87.009,1.74,0,2.609-.009.678-.341,1.056-.9,1.064s-.919-.355-.926-1.037q-.026-2.677,0-5.356a.932.932,0,0,1,.93-1.046.974.974,0,0,1,.895,1.088C-182.768,91.008-182.776,91.9-182.776,92.794Z" transform="translate(229.275 -89.028)" fill="#1550b2"/>
        <path id="Path_14649" data-name="Path 14649" d="M-381.378,390.171c-.006.752-.347,1.179-.939,1.175-.608,0-.943-.456-.928-1.255.014-.746.367-1.158.973-1.135C-381.684,388.979-381.372,389.4-381.378,390.171Z" transform="translate(391.496 -333.981)" fill="#1550b2"/>
        <path id="Path_14650" data-name="Path 14650" d="M-226.069,195.895a10.43,10.43,0,0,1-10.4-10.462,10.431,10.431,0,0,1,10.442-10.353,10.38,10.38,0,0,1,10.376,10.532A10.389,10.389,0,0,1-226.069,195.895Zm.036-19a8.6,8.6,0,0,0-8.57,8.551,8.594,8.594,0,0,0,8.544,8.643,8.653,8.653,0,0,0,8.593-8.618A8.65,8.65,0,0,0-226.033,176.89Z" transform="translate(271.623 -159.307)" fill="#1550b2"/>
      </g>
      <g id="Group_28031" data-name="Group 28031" transform="translate(42.591 22.056)">
        <path id="Path_14651" data-name="Path 14651" d="M-189.6,210.109h-2.468a2.243,2.243,0,0,1,.838,1.526h1.631v.748h-1.616c-.15,1.526-1.361,2.5-3.276,2.558,1.167,1.212,2.439,2.738,3.7,4.279h-1.436c-1.167-1.406-2.259-2.708-3.665-4.2v-.927h.823c1.616,0,2.483-.673,2.588-1.705H-195.9v-.748h3.366c-.209-.868-1-1.3-2.3-1.3H-195.9v-.973h6.3Z" transform="translate(195.896 -209.361)" fill="#fff" stroke="#fff" stroke-linecap="round" stroke-linejoin="round" stroke-width="0.4"/>
      </g>
    </g>
  </g>
</svg>
