<svg id="Group_27431" data-name="Group 27431" xmlns="http://www.w3.org/2000/svg" width="64.627" height="64.628" viewBox="0 0 64.627 64.628">
  <g id="Ellipse_706" data-name="Ellipse 706" transform="translate(0 0)" fill="#e6c339" stroke="#fff" stroke-width="1">
    <circle cx="32.314" cy="32.314" r="32.314" stroke="none"/>
    <circle cx="32.314" cy="32.314" r="31.814" fill="none"/>
  </g>
  <g id="Group_27337" data-name="Group 27337" transform="translate(15.234 18.003)">
    <path id="Path_12540" data-name="Path 12540" d="M338.061,391.736h-13.8a3.374,3.374,0,0,1-1.7-.343,2.7,2.7,0,0,1-1.442-2.513q-.005-7.289,0-14.578,0-1.506,0-3.013a2.764,2.764,0,0,1,2.986-3.006c2-.011,3.99,0,5.986,0,.547,0,.548,0,.549-.536,0-.57,0-1.14,0-1.71a2.692,2.692,0,0,1,2.85-2.953c3.054-.036,6.108-.03,9.162,0a2.7,2.7,0,0,1,2.852,2.453c.035.664.008,1.33.013,1.995.006.788-.1.755.737.755q2.871,0,5.741,0a2.773,2.773,0,0,1,3.039,3.035q0,8.775,0,17.55a2.7,2.7,0,0,1-2.075,2.765,4.545,4.545,0,0,1-1.091.106Q344.963,391.735,338.061,391.736Zm.032-1.478c4.655,0,9.311-.017,13.966.013a1.386,1.386,0,0,0,1.542-1.551q-.009-6.413,0-12.826c0-.451-.012-.459-.429-.3q-5.9,2.292-11.8,4.581a.457.457,0,0,0-.34.512c.015.678.01,1.357,0,2.036a.711.711,0,0,1-.8.81q-2.158.011-4.316,0a.712.712,0,0,1-.8-.811c-.008-.651-.024-1.3.006-1.954a.577.577,0,0,0-.453-.648q-5.81-2.24-11.612-4.5c-.508-.2-.51-.2-.51.354q0,6.352,0,12.7c0,1.13.452,1.583,1.575,1.583Zm-.019-20.5c-4.682,0-9.365.016-14.047-.012a1.368,1.368,0,0,0-1.479,1.489c.013.733.018,1.466,0,2.2a.532.532,0,0,0,.4.6q5.884,2.272,11.759,4.57c.309.121.463.112.414-.27a1.543,1.543,0,0,1,0-.2c0-.75.242-.989,1.006-.991,1.208,0,2.416.017,3.624-.006.944-.018,1.384.115,1.286,1.241-.029.33.09.357.374.246q5.914-2.311,11.835-4.6a.49.49,0,0,0,.361-.546c-.017-.719-.015-1.439,0-2.158a1.39,1.39,0,0,0-1.561-1.572C347.384,369.777,342.729,369.758,338.074,369.758Zm-.043-1.478c1.858,0,3.716-.006,5.574.006.339,0,.495-.083.481-.456-.025-.65,0-1.3-.009-1.953a1.234,1.234,0,0,0-1.319-1.328q-4.679-.008-9.359,0a1.235,1.235,0,0,0-1.326,1.321c-.007.637.019,1.276-.01,1.912-.018.4.131.509.514.505C334.4,368.271,336.213,368.28,338.031,368.28Zm-1.479,12.054c0,.461.01.922,0,1.382-.008.269.072.4.366.392q1.158-.02,2.318,0c.289,0,.375-.114.372-.387q-.016-1.382,0-2.765c0-.269-.071-.4-.367-.39q-1.158.022-2.318,0c-.29-.005-.38.111-.371.385C336.562,379.412,336.552,379.873,336.552,380.334Z" transform="translate(-321.116 -363.055)" fill="#fff"/>
  </g>
</svg>
