<svg xmlns="http://www.w3.org/2000/svg" width="118" height="118" viewBox="0 0 118 118"><g transform="translate(-344 -3197)"><g transform="translate(355.018 3203.311)"><path d="M163.214,322.129a16.4,16.4,0,0,1-2.778-1.1,9.259,9.259,0,0,1-4.622-8.434q-.026-25.891-.007-51.783a6.635,6.635,0,0,1,.026-.7c.156-1.463,1.031-2.3,2.3-2.225,1.217.076,1.939.962,1.94,2.439q.006,26.091,0,52.182a5.324,5.324,0,0,0,1.588,4.156,4.288,4.288,0,0,0,2.864,1.248c.4.013.8.027,1.2.027q32.589,0,65.178,0a6.71,6.71,0,0,0,2.085-.16,4.683,4.683,0,0,0,3.341-3.524,23.647,23.647,0,0,0,.192-4.88,1.277,1.277,0,0,0-.512-.933q-12.085-12.089-24.163-24.187a1.157,1.157,0,0,0-1.508-.186c-10.292,4.437-19.944,3.309-28.679-3.72a25.672,25.672,0,0,1-9.521-17.662,26.894,26.894,0,1,1,51.011,8.6,1.054,1.054,0,0,0,.165,1.412q6.42,6.374,12.806,12.783a1.661,1.661,0,0,0,.253.171c.279-.25.151-.569.151-.844q.011-21.093.027-42.186c0-1.012-.293-1.311-1.3-1.311-3.2,0-6.4.181-9.59-.1a4.335,4.335,0,0,1-4.12-4.544c-.015-3.865-.027-7.731.011-11.6.009-.878-.281-1.151-1.149-1.151q-27.641.029-55.281.025a4.793,4.793,0,0,0-5.036,5.123c-.018,4.265-.008,8.53-.006,12.8a2.123,2.123,0,0,1-1.285,2.078,1.957,1.957,0,0,1-2.153-.307,2.138,2.138,0,0,1-.8-1.763c0-4.629-.262-9.268.112-13.885.338-4.17,2.749-6.8,6.7-8.051.189-.06.376-.127.564-.191H224.4a6.833,6.833,0,0,1,1.658,1.575c4.415,5.124,8.8,10.273,13.267,15.352a5.573,5.573,0,0,1,1.49,3.959c-.037,16.1-.018,32.191-.037,48.286a2.689,2.689,0,0,0,.861,2.111q4.145,4.054,8.2,8.2a7.6,7.6,0,0,1,2.212,6.664c-.668,4.888-5.558,8.284-10.126,7.01-1.11-.31-1.19-.275-1.248.864a8.793,8.793,0,0,1-1.827,4.882,9.826,9.826,0,0,1-5.455,3.478Zm35.741-84.991A22.271,22.271,0,0,0,181.5,245.2a22.786,22.786,0,0,0-1.678,26.819c.484.72.73.648,1.167-.025a20.434,20.434,0,0,1,9-7.667c.771-.343.67-.57.16-1.071a11.716,11.716,0,0,1-3.623-8.983,12.045,12.045,0,1,1,20.507,8.945c-.557.577-.581.8.2,1.159a20.851,20.851,0,0,1,9.187,8.041c.57.906.613.909,1.222-.015a22.6,22.6,0,0,0-18.685-35.271Zm-.209,45.216A22.293,22.293,0,0,0,213,277.447a1.142,1.142,0,0,0,.388-1.741c-3.135-5.53-7.819-8.67-14.2-8.9-6.672-.235-11.69,2.758-15.206,8.384a1.235,1.235,0,0,0,.33,1.92A22.229,22.229,0,0,0,198.746,282.353Zm45.209,26.553a3.911,3.911,0,0,0,3.536-2.505,3.654,3.654,0,0,0-.906-4.46q-7.618-7.642-15.245-15.273c-.411-.413-.711-.484-1.15-.034q-2.2,2.253-4.448,4.453c-.4.4-.391.668.007,1.064q7.858,7.825,15.7,15.667A3.4,3.4,0,0,0,243.955,308.906Zm-37.6-54.16a7.8,7.8,0,1,0-7.783,7.734A7.86,7.86,0,0,0,206.353,254.746Zm15.921,33.661a3.152,3.152,0,0,0,.425-.313c1.532-1.523,3.049-3.062,4.593-4.575.41-.4.254-.646-.078-.975q-3.117-3.089-6.2-6.207c-.382-.387-.623-.483-1.008.018a23.46,23.46,0,0,1-4.421,4.437c-.489.371-.538.657-.085,1.1,2.059,2.031,4.1,4.085,6.142,6.128A.954.954,0,0,0,222.274,288.407Zm3.761-60.595-.223.1q0,4.185,0,8.37c0,.686.425.8,1,.8,1.73-.013,3.46,0,5.19,0h2.022Z" transform="translate(-155.748 -219.75)"/><path d="M280.188,500.491c-3.4,0-6.792.006-10.188-.006a10.11,10.11,0,0,1-1.788-.142,2.076,2.076,0,0,1,.228-4.092,7.733,7.733,0,0,1,.8-.017h21.873c.233,0,.467-.007.7.012a2.071,2.071,0,0,1,.349,4.079,8.62,8.62,0,0,1-1.784.159C286.979,500.5,283.583,500.491,280.188,500.491Z" transform="translate(-237.033 -422.519)"/><path d="M241.449,538.9c-1.732,0-3.465.011-5.2,0-1.493-.012-2.428-.809-2.454-2.055a2.19,2.19,0,0,1,2.431-2.212q5.3-.045,10.594,0a2.157,2.157,0,1,1-.076,4.268C244.98,538.913,243.215,538.9,241.449,538.9Z" transform="translate(-212.988 -450.666)"/><path d="M351.023,538.9c-1.766,0-3.532.012-5.3,0-1.485-.013-2.417-.827-2.43-2.079a2.164,2.164,0,0,1,2.355-2.182q5.346-.056,10.694,0a2.15,2.15,0,1,1-.025,4.265C354.555,538.915,352.789,538.9,351.023,538.9Z" transform="translate(-293.293 -450.666)"/><path d="M160.4,331.14a2.1,2.1,0,1,1-4.2.046,2.13,2.13,0,0,1,2.091-2.118A2.067,2.067,0,0,1,160.4,331.14Z" transform="translate(-156.08 -299.923)"/><path d="M311.646,534.777a2.247,2.247,0,0,1,2.159,2.085,2.184,2.184,0,0,1-2.075,2.152A2.117,2.117,0,0,1,309.547,537,2.167,2.167,0,0,1,311.646,534.777Z" transform="translate(-268.542 -450.787)"/></g><rect width="118" height="118" transform="translate(344 3197)" fill="none"/></g></svg>