<svg xmlns="http://www.w3.org/2000/svg" width="109.767" height="109.768" viewBox="0 0 109.767 109.768">
  <g id="Group_28054" data-name="Group 28054" transform="translate(-1401.716 -4764.134)">
    <path id="Rectangle_267" data-name="Rectangle 267" d="M605,357.551h0a61.394,61.394,0,0,1,61.4,61.389v0h0a48.369,48.369,0,0,1-48.365,48.374h-61.4v-61.4A48.37,48.37,0,0,1,605,357.551Z" transform="translate(845.089 4406.583)" fill="#ecf1f9"/>
    <g id="machine-learning-model" transform="translate(1429.456 4792.608)">
      <path id="Path_6266" data-name="Path 6266" d="M44.448,37.754a5.738,5.738,0,0,0-2.491.582L33.62,30H27v3.877h5.013l7.2,7.2a5.75,5.75,0,0,0-.584,2.491,5.816,5.816,0,1,0,5.816-5.816Zm0,7.754a1.939,1.939,0,1,1,1.939-1.939A1.939,1.939,0,0,1,44.448,45.509Z" transform="translate(4.018 4.895)" fill="#1550b2"/>
      <path id="Path_6267" data-name="Path 6267" d="M44.448,19.5a5.806,5.806,0,0,0-5.459,3.877H27v3.877H38.988A5.806,5.806,0,1,0,44.448,19.5Zm0,7.754a1.939,1.939,0,1,1,1.939-1.939A1.939,1.939,0,0,1,44.448,27.254Z" transform="translate(4.018 1.825)" fill="#1550b2"/>
      <path id="Path_6268" data-name="Path 6268" d="M44.448,3a5.822,5.822,0,0,0-5.816,5.816,5.75,5.75,0,0,0,.675,2.662l-7.274,7.031H27v3.877h6.6l8.53-8.243A5.814,5.814,0,1,0,44.448,3Zm0,7.754a1.939,1.939,0,1,1,1.939-1.939A1.939,1.939,0,0,1,44.448,10.754Z" transform="translate(4.018 -3)" fill="#1550b2"/>
      <path id="Path_6269" data-name="Path 6269" d="M34.018,9.877H37.9V6H34.018A7.708,7.708,0,0,0,28.2,8.679,7.708,7.708,0,0,0,22.386,6H20.448A17.467,17.467,0,0,0,3,23.448V35.079A17.467,17.467,0,0,0,20.448,52.527h1.939A7.708,7.708,0,0,0,28.2,49.848a7.708,7.708,0,0,0,5.816,2.679H37.9V48.65H34.018a3.881,3.881,0,0,1-3.877-3.877V13.754A3.881,3.881,0,0,1,34.018,9.877ZM22.386,48.65H20.448A13.58,13.58,0,0,1,7.032,37.018h3.722V33.141H6.877V25.386h5.816a5.822,5.822,0,0,0,5.816-5.816V15.693H14.632V19.57a1.939,1.939,0,0,1-1.939,1.939H7.032A13.58,13.58,0,0,1,20.448,9.877h1.939a3.881,3.881,0,0,1,3.877,3.877v7.754H22.386v3.877h3.877v7.754H22.386a5.822,5.822,0,0,0-5.816,5.816v3.877h3.877V38.957a1.939,1.939,0,0,1,1.939-1.939h3.877v7.755a3.881,3.881,0,0,1-3.877,3.877Z" transform="translate(-3 -2.123)" fill="#1550b2"/>
    </g>
  </g>
</svg>
