<svg xmlns="http://www.w3.org/2000/svg" width="78.164" height="78.164" viewBox="0 0 78.164 78.164">
  <g id="Group_28115" data-name="Group 28115" transform="translate(-483.802 -5531.771)">
    <rect id="Rectangle_719" data-name="Rectangle 719" width="78.164" height="78.164" rx="39.082" transform="translate(483.802 5531.771)" fill="#e7ce6f"/>
    <g id="Group_28070" data-name="Group 28070" transform="translate(500.644 5550.394)">
      <path id="Path_12470" data-name="Path 12470" d="M44.814,29.447A2.09,2.09,0,0,1,42.8,30.854a.276.276,0,0,0-.291.205,1.486,1.486,0,0,1-.089.241,1.429,1.429,0,0,0,.064,1.8,1.658,1.658,0,0,1-.188,2.11,9.332,9.332,0,0,1-1.393,1.4,1.914,1.914,0,0,1-2.525,0,.6.6,0,0,0-.833-.092.4.4,0,0,1-.118.052A1.158,1.158,0,0,0,36.4,37.686a1.794,1.794,0,0,1-1.881,1.5c-.5.006-1,0-1.506,0a1.966,1.966,0,0,1-2.064-1.871c-.025-.312-.134-.477-.423-.544a.16.16,0,0,1-.04-.015,1.368,1.368,0,0,0-1.758.058,1.747,1.747,0,0,1-2.221-.237c-.434-.4-.852-.81-1.25-1.242A1.924,1.924,0,0,1,25.2,32.71a.588.588,0,0,0,.082-.825,1.623,1.623,0,0,1-.14-.313c-.3-.721-.295-.721-1.1-.721q-3.119,0-6.238,0a1.11,1.11,0,0,1-.771-.2.9.9,0,0,1,.285-1.555,1.965,1.965,0,0,1,.68-.077q2,0,4,0c.585,0,.586,0,.587-.6,0-.329,0-.658,0-.988a2,2,0,0,1,1.9-2.1c.315-.029.474-.14.537-.429a.33.33,0,0,1,.033-.079,1.268,1.268,0,0,0-.072-1.664,1.737,1.737,0,0,1,.193-2.221,14.634,14.634,0,0,1,1.306-1.306,1.922,1.922,0,0,1,2.654.028c.2.184.371.242.6.081a.526.526,0,0,1,.155-.073A1.335,1.335,0,0,0,31.047,18.4a1.8,1.8,0,0,1,1.821-1.42c.544-.021,1.09-.023,1.634,0a1.989,1.989,0,0,1,1.967,1.9c.027.3.132.446.408.5a.7.7,0,0,1,.2.074c.559.32,1.084.5,1.613-.1a1.085,1.085,0,0,1,.848-.246c.265.011.349-.11.349-.361q-.007-3.95,0-7.9c0-.28-.111-.394-.384-.374-.1.007-.2,0-.3,0H3.238c-.129,0-.258,0-.387,0a.262.262,0,0,0-.29.294c0,.1-.005.2-.005.3q0,7.428,0,14.856a3.4,3.4,0,0,0,.626,2.182,2.086,2.086,0,0,0,1.759.9c1.52-.016,3.04,0,4.56,0a2.28,2.28,0,0,1,.682.073.93.93,0,0,1,.644.955.868.868,0,0,1-.827.794c-1.878.011-3.767.117-5.632-.038A3.954,3.954,0,0,1,1,27.864C.9,27.6.831,27.316.75,27.042V1.016C.86.661.949.3,1.082-.047A4.064,4.064,0,0,1,4.828-2.791q16.388,0,32.776,0a3.575,3.575,0,0,1,2.271.782A4.959,4.959,0,0,1,41.732,2.14q.005,8.865,0,17.729a1.066,1.066,0,0,0,.329.835,1.938,1.938,0,0,1,.113,2.869c-.24.29.261,1.662.631,1.731a.378.378,0,0,0,.043,0,2.118,2.118,0,0,1,1.969,1.476ZM21.189,8.636H36.847c.875,0,1.749-.007,2.624,0,.279,0,.421-.067.419-.382-.01-2.19.024-4.38-.02-6.569A2.543,2.543,0,0,0,37.1-.964H5.312c-.158,0-.315,0-.473,0A1.987,1.987,0,0,0,3.2-.091,3.271,3.271,0,0,0,2.553,2c.01,1.989,0,3.979,0,5.968,0,.667,0,.668.652.668ZM40.877,34.031a.305.305,0,0,0-.115-.252c-.149-.154-.3-.3-.454-.458a.974.974,0,0,1-.194-1.417,8.165,8.165,0,0,0,.834-2.016,1.009,1.009,0,0,1,1.11-.868c.952-.039.952-.039.952-.986,0-1.01.051-.872-.875-.88-.745-.007-1.008-.2-1.2-.908a7.647,7.647,0,0,0-.8-1.936.965.965,0,0,1,.178-1.446c.75-.765.757-.579-.02-1.361-.716-.722-.592-.7-1.31.006a1,1,0,0,1-1.458.193,8.43,8.43,0,0,0-1.939-.809c-.747-.2-.944-.448-.948-1.2-.005-.956.087-.866-.888-.869-.941,0-.941,0-.981.945a1.04,1.04,0,0,1-.935,1.142,7.682,7.682,0,0,0-1.9.794,1,1,0,0,1-1.489-.182c-.723-.705-.543-.731-1.3.016-.68.673-.678.675-.016,1.353a.989.989,0,0,1,.175,1.453,7.7,7.7,0,0,0-.786,1.9c-.184.7-.456.908-1.191.914-.973.008-.891-.111-.893.906,0,.928,0,.928.925.96a1.026,1.026,0,0,1,1.158.914,8.445,8.445,0,0,0,.849,2.011.962.962,0,0,1-.167,1.32c-.693.727-.7.73,0,1.422s.532.709,1.264-.007a.991.991,0,0,1,1.484-.2,7.8,7.8,0,0,0,1.943.794,1.011,1.011,0,0,1,.889,1.173c.012.953-.144.906.9.906.931,0,.931,0,.973-.963a1,1,0,0,1,.873-1.1,8.207,8.207,0,0,0,2.1-.874.93.93,0,0,1,1.253.14c.191.173.372.357.551.543a.261.261,0,0,0,.436,0c.289-.3.588-.587.879-.884A1.449,1.449,0,0,0,40.877,34.031Z" transform="translate(-0.75 2.795)" fill="#fff"/>
      <path id="Path_12471" data-name="Path 12471" d="M153.5,164.015a1.072,1.072,0,0,1-.271.751c-.823.935-1.649,1.867-2.488,2.788a.837.837,0,0,1-.94.247.908.908,0,0,1-.342-1.529c.569-.644,1.126-1.3,1.717-1.921.251-.264.273-.429.01-.7-.586-.608-1.136-1.251-1.7-1.882a.959.959,0,0,1-.3-.9.907.907,0,0,1,1.579-.406c.6.617,1.152,1.274,1.725,1.914.22.245.441.489.657.738A1.307,1.307,0,0,1,153.5,164.015Z" transform="translate(-132.135 -141.451)" fill="#fff"/>
      <path id="Path_12472" data-name="Path 12472" d="M43.262,163.935a1.194,1.194,0,0,1,.358-.884c.76-.857,1.518-1.715,2.29-2.562a.924.924,0,0,1,1.368-.165.906.906,0,0,1,0,1.374c-.551.64-1.1,1.28-1.694,1.884-.281.288-.247.459.01.73.572.6,1.114,1.231,1.657,1.86.448.519.447,1.022.02,1.4a.9.9,0,0,1-1.361-.179c-.782-.856-1.551-1.725-2.321-2.592A1.18,1.18,0,0,1,43.262,163.935Z" transform="translate(-38.382 -141.4)" fill="#fff"/>
      <path id="Path_12473" data-name="Path 12473" d="M100.624,163.43a.883.883,0,0,1-.859-1.152c.388-1.671.791-3.339,1.189-5.008.159-.668.315-1.336.482-2a.936.936,0,0,1,1.121-.8.925.925,0,0,1,.656,1.2q-.819,3.465-1.651,6.927C101.425,163.168,101.112,163.435,100.624,163.43Z" transform="translate(-88.375 -136.398)" fill="#fff"/>
      <path id="Path_12474" data-name="Path 12474" d="M107.2,276.48a.885.885,0,0,1-.894-.893.912.912,0,0,1,.934-.909.934.934,0,0,1,.9.905A.907.907,0,0,1,107.2,276.48Z" transform="translate(-94.195 -242.838)" fill="#fff"/>
      <path id="Path_12475" data-name="Path 12475" d="M206.826,35.324c-1.275,0-2.551.006-3.826,0a2.945,2.945,0,1,1,.012-5.89q3.8-.012,7.609,0a2.946,2.946,0,1,1-.012,5.891h-3.783Zm-.032-1.842v0c1.247,0,2.493.005,3.74,0a1.117,1.117,0,0,0,1.251-1.116,1.14,1.14,0,0,0-1.238-1.092q-3.74-.007-7.48,0a1.315,1.315,0,0,0-.507.07,1.109,1.109,0,0,0-.683,1.289,1.061,1.061,0,0,0,1.048.844C204.215,33.49,205.5,33.482,206.794,33.482Z" transform="translate(-177.149 -25.729)" fill="#fff"/>
      <path id="Path_12476" data-name="Path 12476" d="M116.746,32.438a2.9,2.9,0,0,1-2.955,2.925,2.945,2.945,0,1,1,.032-5.891A2.924,2.924,0,0,1,116.746,32.438Zm-2.932,1.083a1.1,1.1,0,0,0,.006-2.2,1.1,1.1,0,1,0-.006,2.2Z" transform="translate(-98.21 -25.77)" fill="#fff"/>
      <path id="Path_12477" data-name="Path 12477" d="M48,35.364a2.945,2.945,0,1,1,2.986-2.926A2.975,2.975,0,0,1,48,35.364Zm.01-1.842a1.093,1.093,0,0,0,1.132-1.092,1.109,1.109,0,0,0-1.118-1.111,1.128,1.128,0,0,0-1.139,1.1A1.1,1.1,0,0,0,48.014,33.523Z" transform="translate(-39.966 -25.771)" fill="#fff"/>
      <path id="Path_12478" data-name="Path 12478" d="M246.732,230.42a5.342,5.342,0,1,1,5.366-5.3A5.377,5.377,0,0,1,246.732,230.42Zm.011-1.842a3.452,3.452,0,0,0,3.508-3.46,3.509,3.509,0,1,0-3.508,3.46Z" transform="translate(-213.775 -194.2)" fill="#fff"/>
    </g>
  </g>
</svg>
