<svg xmlns="http://www.w3.org/2000/svg" width="151.841" height="117.843" viewBox="0 0 151.841 117.843">
  <g id="Group_28123" data-name="Group 28123" transform="translate(-1467.751 -327.42)">
    <rect id="Rectangle" width="151.841" height="95.094" rx="12" transform="translate(1467.751 350.168)" fill="#fff"/>
    <g id="Group_27430" data-name="Group 27430" transform="translate(1520.832 327.42)">
      <ellipse id="Ellipse_705" data-name="Ellipse 705" cx="23.065" cy="23.065" rx="23.065" ry="23.065" transform="translate(0)" fill="#f67712"/>
      <path id="Path_14624" data-name="Path 14624" d="M-250.975,133.25c.042-.518.079-.942.109-1.366.027-.387.044-.774.07-1.161a1.077,1.077,0,0,1,1.2-.994,1.093,1.093,0,0,1,.949,1.184c-.088,1.246-.162,2.493-.244,3.74-.04.6-.074,1.2-.13,1.8a1.076,1.076,0,0,1-1.1.942q-2.455.011-4.91,0a1.123,1.123,0,0,1-1.179-1.113,1.107,1.107,0,0,1,1.2-1.049c.84,0,1.68,0,2.52,0,.092,0,.22.05.267-.049s-.075-.165-.135-.234a12.443,12.443,0,0,0-7.951-4.345,12.686,12.686,0,0,0-14.238,10.42,12.752,12.752,0,0,0,10.187,14.718,12.73,12.73,0,0,0,14.691-9.541,13.048,13.048,0,0,0,.358-2.945,1.051,1.051,0,0,1,1.163-1.1,1.075,1.075,0,0,1,.991,1.18,14.99,14.99,0,0,1-.965,5.121,14.779,14.779,0,0,1-7.245,8.056,14.259,14.259,0,0,1-5.786,1.551,14.448,14.448,0,0,1-9.692-2.892,14.256,14.256,0,0,1-5.788-9.4,14.494,14.494,0,0,1,4.624-13.564,14.056,14.056,0,0,1,7.844-3.72A14.631,14.631,0,0,1-253,131.381,15.333,15.333,0,0,1-250.975,133.25Z" transform="translate(285.161 -120.06)" fill="#fff"/>
    </g>
    <text id="Featured_Course" data-name="Featured Course" transform="translate(1537.499 399.176)" font-size="12" font-family="Helvetica"><tspan x="-52.022" y="0">Become a full stack</tspan><tspan x="-52.365" y="19">developer at 0 cost.</tspan></text>
  </g>
</svg>
