<svg xmlns="http://www.w3.org/2000/svg" width="174.814" height="126.18" viewBox="0 0 174.814 126.18">
  <g id="Group_28124" data-name="Group 28124" transform="translate(-1564.862 -535.337)">
    <rect id="Rectangle" width="174.814" height="101.283" rx="12" transform="translate(1564.862 560.234)" fill="#fff"/>
    <g id="Group_27431" data-name="Group 27431" transform="translate(1626.961 535.337)">
      <ellipse id="Ellipse_706" data-name="Ellipse 706" cx="25.213" cy="25.213" rx="25.213" ry="25.213" transform="translate(0 0)" fill="#46ac3f"/>
      <g id="Group_27337" data-name="Group 27337" transform="translate(11.886 14.047)">
        <path id="Path_12540" data-name="Path 12540" d="M334.337,385.433H323.567a2.633,2.633,0,0,1-1.323-.268,2.1,2.1,0,0,1-1.125-1.961q0-5.687,0-11.374,0-1.175,0-2.351a2.157,2.157,0,0,1,2.33-2.345c1.557-.008,3.114,0,4.67,0,.427,0,.427,0,.428-.418,0-.445,0-.89,0-1.335a2.1,2.1,0,0,1,2.224-2.3c2.383-.028,4.766-.024,7.148,0a2.1,2.1,0,0,1,2.225,1.914c.027.518.006,1.038.01,1.557,0,.615-.082.589.575.589q2.24,0,4.48,0a2.164,2.164,0,0,1,2.372,2.368q0,6.847,0,13.694a2.109,2.109,0,0,1-1.619,2.158,3.548,3.548,0,0,1-.851.083Q339.723,385.432,334.337,385.433Zm.025-1.153c3.632,0,7.265-.013,10.9.01a1.082,1.082,0,0,0,1.2-1.21q-.007-5,0-10.008c0-.352-.009-.358-.334-.232q-4.6,1.789-9.206,3.575a.356.356,0,0,0-.266.4c.011.529.008,1.059,0,1.588a.555.555,0,0,1-.623.632q-1.684.009-3.368,0a.555.555,0,0,1-.622-.633c-.007-.508-.019-1.017,0-1.525a.45.45,0,0,0-.353-.506q-4.534-1.748-9.06-3.514c-.4-.154-.4-.154-.4.276q0,4.956,0,9.912c0,.882.352,1.235,1.229,1.235Zm-.015-16c-3.653,0-7.307.012-10.96-.01a1.067,1.067,0,0,0-1.154,1.162c.01.572.014,1.144,0,1.715a.415.415,0,0,0,.314.467q4.591,1.773,9.175,3.566c.241.094.361.087.323-.21a1.2,1.2,0,0,1,0-.159c0-.585.189-.772.785-.773.942,0,1.885.013,2.827,0,.736-.014,1.08.089,1,.968-.022.258.07.279.292.192q4.614-1.8,9.235-3.589a.383.383,0,0,0,.282-.426c-.013-.561-.012-1.123,0-1.683a1.085,1.085,0,0,0-1.218-1.226C341.612,368.3,337.979,368.285,334.347,368.285Zm-.033-1.153c1.45,0,2.9,0,4.349,0,.265,0,.386-.065.375-.356-.019-.507,0-1.016-.007-1.524A.963.963,0,0,0,338,364.22q-3.651-.007-7.3,0a.964.964,0,0,0-1.035,1.031c-.006.5.015,1-.008,1.492-.014.312.1.4.4.394C331.478,367.125,332.9,367.132,334.314,367.132Zm-1.154,9.4c0,.36.008.719,0,1.079-.006.21.056.31.286.306q.9-.016,1.808,0c.226,0,.292-.089.29-.3q-.012-1.079,0-2.157c0-.21-.056-.308-.286-.3q-.9.017-1.808,0c-.227,0-.3.086-.29.3C333.168,375.817,333.16,376.177,333.16,376.537Z" transform="translate(-321.116 -363.055)" fill="#fff"/>
      </g>
    </g>
    <text id="Featured_Course" data-name="Featured Course" transform="translate(1649.153 614.033)" font-size="15" font-family="Helvetica"><tspan x="-62.798" y="0">Courses in IT skills</tspan><tspan x="-38.76" y="21">&amp; Soft skills</tspan></text>
  </g>
</svg>
