<svg xmlns="http://www.w3.org/2000/svg" width="158.416" height="114.344" viewBox="0 0 158.416 114.344">
  <g id="Group_28122" data-name="Group 28122" transform="translate(-899.251 -470.828)">
    <rect id="Rectangle" width="158.416" height="91.782" rx="12" transform="translate(899.251 493.39)" fill="#fff"/>
    <g id="Group_27431" data-name="Group 27431" transform="translate(955.525 470.828)">
      <ellipse id="Ellipse_706" data-name="Ellipse 706" cx="22.848" cy="22.848" rx="22.848" ry="22.848" transform="translate(0)" fill="#ffbd5a"/>
      <g id="Group_27337" data-name="Group 27337" transform="translate(10.771 12.73)">
        <path id="Path_12540" data-name="Path 12540" d="M333.1,383.334h-9.76a2.386,2.386,0,0,1-1.2-.243,1.905,1.905,0,0,1-1.02-1.777q0-5.154,0-10.307,0-1.065,0-2.131a1.954,1.954,0,0,1,2.111-2.125c1.411-.008,2.821,0,4.232,0,.387,0,.387,0,.388-.379,0-.4,0-.806,0-1.209a1.9,1.9,0,0,1,2.015-2.088c2.159-.026,4.319-.021,6.478,0a1.906,1.906,0,0,1,2.016,1.734c.025.469.005.94.009,1.411,0,.557-.074.534.521.534q2.03,0,4.06,0A1.961,1.961,0,0,1,345.1,368.9q0,6.2,0,12.409a1.911,1.911,0,0,1-1.467,1.955,3.215,3.215,0,0,1-.771.075Q337.977,383.333,333.1,383.334Zm.022-1.045c3.292,0,6.583-.012,9.875.009a.98.98,0,0,0,1.09-1.1q-.006-4.535,0-9.069c0-.319-.009-.325-.3-.21q-4.171,1.621-8.343,3.239a.323.323,0,0,0-.241.362c.01.48.007.96,0,1.439a.5.5,0,0,1-.564.572q-1.526.008-3.052,0a.5.5,0,0,1-.564-.573c-.006-.461-.017-.922,0-1.382a.408.408,0,0,0-.32-.458q-4.108-1.584-8.21-3.185c-.359-.14-.36-.139-.361.25q0,4.491,0,8.983c0,.8.319,1.119,1.113,1.119Zm-.013-14.5c-3.311,0-6.622.011-9.932-.009a.967.967,0,0,0-1.045,1.053c.009.518.013,1.037,0,1.554a.376.376,0,0,0,.284.424q4.161,1.606,8.314,3.232c.219.085.327.079.292-.191a1.086,1.086,0,0,1,0-.144c0-.53.171-.7.711-.7.854,0,1.708.012,2.562,0,.667-.013.978.081.909.877-.02.234.064.253.265.174q4.182-1.634,8.368-3.253a.347.347,0,0,0,.255-.386c-.012-.508-.011-1.017,0-1.526a.983.983,0,0,0-1.1-1.111C339.689,367.808,336.4,367.794,333.106,367.794Zm-.03-1.045c1.314,0,2.628,0,3.941,0,.24,0,.35-.059.34-.322-.018-.46,0-.92-.006-1.381a.872.872,0,0,0-.932-.939q-3.309-.006-6.617,0a.873.873,0,0,0-.938.934c-.005.451.014.9-.007,1.352-.013.283.092.36.364.357C330.506,366.743,331.791,366.749,333.076,366.749Zm-1.046,8.523c0,.326.007.652,0,.978-.005.19.051.281.259.277q.819-.014,1.639,0c.2,0,.265-.08.263-.274q-.011-.977,0-1.955c0-.19-.051-.279-.259-.275q-.819.015-1.639,0c-.205,0-.268.078-.263.272C332.037,374.62,332.03,374.946,332.03,375.272Z" transform="translate(-321.116 -363.055)" fill="#fff"/>
      </g>
    </g>
    <text id="Featured_Course" data-name="Featured Course" transform="translate(972.732 541.549)" font-size="13" font-family="Helvetica"><tspan x="-54.425" y="0">Courses in IT skills</tspan><tspan x="-33.592" y="18">&amp; Soft skills</tspan></text>
  </g>
</svg>
