<svg xmlns="http://www.w3.org/2000/svg" width="124" height="124" viewBox="0 0 124 124">
  <g id="Group_28126" data-name="Group 28126" transform="translate(-491 -1592)">
    <circle id="Ellipse_736" data-name="Ellipse 736" cx="62" cy="62" r="62" transform="translate(491 1592)" fill="#f87914"/>
    <g id="Group_27599" data-name="Group 27599" transform="translate(791.865 1487.669)">
      <path id="Path_14624" data-name="Path 14624" d="M-210.021,141.031c.108-1.338.2-2.432.282-3.528.071-1,.113-2,.182-3a2.782,2.782,0,0,1,3.1-2.566A2.822,2.822,0,0,1-204,135c-.227,3.218-.418,6.438-.63,9.657-.1,1.554-.192,3.109-.336,4.66a2.779,2.779,0,0,1-2.84,2.432q-6.339.027-12.677-.012a2.9,2.9,0,0,1-3.045-2.874,2.857,2.857,0,0,1,3.1-2.708c2.169-.007,4.337,0,6.506-.008.236,0,.567.129.69-.126s-.194-.426-.347-.6A32.126,32.126,0,0,0-234.111,134.2a32.754,32.754,0,0,0-36.762,26.9,32.923,32.923,0,0,0,26.3,38,32.867,32.867,0,0,0,37.93-24.634,33.694,33.694,0,0,0,.924-7.6,2.714,2.714,0,0,1,3-2.831,2.776,2.776,0,0,1,2.558,3.046,38.7,38.7,0,0,1-2.493,13.22,38.158,38.158,0,0,1-18.706,20.8,36.816,36.816,0,0,1-14.94,4,37.3,37.3,0,0,1-25.025-7.466,36.806,36.806,0,0,1-14.945-24.257c-2.252-13.743,1.843-25.488,11.939-35.02a36.29,36.29,0,0,1,20.251-9.605,37.775,37.775,0,0,1,28.815,7.455A39.594,39.594,0,0,1-210.021,141.031Z" transform="translate(0)" fill="#fff"/>
      <path id="Path_14625" data-name="Path 14625" d="M-111.667,218.93c0,2.561.02,5.122-.012,7.683a1.523,1.523,0,0,0,.687,1.392c4.1,3.055,8.181,6.141,12.274,9.208A2.759,2.759,0,0,1-97.437,240a2.741,2.741,0,0,1-4.55,1.675c-3.954-2.928-7.875-5.9-11.809-8.856q-1.1-.826-2.2-1.658a2.712,2.712,0,0,1-1.133-2.3c.008-5.929,0-11.859.008-17.788A2.726,2.726,0,0,1-114.4,208.3a2.731,2.731,0,0,1,2.724,2.777C-111.657,213.7-111.668,216.313-111.667,218.93Z" transform="translate(-124.141 -62.15)" fill="#fff"/>
    </g>
  </g>
</svg>
