<svg xmlns="http://www.w3.org/2000/svg" width="78.164" height="78.164" viewBox="0 0 78.164 78.164">
  <g id="Group_28114" data-name="Group 28114" transform="translate(-192.802 -5531.771)">
    <rect id="Rectangle_717" data-name="Rectangle 717" width="78.164" height="78.164" rx="39.082" transform="translate(192.802 5531.771)" fill="#6a6391"/>
    <g id="Group_28080" data-name="Group 28080" transform="translate(209.965 5550.796)">
      <path id="Path_12459" data-name="Path 12459" d="M189.308,353.17q6.229,0,12.458,0a2.111,2.111,0,0,1,2.268,1.638,3.873,3.873,0,0,1,.078.779c.008,1.106,0,2.211,0,3.317,0,.64,0,.633.66.643a29,29,0,0,1,3.089.046,3.6,3.6,0,0,1,3.3,3.731c.013,1.993,0,3.986,0,5.979q0,7.812,0,15.625a3.669,3.669,0,0,1-2.731,3.745,4.789,4.789,0,0,1-1.207.136c-4.385,0-8.77.006-13.155-.013a.719.719,0,0,0-.805.588,5.6,5.6,0,0,0,.062,3.844.566.566,0,0,0,.647.428c.478-.027.958,0,1.437-.007.349,0,.6.121.641.5.03.313-.229.566-.63.579-.755.023-1.51.018-2.265.017q-4.813,0-9.626-.007a2.607,2.607,0,0,1-.562-.042.5.5,0,0,1-.423-.571.476.476,0,0,1,.523-.47c.523-.01,1.046-.024,1.568,0a.545.545,0,0,0,.613-.415,5.659,5.659,0,0,0-.017-4.092c-.12-.321-.336-.344-.614-.343q-3.594.007-7.187,0-3.049,0-6.1,0a3.683,3.683,0,0,1-3.921-3.941q0-10.692,0-21.385a3.7,3.7,0,0,1,3.931-3.935c.886,0,1.772-.012,2.657,0,.361.007.486-.129.482-.485-.014-1.135-.008-2.269,0-3.4a2.2,2.2,0,0,1,2.5-2.492Q183.144,353.169,189.308,353.17Zm-.034,30.376h20.17c.64,0,.641,0,.641-.647q0-9.581,0-19.162c0-.1,0-.2,0-.306a2.6,2.6,0,0,0-2.779-2.794c-.856-.016-1.713,0-2.57,0-.618,0-.62,0-.62.628q0,7.551,0,15.1c0,.946.011,1.892,0,2.837a2.127,2.127,0,0,1-2.074,2.248c-.187.018-.377.014-.566.014q-12.176,0-24.352,0a5.677,5.677,0,0,1-.953-.07,2,2,0,0,1-1.612-1.631,5.729,5.729,0,0,1-.067-.912q-.006-6.242,0-12.483c0-1.746-.009-3.492.007-5.238,0-.382-.122-.509-.5-.5-.885.023-1.771,0-2.657.009a2.719,2.719,0,0,0-2.268,1,3.078,3.078,0,0,0-.556,2.018q0,9.625,0,19.249c0,.647,0,.648.64.648Zm.016-3.213h12.237c.2,0,.407,0,.609-.016a.879.879,0,0,0,.824-.717,2.8,2.8,0,0,0,.068-.736q0-6.065,0-12.13c0-.624,0-.625-.62-.625-4.732,0-9.464.007-14.2-.012-.474,0-.635.146-.742.6a4.815,4.815,0,0,1-9.4-.19c-.068-.3-.178-.418-.485-.4-.464.02-.929,0-1.393.005-.566,0-.575.01-.575.6q0,5.519,0,11.039c0,.553,0,1.105.009,1.658a.853.853,0,0,0,.649.877,2.586,2.586,0,0,0,.691.053Q183.127,380.336,189.289,380.334Zm.051,4.3h-5.01q-7.667,0-15.334-.009c-.428,0-.522.149-.484.536a2.579,2.579,0,0,0,2.748,2.554q18.034,0,36.069,0a2.531,2.531,0,0,0,2.717-2.38c.095-.694.089-.7-.625-.7Zm-.041-24.618h-2.744c-3.47,0-6.941.006-10.411-.008-.392,0-.54.105-.534.513.019,1.353.013,2.706,0,4.059,0,.313.1.452.428.438.42-.019.842,0,1.263,0,.654,0,.654,0,.813-.641a4.813,4.813,0,0,1,9.395.224c.073.311.192.424.521.424q7.253-.015,14.506,0c.386,0,.5-.129.5-.505-.018-1.295-.005-2.589-.008-3.884,0-.59-.029-.615-.615-.615Zm.043-1.087H200.4c.74,0,1.48-.008,2.22,0,.3,0,.417-.1.409-.409-.015-.552.005-1.105-.007-1.658a10.862,10.862,0,0,0-.054-1.784.913.913,0,0,0-.732-.769,2.739,2.739,0,0,0-.692-.054H177.033c-.116,0-.233,0-.348,0a1,1,0,0,0-1.065,1.106c-.01.96,0,1.919,0,2.879,0,.68,0,.681.664.681Zm-.091,34.718c.9,0,1.8-.007,2.7,0,.28,0,.365-.075.268-.354a6.221,6.221,0,0,1-.008-4.1c.094-.282.047-.393-.272-.392q-2.632.013-5.264,0c-.315,0-.368.094-.274.386a6.36,6.36,0,0,1-.013,4.106c-.094.276-.034.361.255.357C187.511,393.643,188.382,393.65,189.252,393.65Zm-2.732-28.071a5.681,5.681,0,0,0-.084-.821,3.733,3.733,0,0,0-6.523-1.577,3.742,3.742,0,0,0-.317,4.321c.169.282.291.3.508.054a2.089,2.089,0,0,1,.563-.474c.358-.189.415-.356.183-.725a2.181,2.181,0,0,1,.266-2.593,2.238,2.238,0,0,1,3.554,2.7c-.159.253-.18.376.109.523a2.634,2.634,0,0,1,.774.629c.168.192.271.149.39-.05A3.643,3.643,0,0,0,186.52,365.579Zm-3.889,1.94a2.581,2.581,0,0,0-1.763.806c-.191.189-.2.328.056.467a3.694,3.694,0,0,0,3.737,0c.278-.151.255-.3.046-.5A2.83,2.83,0,0,0,182.631,367.519Zm1.319-2.265a1.135,1.135,0,0,0-1.126-1.147,1.111,1.111,0,0,0-1.175,1.129,1.172,1.172,0,0,0,1.116,1.172A1.186,1.186,0,0,0,183.951,365.253Z" transform="translate(-167.418 -353.17)" fill="#fff"/>
      <path id="Path_12460" data-name="Path 12460" d="M354.918,512.725c1.452,0,2.9,0,4.355,0a2.155,2.155,0,0,1,2.206,2.206c.01.814,0,1.629,0,2.444a2.268,2.268,0,0,1-2.528,2.536q-3.484.011-6.969,0a11.536,11.536,0,0,1-1.739-.051,2.17,2.17,0,0,1-1.879-2.129c-.015-.96-.017-1.92,0-2.88a2.15,2.15,0,0,1,2.152-2.124C351.985,512.719,353.452,512.725,354.918,512.725Zm0,1.094q-2.045,0-4.09,0c-1,0-1.374.373-1.377,1.357q0,1.09,0,2.18c0,1.078.39,1.473,1.465,1.475q2.763,0,5.526,0c.87,0,1.74.008,2.61,0a1.18,1.18,0,0,0,1.333-1.343q0-1.177,0-2.354c0-.91-.393-1.309-1.29-1.311C357.706,513.816,356.314,513.818,354.921,513.818Z" transform="translate(-327.294 -494.151)" fill="#fff"/>
      <path id="Path_12461" data-name="Path 12461" d="M364.32,485.756q2.243,0,4.487,0a2.016,2.016,0,0,1,.433.024.524.524,0,0,1,.079,1,1.119,1.119,0,0,1-.471.065q-4.509,0-9.018,0a1.552,1.552,0,0,1-.47-.061.48.48,0,0,1-.356-.535.5.5,0,0,1,.437-.476,2.38,2.38,0,0,1,.434-.019Z" transform="translate(-336.702 -470.323)" fill="#fff"/>
      <path id="Path_12462" data-name="Path 12462" d="M254.572,539.676h-3.783c-.116,0-.232,0-.348-.006-.347-.024-.651-.133-.667-.538s.28-.537.629-.57c.158-.015.318-.019.477-.019q3.739,0,7.479,0a3.62,3.62,0,0,1,.647.057.482.482,0,0,1,.414.491.487.487,0,0,1-.378.521,2.219,2.219,0,0,1-.558.061C257.181,539.678,255.876,539.676,254.572,539.676Z" transform="translate(-240.188 -516.964)" fill="#fff"/>
      <path id="Path_12463" data-name="Path 12463" d="M254.553,515.77h3.964a2.149,2.149,0,0,1,.391.018.494.494,0,0,1,.447.509.506.506,0,0,1-.422.534,1.866,1.866,0,0,1-.433.029q-3.942,0-7.884,0c-.63,0-.918-.18-.91-.56s.273-.531.884-.532Z" transform="translate(-240.127 -496.844)" fill="#fff"/>
      <path id="Path_12464" data-name="Path 12464" d="M254.553,562.739c-1.365,0-2.729,0-4.093,0-.37,0-.681-.072-.73-.5-.039-.342.247-.583.71-.584q4.093-.009,8.187,0a1.213,1.213,0,0,1,.217.016c.322.058.553.231.532.579s-.261.495-.6.494c-.639,0-1.277,0-1.916,0Z" transform="translate(-240.146 -537.383)" fill="#fff"/>
      <path id="Path_12465" data-name="Path 12465" d="M364.942,379.013c-.971,0-1.941,0-2.912,0-.461,0-.713-.185-.723-.51s.262-.571.727-.572c1.941-.006,3.882,0,5.824,0a1.038,1.038,0,0,1,.173.012c.32.054.553.207.534.567s-.24.505-.581.505Z" transform="translate(-338.738 -375.046)" fill="#fff"/>
      <path id="Path_12466" data-name="Path 12466" d="M287.857,372.382a1.57,1.57,0,0,1-.007-3.141,1.571,1.571,0,1,1,.007,3.141Zm-.016-2.022a.458.458,0,0,0,.03.916.416.416,0,0,0,.441-.473C288.312,370.5,288.141,370.363,287.841,370.36Z" transform="translate(-272.46 -367.37)" fill="#fff"/>
      <path id="Path_12467" data-name="Path 12467" d="M323.092,372.34a1.573,1.573,0,0,1-1.586-1.566,1.592,1.592,0,0,1,1.581-1.58,1.615,1.615,0,0,1,1.573,1.6A1.586,1.586,0,0,1,323.092,372.34Zm-.055-1.1c.31-.009.5-.154.506-.444a.415.415,0,0,0-.443-.475.43.43,0,0,0-.489.436A.44.44,0,0,0,323.037,371.241Z" transform="translate(-303.571 -367.329)" fill="#fff"/>
      <path id="Path_12468" data-name="Path 12468" d="M254.207,370.805a1.532,1.532,0,0,1-1.553,1.581,1.57,1.57,0,1,1,1.553-1.581Zm-1.571-.442a.413.413,0,0,0-.442.468.422.422,0,0,0,.469.45.417.417,0,0,0,.441-.474C253.1,370.5,252.929,370.37,252.636,370.363Z" transform="translate(-241.352 -367.375)" fill="#fff"/>
      <path id="Path_12469" data-name="Path 12469" d="M437.625,373.765a.523.523,0,0,1-.543-.515c-.018-.253-.107-.355-.366-.362a.522.522,0,0,1-.074-1.033c.276-.046.431-.137.463-.449a.456.456,0,0,1,.494-.4.47.47,0,0,1,.531.409.433.433,0,0,0,.424.438.482.482,0,0,1,.444.549.488.488,0,0,1-.51.489c-.245,0-.318.114-.335.343A.536.536,0,0,1,437.625,373.765Z" transform="translate(-404.934 -368.929)" fill="#fff"/>
    </g>
  </g>
</svg>
