<svg xmlns="http://www.w3.org/2000/svg" width="78.164" height="78.164" viewBox="0 0 78.164 78.164">
  <g id="Group_28116" data-name="Group 28116" transform="translate(-774.802 -5531.771)">
    <rect id="Rectangle_723" data-name="Rectangle 723" width="78.164" height="78.164" rx="39.082" transform="translate(774.802 5531.771)" fill="#46ac3f"/>
    <g id="Group_28081" data-name="Group 28081" transform="translate(786.775 5551.096)">
      <path id="Path_12479" data-name="Path 12479" d="M-11.858,390.486h19.3c1.06,0,1.308.252,1.308,1.327q0,12.59,0,25.179c0,1.076-.249,1.329-1.305,1.331-.559,0-1.12.025-1.678-.007-.465-.027-.611.14-.607.6.019,2.313.009,4.625.009,6.938,0,1.567,0,3.133,0,4.7,0,.889-.3,1.194-1.159,1.195-4.793,0-9.587-.005-14.38.011-.515,0-.681-.159-.665-.67.043-1.4-.148-1.2,1.178-1.206q6.239-.013,12.478.008c.541,0,.712-.154.691-.694-.046-1.156.111-1.027-1.014-1.028q-6.295-.006-12.59,0c-.73,0-.737,0-.732-.749.009-1.263-.139-1.106,1.09-1.119.653-.006,1.306-.015,1.958,0,.368.011.541-.09.538-.5q-.021-3.5,0-6.994c0-.413-.177-.5-.541-.5-2.089.011-4.178,0-6.267,0H-31.2c-1.067,0-1.316-.25-1.316-1.319q0-12.617,0-25.235c0-1.025.26-1.282,1.3-1.282Zm.02,7.242H-29.914c-.729,0-.73,0-.73.744,0,5.764.006,11.529-.011,17.293,0,.53.136.7.685.7q18.076-.022,36.153,0c.578,0,.716-.171.714-.729-.019-5.746-.012-11.491-.012-17.237,0-.771,0-.772-.758-.772Zm-.1-1.87H-1.359c2.556,0,5.111-.008,7.667.008.431,0,.605-.116.585-.57-.032-.707-.008-1.418-.008-2.126,0-.814,0-.814-.828-.814H-29.816a2.428,2.428,0,0,1-.28,0c-.406-.047-.571.112-.556.536.026.745.006,1.492.007,2.238,0,.729,0,.73.744.73ZM-.279,422.37c0-.95.013-1.9,0-2.849-.023-1.357.287-1.182-1.277-1.2-.308,0-.44.116-.434.428.01.465.018.932-.01,1.4a.886.886,0,0,1-.919.858.9.9,0,0,1-.928-.851c-.02-.222-.006-.447-.01-.67-.026-1.313.229-1.136-1.206-1.165-.4-.008-.514.145-.512.525q.018,3.464,0,6.928c0,.423.15.545.555.54,1.4-.018,2.794-.023,4.19,0,.46.009.571-.168.563-.591C-.293,424.6-.279,423.487-.279,422.37Zm1.87-.056c0,.97-.007,1.94,0,2.91.011,1.221-.174,1.05,1.12,1.089.475.014.6-.158.6-.613-.019-2.07,0-4.141-.012-6.212-.008-1.319.233-1.14-1.2-1.17-.4-.008-.518.145-.512.526C1.6,420,1.591,421.157,1.591,422.313Z" transform="translate(45.048 -390.486)" fill="#fff"/>
      <path id="Path_12480" data-name="Path 12480" d="M-100.334,538.908c-3.935,0-7.87.013-11.8,0a4.461,4.461,0,0,1-4.36-4.37c.007-.729.326-1.064,1.054-1.072.932-.01,1.866-.028,2.8.007.5.018.635-.147.634-.636-.016-5-.01-10-.009-14.993,0-1.177.22-1.393,1.408-1.394,1.454,0,2.909.013,4.363-.007.437-.006.592.14.581.58-.037,1.531.172,1.273-1.256,1.294q-1.37.02-2.741,0c-.362-.006-.491.126-.491.489q.011,7.077,0,14.154c0,.4.148.511.527.511q9.287-.012,18.573,0c.431,0,.536-.166.533-.563-.015-1.678.007-3.357-.014-5.035-.006-.484.1-.706.647-.688,1.429.05,1.217-.156,1.228,1.214.012,1.492.019,2.984-.007,4.475-.008.475.161.611.615.6.932-.027,1.865-.014,2.8-.005.757.007,1.072.342,1.072,1.11A4.458,4.458,0,0,1-88.53,538.9C-92.465,538.922-96.4,538.908-100.334,538.908Zm-.008-1.868q5.621,0,11.243,0a2.817,2.817,0,0,0,2.536-1.145c.1-.145.3-.3.177-.488-.1-.152-.311-.075-.473-.075-3.281,0-6.563,0-9.844-.01a1.066,1.066,0,0,0-.931.389,1.388,1.388,0,0,1-1.228.522c-.95-.029-1.9-.033-2.852,0a1.523,1.523,0,0,1-1.379-.564.951.951,0,0,0-.835-.346c-3.3.009-6.6,0-9.9.008-.161,0-.376-.079-.471.077-.117.191.08.344.18.488a2.825,2.825,0,0,0,2.537,1.142Q-105.964,537.044-100.342,537.041Z" transform="translate(116.498 -497.642)" fill="#fff"/>
      <path id="Path_12481" data-name="Path 12481" d="M153.793,461.7c-.019.06-.06.2-.107.344-1.064,3.2-2.138,6.391-3.184,9.594-.159.486-.349.594-.837.419-1.19-.425-1.2-.4-.794-1.611,1-3,2.008-6,2.989-9.011.162-.5.365-.689.872-.439a7.211,7.211,0,0,0,.792.27C153.686,461.321,153.848,461.387,153.793,461.7Z" transform="translate(-109.064 -450.379)" fill="#fff"/>
      <path id="Path_12482" data-name="Path 12482" d="M32.822,510.442c1.6,0,3.206.013,4.808-.008.458-.006.624.14.612.606-.038,1.488.161,1.262-1.225,1.267-2.963.012-5.926-.01-8.889.015-.56,0-.751-.15-.728-.722.052-1.329-.139-1.147,1.173-1.157C29.99,510.434,31.406,510.442,32.822,510.442Z" transform="translate(-5.923 -492.533)" fill="#fff"/>
      <path id="Path_12483" data-name="Path 12483" d="M117.527,480.187a.947.947,0,0,1,.328-.76c.778-.778,1.563-1.547,2.327-2.338.265-.275.438-.218.687.021,1.012.971,1.018.964.033,1.949-.264.264-.515.54-.794.787-.253.225-.26.4-.007.635.489.459.945.953,1.431,1.416.239.228.248.392.014.646-.987,1.068-.979,1.075-1.988.067l-1.66-1.661A.971.971,0,0,1,117.527,480.187Z" transform="translate(-82.6 -464.008)" fill="#fff"/>
      <path id="Path_12484" data-name="Path 12484" d="M190.58,480.065a.973.973,0,0,1-.353.776c-.765.764-1.536,1.522-2.288,2.3-.251.259-.421.26-.687.007-1.028-.981-1.032-.968-.024-1.99.338-.343.92-.635.934-1.057.016-.467-.623-.726-.939-1.11-.012-.014-.026-.026-.039-.04-.983-.983-.953-1.244.2-2.063a.316.316,0,0,1,.48.059q1.242,1.249,2.483,2.5A.815.815,0,0,1,190.58,480.065Z" transform="translate(-141.261 -463.919)" fill="#fff"/>
      <path id="Path_12485" data-name="Path 12485" d="M30.647,452.309c-.894,0-1.788-.009-2.682,0-.356.006-.5-.128-.495-.49.024-1.675-.189-1.358,1.331-1.379,1.471-.02,2.943.01,4.414-.012.458-.007.623.141.611.606-.038,1.487.161,1.248-1.224,1.269-.652.01-1.3,0-1.956,0Z" transform="translate(-5.984 -441.487)" fill="#fff"/>
      <path id="Path_12486" data-name="Path 12486" d="M66.142,482.319c-.726,0-1.453-.01-2.179,0-.358.007-.5-.131-.493-.491.025-1.673-.19-1.354,1.332-1.377,1.192-.019,2.384.009,3.575-.009.409-.006.56.138.551.55-.032,1.576.175,1.3-1.279,1.324-.5.01-1.006,0-1.509,0Z" transform="translate(-36.612 -467.019)" fill="#fff"/>
      <path id="Path_12487" data-name="Path 12487" d="M66.238,540.469c.726,0,1.453.01,2.179,0,.358-.007.5.131.493.491-.025,1.673.189,1.354-1.331,1.378-1.192.019-2.384-.008-3.575.009-.409.006-.56-.137-.552-.549.032-1.577-.175-1.3,1.278-1.324.5-.01,1.006,0,1.508,0Z" transform="translate(-36.595 -518.082)" fill="#fff"/>
      <path id="Path_12488" data-name="Path 12488" d="M29.089,480.251c.186,0,.373-.013.558,0,.382.031.9-.184,1.114.125.278.406.1.972.089,1.47,0,.258-.218.267-.408.268-.931,0-1.861,0-2.792,0-.3,0-.42-.116-.444-.425-.114-1.445-.122-1.445,1.324-1.445Z" transform="translate(-5.721 -466.82)" fill="#fff"/>
      <path id="Path_12489" data-name="Path 12489" d="M29.25,542.315c-.447,0-.893-.007-1.34,0-.305.007-.436-.125-.434-.432.014-1.77-.194-1.4,1.327-1.435.614-.015,1.229.01,1.842-.005.358-.009.5.131.493.491-.024,1.673.189,1.343-1.33,1.381-.186,0-.372,0-.558,0Z" transform="translate(-5.987 -518.063)" fill="#fff"/>
      <path id="Path_12490" data-name="Path 12490" d="M-7.5,452.37H-7.56c-1.443,0-1.438,0-1.3-1.467.027-.279.129-.4.409-.4q.976.009,1.953,0c.282,0,.414.123.4.4,0,.018,0,.037,0,.056C-6.113,452.692-5.875,452.325-7.5,452.37Z" transform="translate(24.973 -441.546)" fill="#fff"/>
      <path id="Path_12491" data-name="Path 12491" d="M82.476,452.383H82.42c-1.435,0-1.5-.078-1.323-1.5.031-.251.128-.37.38-.369.67,0,1.339,0,2.009,0a.209.209,0,0,1,.11.012c.546.388.165.948.255,1.422.057.3-.123.437-.426.428s-.632,0-.949,0Z" transform="translate(-51.549 -441.559)" fill="#fff"/>
      <path id="Path_12492" data-name="Path 12492" d="M-7.523,482.368h-.056c-1.41,0-1.437-.039-1.288-1.478.03-.286.149-.392.42-.389.651.005,1.3,0,1.953,0,.147,0,.332,0,.356.19a5,5,0,0,1-.009,1.5c-.032.184-.227.166-.371.169-.335.007-.67,0-1,0Z" transform="translate(24.981 -467.067)" fill="#fff"/>
      <path id="Path_12493" data-name="Path 12493" d="M-7.363,512.377h-.112c-1.445,0-1.44,0-1.32-1.445.022-.263.092-.424.386-.421.67.005,1.339,0,2.009,0a.205.205,0,0,1,.11.013c.54.392.161.951.251,1.426.057.305-.131.432-.431.423s-.6,0-.893,0Z" transform="translate(24.909 -492.598)" fill="#fff"/>
      <path id="Path_12494" data-name="Path 12494" d="M-7.328,540.486h.112c1.293,0,1.51.275,1.253,1.561-.04.2-.132.3-.327.3-.707,0-1.414,0-2.12,0a.1.1,0,0,1-.055-.007c-.534-.4-.157-.955-.245-1.431-.058-.309.138-.428.435-.419.316.009.632,0,.949,0Z" transform="translate(24.838 -518.1)" fill="#fff"/>
      <path id="Path_12495" data-name="Path 12495" d="M-13.569,410.381a.905.905,0,0,1-.912-.974.9.9,0,0,1,.946-.884.906.906,0,0,1,.913.973A.906.906,0,0,1-13.569,410.381Z" transform="translate(29.707 -405.831)" fill="#fff"/>
      <path id="Path_12496" data-name="Path 12496" d="M5.381,409.464a.907.907,0,0,1-.974.912.93.93,0,0,1,.09-1.858A.9.9,0,0,1,5.381,409.464Z" transform="translate(14.389 -405.826)" fill="#fff"/>
      <path id="Path_12497" data-name="Path 12497" d="M23.381,409.433a.929.929,0,1,1-.919-.911A.906.906,0,0,1,23.381,409.433Z" transform="translate(-0.925 -405.83)" fill="#fff"/>
    </g>
  </g>
</svg>
