<svg xmlns="http://www.w3.org/2000/svg" width="78.164" height="78.164" viewBox="0 0 78.164 78.164">
  <g id="Group_28118" data-name="Group 28118" transform="translate(-1356.802 -5531.77)">
    <rect id="Rectangle_722" data-name="Rectangle 722" width="78.164" height="78.164" rx="39.082" transform="translate(1356.802 5531.77)" fill="#f87914"/>
    <g id="_0ec734d102968507e7eeb9e3f91cb1db" data-name="0ec734d102968507e7eeb9e3f91cb1db" transform="translate(1375.245 5550.213)">
      <path id="Path_14763" data-name="Path 14763" d="M39.474,1H3.8A2.808,2.808,0,0,0,1,3.8v35.67a2.808,2.808,0,0,0,2.8,2.8h35.67a2.808,2.808,0,0,0,2.8-2.8V3.8A2.808,2.808,0,0,0,39.474,1Zm0,40.418H3.8A1.946,1.946,0,0,1,1.86,39.474V9.287H4.7v-.86H1.86V3.8A1.946,1.946,0,0,1,3.8,1.86h35.67A1.946,1.946,0,0,1,41.418,3.8V8.427H7.127v.86H41.418V39.474A1.946,1.946,0,0,1,39.474,41.419Z" transform="translate(-1 -1)" fill="#fff"/>
      <rect id="Rectangle_434" data-name="Rectangle 434" width="0.86" height="2.348" transform="translate(2.58 26.545)" fill="#fff"/>
      <path id="Path_14764" data-name="Path 14764" d="M7.86,77.885v-5.16H7v5.16a2.7,2.7,0,0,0,2.7,2.7h2.556v-.86H9.7A1.84,1.84,0,0,1,7.86,77.885Z" transform="translate(-4.42 -41.884)" fill="#fff"/>
      <rect id="Rectangle_435" data-name="Rectangle 435" width="2.292" height="0.86" transform="translate(9.067 37.838)" fill="#fff"/>
      <path id="Path_14765" data-name="Path 14765" d="M48.6,10.006a1.935,1.935,0,1,0-1.935-1.935A1.937,1.937,0,0,0,48.6,10.006ZM48.6,7a1.075,1.075,0,1,1-1.075,1.075A1.076,1.076,0,0,1,48.6,7Zm-4.821,3.01a1.935,1.935,0,1,0-1.935-1.935A1.937,1.937,0,0,0,43.781,10.006Zm0-3.01a1.075,1.075,0,1,1-1.075,1.075A1.076,1.076,0,0,1,43.781,7Zm-4.821,3.01a1.935,1.935,0,1,0-1.935-1.935A1.937,1.937,0,0,0,38.96,10.006Zm0-3.01a1.075,1.075,0,1,1-1.075,1.075A1.076,1.076,0,0,1,38.96,7ZM36.029,37.263l-.248.075-.6,3.081H31.154l-.6-3.081-.248-.075a9.607,9.607,0,0,1-1.777-.739L28.3,36.4,25.7,38.16l-2.85-2.85,1.76-2.606-.124-.229a9.643,9.643,0,0,1-.739-1.777l-.075-.248-3.081-.6V25.823l3.081-.6.075-.248a9.823,9.823,0,0,1,.737-1.778l.122-.228-1.756-2.605,2.85-2.85,2.6,1.756.229-.124a9.62,9.62,0,0,1,1.78-.739l.248-.075.6-3.078h4.029l.6,3.078.248.075a9.634,9.634,0,0,1,1.78.739l.229.124,2.6-1.756,2.85,2.85-1.756,2.6.124.229a9.631,9.631,0,0,1,.739,1.78l.075.248,3.078.6v4.029l-3.078.6L42.6,30.7a9.818,9.818,0,0,1-.74,1.781l.758.406a10.748,10.748,0,0,0,.726-1.689l3.269-.636V25.114l-3.269-.636a10.5,10.5,0,0,0-.605-1.458L44.6,20.258l-3.852-3.852-2.763,1.864a10.5,10.5,0,0,0-1.458-.605l-.636-3.269H30.445l-.636,3.269a10.478,10.478,0,0,0-1.458.605l-2.763-1.864-3.853,3.852L23.6,23.024a10.685,10.685,0,0,0-.6,1.454l-3.272.636V30.56L23,31.2a10.491,10.491,0,0,0,.605,1.455l-1.867,2.766,3.853,3.852L28.354,37.4a10.465,10.465,0,0,0,1.455.605l.636,3.272h5.446l.636-3.272a10.677,10.677,0,0,0,1.686-.723l-.406-.758A9.808,9.808,0,0,1,36.029,37.263Z" transform="translate(-11.674 -3.928)" fill="#fff"/>
      <path id="Path_14766" data-name="Path 14766" d="M47.518,48.789a8.463,8.463,0,1,0-4.008,4.188l-.381-.771a7.53,7.53,0,0,1-3.364.782,7.6,7.6,0,1,1,6.966-4.546Z" transform="translate(-18.271 -21.473)" fill="#fff"/>
      <path id="Path_14767" data-name="Path 14767" d="M48.893,51.167a5.193,5.193,0,0,0-4.922-6.84,9.367,9.367,0,0,0-1.744.233l2.666,2.666-.1,3.134-3.133.094L39,47.786a5.521,5.521,0,0,0,1.29,5.418,5.181,5.181,0,0,0,5.321,1.255l8.067,8.066a2.325,2.325,0,1,0,3.288-3.288Zm-8,1.429a4.337,4.337,0,0,1-1.269-2.966l1.693,1.694,4.313-.13.131-4.315-1.692-1.692a4.3,4.3,0,0,1,2.962,1.269A4.341,4.341,0,1,1,40.895,52.6Zm15.46,9.321a1.5,1.5,0,0,1-2.072,0l-7.826-7.825a5.167,5.167,0,0,0,2.07-2.075l7.828,7.828A1.467,1.467,0,0,1,56.355,61.917Z" transform="translate(-22.528 -25.697)" fill="#fff"/>
      <circle id="Ellipse_749" data-name="Ellipse 749" cx="0.747" cy="0.747" r="0.747" transform="translate(31.835 34.228)" fill="#fff"/>
      <rect id="Rectangle_436" data-name="Rectangle 436" width="3.752" height="0.86" transform="matrix(-0.707, -0.707, 0.707, -0.707, 29.696, 32.684)" fill="#fff"/>
      <rect id="Rectangle_437" data-name="Rectangle 437" width="0.86" height="0.728" transform="matrix(0.707, -0.707, 0.707, 0.707, 25.992, 28.98)" fill="#fff"/>
      <rect id="Rectangle_438" data-name="Rectangle 438" width="0.86" height="12.292" transform="translate(37.412 18.033)" fill="#fff"/>
      <rect id="Rectangle_439" data-name="Rectangle 439" width="0.86" height="1.521" transform="translate(37.412 14.576)" fill="#fff"/>
      <rect id="Rectangle_440" data-name="Rectangle 440" width="2.448" height="0.86" transform="translate(16.205 3.713)" fill="#fff"/>
      <rect id="Rectangle_441" data-name="Rectangle 441" width="10.89" height="0.86" transform="translate(3.695 3.713)" fill="#fff"/>
    </g>
  </g>
</svg>
