<svg xmlns="http://www.w3.org/2000/svg" width="124" height="124" viewBox="0 0 124 124">
  <g id="Group_28128" data-name="Group 28128" transform="translate(-1270 -1305)">
    <g id="Group_27602" data-name="Group 27602" transform="translate(62 -275)">
      <circle id="Ellipse_735" data-name="Ellipse 735" cx="62" cy="62" r="62" transform="translate(1208 1580)" fill="#46ac3f"/>
      <g id="Group_27601" data-name="Group 27601" transform="translate(1120.251 1301.25)">
        <path id="Path_14626" data-name="Path 14626" d="M169.816,300.75a23.4,23.4,0,0,1,8.333,2.636c6.865,3.875,11,9.681,11.995,17.542a22.872,22.872,0,0,1-19.507,25.625c-9.324,1.264-16.819-2.211-22.368-9.834-.642-.883-.6-.985-1.326-.062a7.182,7.182,0,0,1-2.728,1.946,1.834,1.834,0,0,0-.7,2.19c.142.255.391.225.617.262,1.884.306,3.769.606,5.652.921a7.543,7.543,0,0,1,5.449,3.618,1.317,1.317,0,0,0,1.188.7c1.59.11,3.185.167,4.768.4a3.524,3.524,0,0,1,3.17,3.6q.021,6.261-.006,12.522a1.217,1.217,0,0,0,.679,1.26,2.639,2.639,0,0,1,1.366,2.417c.027,1.68.02,3.36,0,5.04a2.747,2.747,0,0,1-1.5,2.5.933.933,0,0,0-.545.927c-.054,3.125-.872,3.8-3.936,3.332a38.582,38.582,0,0,0-21.356,2.761c-.239.1-.462.243-.692.366h-1.258c-.279-.142-.55-.3-.837-.422a38.547,38.547,0,0,0-20.088-2.858c-.88.11-1.757.286-2.64.32a2.3,2.3,0,0,1-2.428-2.33c-.015-.524-.008-1.048-.005-1.572a.768.768,0,0,0-.269-.7,4.178,4.178,0,0,1-1.094-1.418v-6.775a2.744,2.744,0,0,1,.806-1.239,1.451,1.451,0,0,0,.566-1.363q-.023-6.42,0-12.839a3.463,3.463,0,0,1,3.139-3.525c1.609-.235,3.229-.313,4.847-.409a1.317,1.317,0,0,0,1.185-.706,7.544,7.544,0,0,1,5.378-3.6c1.908-.324,3.821-.622,5.731-.931.2-.033.422-.02.555-.23a1.891,1.891,0,0,0-.592-2.169c-3.531-1.566-4.912-4.46-4.973-8.134-.044-2.651-.007-5.3-.011-7.956a1.573,1.573,0,0,0-.119-.924c-.979-1.453-.7-3.052-.4-4.577.868-4.418,4.406-7.229,9.231-7.31,4.375-.073,8.752-.028,13.128,0a1.335,1.335,0,0,0,1.2-.526,22.849,22.849,0,0,1,8.08-6.375,26.086,26.086,0,0,1,7.287-2.1Zm-40.843,26.632h0c0,1.234-.052,2.471.011,3.7a5.543,5.543,0,0,0,3.253,5.162q1.922.9,3.82,1.851a3.566,3.566,0,0,0,3.39-.012c1.217-.613,2.44-1.215,3.679-1.782a5.629,5.629,0,0,0,3.362-5.416c.044-1.469,0-2.941.015-4.411.011-.939.491-1.494,1.251-1.506.8-.012,1.337.551,1.325,1.52a42.926,42.926,0,0,1-.121,5.583,2.033,2.033,0,0,0,.238,1.287,20.484,20.484,0,1,0,2.506-22.954c-.908,1.021-1.364,1.974-.694,3.27a2.8,2.8,0,0,1,.226.913c.386,2.95-.312,5.551-3.156,7.323a12.352,12.352,0,0,1-5.816,1.727,15.848,15.848,0,0,1-8.666-2.094.97.97,0,0,0-1.263.1,4.186,4.186,0,0,1-2.658,1.042c-.561.008-.722.232-.713.758C128.989,324.756,128.973,326.069,128.973,327.382Zm7.463,41.665q0-2.836,0-5.671c0-1-.02-2,.015-2.993a1.233,1.233,0,0,1,1.154-1.269,1.189,1.189,0,0,1,1.336.964,4.009,4.009,0,0,1,.084,1.014q.007,8.073,0,16.146c0,1.036,0,1.03.994.657a42.332,42.332,0,0,1,13.895-2.644,41.221,41.221,0,0,1,7.115.527c.231.034.47.137.654-.093a1.467,1.467,0,0,0-.343-1.607,2.987,2.987,0,0,1-1.606-2.781q-.043-2.323,0-4.647a2.88,2.88,0,0,1,1.534-2.659.983.983,0,0,0,.5-1.044q-.008-6.183-.005-12.366c0-1-.305-1.3-1.278-1.413a44.15,44.15,0,0,0-20.841,2.5.833.833,0,0,0-.63.931c.025.839.037,1.682-.022,2.519a1.266,1.266,0,0,1-1.315,1.285,1.287,1.287,0,0,1-1.237-1.364,19.1,19.1,0,0,1,0-2.2,1.074,1.074,0,0,0-.849-1.259,44.179,44.179,0,0,0-20.781-2.392c-.876.106-1.132.416-1.133,1.38-.007,4.069,0,8.139-.011,12.208a.929.929,0,0,0,.716,1.033,2.657,2.657,0,0,1,1.856,2.72c.008,1.523-.042,3.047.015,4.568a2.913,2.913,0,0,1-2.1,3.2c-.66.224-.5.735-.449,1.171.063.535.474.328.8.287a46.52,46.52,0,0,1,8.605-.418,43.224,43.224,0,0,1,12.473,2.62c.818.3.839.291.84-.563Q136.441,373.221,136.436,369.047Zm4.414-56.743c-2.042,0-4.084-.014-6.125,0a6.611,6.611,0,0,0-6.535,7.132c.033.47.229.632.668.676a2.538,2.538,0,0,0,2.5-1.14c.657-.926,1.227-1.018,2.2-.41a18.577,18.577,0,0,0,2.992,1.554,11.926,11.926,0,0,0,9.392.031,4.261,4.261,0,0,0,2.826-3.567,7.578,7.578,0,0,0-.657-3.585.954.954,0,0,0-1.056-.7C144.987,312.32,142.919,312.3,140.851,312.3Zm11.732,34.044a4.306,4.306,0,0,0-2.611-1.71c-2.029-.384-4.078-.663-6.115-1.009-.458-.078-.628.092-.8.5a5.723,5.723,0,0,1-10.654-.034c-.177-.419-.357-.549-.81-.47-1.958.342-3.927.619-5.882.975a4.4,4.4,0,0,0-2.724,1.658c.09.073.108.1.128.1a46.629,46.629,0,0,1,14.2,3.158,1.177,1.177,0,0,0,.912-.031A46.721,46.721,0,0,1,152.583,346.347Zm-11.71-4.622c0-.157,0-.314,0-.472-.007-.934-.009-.938-.911-.6a6.062,6.062,0,0,1-3.766.236c-.5-.129-1.07-.745-1.481-.319-.361.374-.1,1.1-.107,1.675,0,.052.006.1.01.157a3.071,3.071,0,0,0,2.749,2.764A3.131,3.131,0,0,0,140.872,341.725ZM113.779,369c0-.707-.006-1.414,0-2.121.006-.559-.3-.706-.8-.706s-.816.129-.814.694c0,1.414.009,2.828,0,4.242-.005.574.321.7.806.7s.827-.109.817-.69C113.771,370.41,113.78,369.7,113.779,369Zm48.541-.056c0,.733.01,1.466,0,2.2-.01.533.293.661.75.667s.755-.111.751-.651q-.02-2.159,0-4.319c0-.525-.272-.668-.744-.664-.456,0-.766.105-.755.648C162.331,367.526,162.32,368.233,162.32,368.94Z" fill="#fff"/>
        <path id="Path_14627" data-name="Path 14627" d="M348.645,359.341a1.226,1.226,0,0,1-.874,1.167q-5.259,1.965-10.524,3.914c-.717.266-1.2-.135-1.662-.591q-2.452-2.442-4.9-4.892-2.808-2.808-5.613-5.62a3.4,3.4,0,0,1-.589-.728,1.14,1.14,0,0,1,.237-1.44,1.124,1.124,0,0,1,1.436-.235,4.231,4.231,0,0,1,.84.7c3.174,3.165,6.354,6.325,9.5,9.518a1.192,1.192,0,0,0,1.5.318c2.906-1.122,5.828-2.2,8.749-3.283A1.291,1.291,0,0,1,348.645,359.341Z" transform="translate(-169.504 -39.499)" fill="#fff"/>
        <path id="Path_14628" data-name="Path 14628" d="M433.438,458.747a1.353,1.353,0,0,1-1.264,1.345,1.391,1.391,0,0,1-1.4-1.306,1.431,1.431,0,0,1,1.357-1.36A1.391,1.391,0,0,1,433.438,458.747Z" transform="translate(-253.592 -123.764)" fill="#fff"/>
        <path id="Path_14629" data-name="Path 14629" d="M380.127,329.669a1.248,1.248,0,0,1-1.255,1.325,1.3,1.3,0,0,1-1.349-1.249,1.333,1.333,0,0,1,1.307-1.386A1.305,1.305,0,0,1,380.127,329.669Z" transform="translate(-211.523 -21.81)" fill="#fff"/>
        <path id="Path_14630" data-name="Path 14630" d="M303.3,404.058a1.28,1.28,0,0,1,1.28,1.291,1.223,1.223,0,0,1-1.306,1.319,1.293,1.293,0,0,1-1.308-1.27A1.333,1.333,0,0,1,303.3,404.058Z" transform="translate(-151.84 -81.606)" fill="#fff"/>
        <path id="Path_14631" data-name="Path 14631" d="M432.064,353.351A1.374,1.374,0,0,1,430.785,352a1.33,1.33,0,0,1,2.657.019A1.372,1.372,0,0,1,432.064,353.351Z" transform="translate(-253.596 -39.491)" fill="#fff"/>
        <path id="Path_14632" data-name="Path 14632" d="M378.839,482.385a1.3,1.3,0,0,1-1.3-1.295,1.282,1.282,0,0,1,1.352-1.315,1.255,1.255,0,0,1,1.252,1.326A1.269,1.269,0,0,1,378.839,482.385Z" transform="translate(-211.531 -141.417)" fill="#fff"/>
        <path id="Path_14633" data-name="Path 14633" d="M455.7,405.373a1.279,1.279,0,0,1-1.283,1.3,1.248,1.248,0,0,1-1.32-1.329,1.281,1.281,0,0,1,1.307-1.278A1.311,1.311,0,0,1,455.7,405.373Z" transform="translate(-271.223 -81.614)" fill="#fff"/>
        <path id="Path_14634" data-name="Path 14634" d="M325.645,457.989a1.212,1.212,0,0,1,1.271,1.2,1.261,1.261,0,0,1-2.521.021A1.217,1.217,0,0,1,325.645,457.989Z" transform="translate(-169.555 -124.208)" fill="#fff"/>
      </g>
    </g>
  </g>
</svg>
