<svg xmlns="http://www.w3.org/2000/svg" width="123.865" height="123.865" viewBox="0 0 123.865 123.865">
  <g id="Group_28127" data-name="Group 28127" transform="translate(-623 -1302)">
    <g id="Group_27604" data-name="Group 27604" transform="translate(-95 -290)">
      <path id="Path_14623" data-name="Path 14623" d="M61.933,0A61.933,61.933,0,1,1,0,61.933,61.933,61.933,0,0,1,61.933,0Z" transform="translate(718 1592)" fill="#7680e7"/>
      <g id="Group_27603" data-name="Group 27603" transform="translate(310.085 1775.19)">
        <path id="Path_14635" data-name="Path 14635" d="M500.655-87.372H439.041A4.309,4.309,0,0,1,436-90.407v-56.215c.93-2.342,2.028-3.083,4.562-3.086,1.665,0,1.448.139,1.474-1.429a4,4,0,0,1,5.024-3.729,3.965,3.965,0,0,1,3.006,4.191c0,.965,0,.967.942.967q2.71,0,5.421,0c1.666,0,1.448.139,1.474-1.429a4,4,0,0,1,5.024-3.729,3.965,3.965,0,0,1,3.006,4.191c0,.965,0,.967.942.968q2.71,0,5.42,0c1.666,0,1.449.139,1.475-1.429a4,4,0,0,1,5.023-3.729,3.965,3.965,0,0,1,3.006,4.191c0,.965,0,.967.942.968q2.743,0,5.487,0c1.559,0,1.392.125,1.407-1.363a3.946,3.946,0,0,1,2.5-3.638,4.052,4.052,0,0,1,4.439.956,4.073,4.073,0,0,1,1.1,3.077c-.032.964,0,.957.934.971a9.176,9.176,0,0,1,1.977.07,4.125,4.125,0,0,1,3.114,3.012v56.215A4.309,4.309,0,0,1,500.655-87.372ZM469.849-135.62H439.708c-1.012,0-1.013,0-1.013,1.028q0,21.177,0,42.354c0,.2-.006.4.005.594a1.447,1.447,0,0,0,1.567,1.576c.219.014.441.006.661.006h57.837a7.468,7.468,0,0,0,.793-.014,1.394,1.394,0,0,0,1.43-1.433,6.9,6.9,0,0,0,.013-.725q0-21.177,0-42.353c0-1.03,0-1.031-1.01-1.031Zm-.028-2.739h30.011c.2,0,.4-.007.595,0,.379.013.574-.146.573-.543-.005-2.177.02-4.355-.015-6.531a1.346,1.346,0,0,0-1.473-1.513c-2.2-.043-4.407-.016-6.61-.019-.271,0-.5.082-.513.389-.075,1.421.01,2.378,1.515,2.574a1.293,1.293,0,0,1,1.1,1.547,1.343,1.343,0,0,1-1.385,1.158,3.979,3.979,0,0,1-3.782-2.678,5.709,5.709,0,0,1-.205-1.954c0-1.037,0-1.037-1-1.038h-4.3c-2.358,0-4.716.01-7.073-.007-.519,0-.756.138-.759.706-.008,1.571.143,1.811,1.649,2.272a1.379,1.379,0,0,1,.992,1.52,1.33,1.33,0,0,1-1.3,1.176,3.714,3.714,0,0,1-2.573-.853,4.334,4.334,0,0,1-1.512-3.951c.045-.839-.01-.86-.84-.861q-4.66,0-9.321,0c-.793,0-1.586,0-2.38,0-.292,0-.544.063-.56.412-.06,1.311-.026,2.375,1.539,2.558a1.281,1.281,0,0,1,1.082,1.5,1.326,1.326,0,0,1-1.345,1.2,3.818,3.818,0,0,1-3-1.288,4.36,4.36,0,0,1-1.03-3.56c.051-.643-.2-.839-.833-.831-2.357.03-4.715.012-7.073.012h-4.561c-.295,0-.622-.007-.644.39-.08,1.418.006,2.378,1.512,2.574a1.294,1.294,0,0,1,1.1,1.547,1.347,1.347,0,0,1-1.384,1.159,4.013,4.013,0,0,1-4-4.17c.056-1.666.227-1.5-1.518-1.5-1.3,0-1.8.5-1.8,1.807-.01,1.935,0,3.871,0,5.806,0,.991,0,.992.983.992Zm-23.775-11.349c1.273,0,1.275,0,1.274-.754,0-1.107-.462-1.7-1.3-1.685-.8.016-1.237.6-1.241,1.68C444.775-149.711,444.781-149.708,446.046-149.708Zm15.864,0c1.276,0,1.277,0,1.276-.752,0-1.107-.461-1.7-1.3-1.687-.8.015-1.238.6-1.243,1.678C460.641-149.712,460.648-149.708,461.91-149.708Zm15.854,0c1.287,0,1.287,0,1.288-.739,0-1.11-.45-1.708-1.286-1.7-.808.008-1.249.592-1.256,1.664C476.505-149.717,476.52-149.708,477.764-149.708Zm15.9,0c1.252,0,1.263-.007,1.258-.769-.007-1.075-.445-1.659-1.251-1.67-.837-.011-1.292.586-1.291,1.7C492.377-149.707,492.377-149.707,493.66-149.708Z" fill="#fff"/>
        <path id="Path_14636" data-name="Path 14636" d="M610.649,85.175a14.606,14.606,0,1,1-14.5-14.636A14.636,14.636,0,0,1,610.649,85.175Zm-26.41-.141a11.806,11.806,0,1,0,11.928-11.675A11.763,11.763,0,0,0,584.239,85.033Z" transform="translate(-126.207 -195.726)" fill="#fff"/>
        <path id="Path_14637" data-name="Path 14637" d="M598.9,13.567q-7.833,0-15.666,0c-1.023,0-1.608-.555-1.566-1.448a1.322,1.322,0,0,1,1.2-1.273,7,7,0,0,1,.727-.015h30.6c.22,0,.442-.008.661.01a1.363,1.363,0,0,1-.03,2.721c-.241.016-.485.008-.727.008Z" transform="translate(-126.405 -143.909)" fill="#fff"/>
        <path id="Path_14638" data-name="Path 14638" d="M544.4,12.305a1.367,1.367,0,1,1-1.327-1.418A1.337,1.337,0,0,1,544.4,12.305Z" transform="translate(-91.697 -143.961)" fill="#fff"/>
        <path id="Path_14639" data-name="Path 14639" d="M685.589,138.663c-.858,0-1.716.013-2.573,0a1.315,1.315,0,0,1-1.416-1.392q-.026-2.6,0-5.2a1.366,1.366,0,1,1,2.73,0c.018,1.031.028,2.064,0,3.095-.016.561.165.8.753.776,1.011-.034,2.023-.017,3.035-.005a1.373,1.373,0,1,1-.019,2.732C687.26,138.671,686.424,138.664,685.589,138.663Z" transform="translate(-213.116 -247.892)" fill="#fff"/>
      </g>
    </g>
  </g>
</svg>
