<svg xmlns="http://www.w3.org/2000/svg" width="78.164" height="78.164" viewBox="0 0 78.164 78.164">
  <g id="Group_28117" data-name="Group 28117" transform="translate(-1072.612 -5538.873)">
    <rect id="Rectangle_727" data-name="Rectangle 727" width="78.164" height="78.164" rx="39.082" transform="translate(1072.612 5538.873)" fill="#e7ce6f"/>
    <path id="c1c757329ee14b4b1db85447c1a1fbaa" d="M10.664,0A2.668,2.668,0,0,0,8,2.662V45.225a2.668,2.668,0,0,0,2.66,2.66H30.616a2.668,2.668,0,0,0,2.66-2.66V19.943a.654.654,0,0,0,.665-.657V17.966a.664.664,0,0,0-.665-.673v-.016a.654.654,0,0,0,.665-.657V15.3a.665.665,0,0,0-.665-.673V12.812a.668.668,0,0,0,.649-.676v-.818a.665.665,0,0,0-.649-.676V2.662A2.668,2.668,0,0,0,30.616,0H10.664Zm0,1.33H30.616a1.312,1.312,0,0,1,1.33,1.33v5.32H9.334V2.662a1.312,1.312,0,0,1,1.33-1.33Zm7.316,2.66a.665.665,0,1,0,.665.665A.665.665,0,0,0,17.98,3.992Zm2.647,0a.665.665,0,1,0,0,1.33h2.684a.665.665,0,1,0,0-1.33ZM9.334,9.313H31.946V38.575H9.334V9.313Zm10.284,6.661a5.31,5.31,0,1,0,2.45,10.186l4.025,6.97,1.151-.665-4.025-6.97a5.3,5.3,0,0,0-3.6-9.521Zm.678,1.314v.005a3.991,3.991,0,0,1,1.722,7.438h-.011A3.99,3.99,0,1,1,20.3,17.288ZM9.334,39.9H31.946v5.32a1.313,1.313,0,0,1-1.33,1.33H10.664a1.312,1.312,0,0,1-1.33-1.33V39.9Zm11.386,2a1.417,1.417,0,1,0,1.419,1.415A1.427,1.427,0,0,0,20.72,41.9Z" transform="translate(1090.722 5554.011)" fill="#fff"/>
  </g>
</svg>
