<svg xmlns="http://www.w3.org/2000/svg" width="78.164" height="78.164" viewBox="0 0 78.164 78.164">
  <g id="Group_28119" data-name="Group 28119" transform="translate(-1647.802 -5531.03)">
    <rect id="Rectangle_726" data-name="Rectangle 726" width="78.164" height="78.164" rx="39.082" transform="translate(1647.802 5531.03)" fill="#6a6391"/>
    <g id="Group_28082" data-name="Group 28082" transform="translate(1663.455 5552.167)">
      <path id="Path_12479" data-name="Path 12479" d="M-14.554,390.486H2.23c.922,0,1.137.219,1.137,1.154q0,10.946,0,21.892c0,.935-.217,1.155-1.135,1.157-.486,0-.974.022-1.459-.006-.4-.024-.531.122-.528.526.017,2.011.008,4.022.008,6.033,0,1.362,0,2.724,0,4.087,0,.773-.257,1.038-1.008,1.039-4.168,0-8.335,0-12.5.01-.448,0-.592-.138-.578-.582.038-1.213-.129-1.047,1.024-1.049q5.425-.011,10.849.007c.47,0,.619-.134.6-.6-.04-1.005.1-.893-.882-.894q-5.473,0-10.946,0c-.635,0-.641,0-.637-.651.008-1.1-.121-.962.947-.973.568-.006,1.136-.013,1.7,0,.32.009.47-.079.468-.434q-.018-3.04,0-6.081c0-.359-.154-.433-.471-.432-1.816.009-3.632,0-5.449,0H-31.37c-.928,0-1.144-.217-1.144-1.147q0-10.971,0-21.941c0-.891.226-1.115,1.127-1.115Zm.018,6.3H-30.254c-.633,0-.635,0-.635.647,0,5.012.005,10.024-.009,15.036,0,.46.118.609.6.608q15.717-.019,31.434,0c.5,0,.623-.149.621-.634-.017-5-.01-9.991-.011-14.987,0-.67,0-.671-.659-.671Zm-.085-1.626h9.2c2.222,0,4.444-.007,6.666.007.375,0,.526-.1.509-.5-.028-.615-.007-1.232-.007-1.849,0-.707,0-.708-.72-.708H-30.168a2.111,2.111,0,0,1-.243,0c-.353-.041-.5.1-.483.466.023.648.005,1.3.006,1.946,0,.634,0,.635.647.635Zm10.136,23.051c0-.826.011-1.652,0-2.477-.02-1.18.25-1.028-1.111-1.043-.268,0-.383.1-.377.372.009.4.016.811-.009,1.214a.77.77,0,0,1-.8.746.779.779,0,0,1-.807-.74c-.018-.193-.005-.388-.009-.583-.023-1.142.2-.988-1.048-1.013-.344-.007-.447.126-.445.456q.016,3.012,0,6.023c0,.368.131.474.483.469,1.214-.016,2.429-.02,3.643,0,.4.008.5-.146.489-.514C-4.5,420.151-4.486,419.18-4.486,418.208Zm1.626-.049c0,.843-.006,1.687,0,2.53.009,1.062-.152.913.974.947.413.012.524-.138.521-.533-.017-1.8,0-3.6-.01-5.4-.007-1.146.2-.991-1.045-1.017-.345-.007-.45.126-.445.457C-2.851,416.148-2.86,417.153-2.861,418.159Z" transform="translate(43.412 -390.486)" fill="#fff"/>
      <path id="Path_12480" data-name="Path 12480" d="M-102.444,535.975c-3.421,0-6.842.011-10.263,0a3.879,3.879,0,0,1-3.791-3.8c.006-.634.284-.925.916-.932.811-.009,1.622-.024,2.432.006.43.016.553-.127.551-.553-.014-4.345-.009-8.691-.008-13.036,0-1.023.191-1.212,1.224-1.212,1.265,0,2.53.011,3.794-.006.38-.005.514.122.505.5-.032,1.331.15,1.107-1.092,1.125q-1.191.017-2.383,0c-.315-.005-.427.11-.427.425q.01,6.153,0,12.306c0,.345.128.444.458.444q8.074-.011,16.149,0c.375,0,.466-.144.463-.49-.013-1.459.006-2.918-.013-4.378-.005-.42.089-.614.563-.6,1.243.043,1.058-.136,1.068,1.055.011,1.3.017,2.595-.006,3.891-.007.413.14.531.535.519.81-.024,1.621-.013,2.432,0,.659.006.932.3.932.965a3.876,3.876,0,0,1-3.774,3.766C-95.6,535.987-99.023,535.975-102.444,535.975Zm-.007-1.624q4.888,0,9.775,0a2.449,2.449,0,0,0,2.2-1c.086-.126.258-.259.154-.425-.084-.132-.271-.065-.411-.065-2.853,0-5.706,0-8.559-.008a.926.926,0,0,0-.809.338,1.207,1.207,0,0,1-1.068.454c-.826-.025-1.654-.029-2.48,0a1.324,1.324,0,0,1-1.2-.49.827.827,0,0,0-.726-.3c-2.869.008-5.739,0-8.608.007-.14,0-.327-.068-.41.067-.1.166.07.3.156.425a2.457,2.457,0,0,0,2.206.993Q-107.339,534.355-102.451,534.352Z" transform="translate(116.498 -500.095)" fill="#fff"/>
      <path id="Path_12481" data-name="Path 12481" d="M153.119,461.591c-.016.052-.052.177-.093.3-.925,2.78-1.859,5.557-2.768,8.342-.138.423-.3.516-.728.365-1.034-.37-1.041-.35-.691-1.4.869-2.61,1.746-5.219,2.6-7.834.141-.431.318-.6.758-.381a6.273,6.273,0,0,0,.689.235C153.026,461.264,153.167,461.321,153.119,461.591Z" transform="translate(-114.229 -451.75)" fill="#fff"/>
      <path id="Path_12482" data-name="Path 12482" d="M32.114,510.441c1.393,0,2.787.011,4.181-.007.4-.005.542.122.532.527-.033,1.294.14,1.1-1.065,1.1-2.576.01-5.153-.008-7.729.013-.487,0-.653-.131-.633-.628.046-1.155-.121-1,1.02-1.006C29.651,510.434,30.883,510.441,32.114,510.441Z" transform="translate(-8.726 -494.869)" fill="#fff"/>
      <path id="Path_12483" data-name="Path 12483" d="M117.527,479.758a.823.823,0,0,1,.285-.661c.676-.676,1.359-1.345,2.023-2.033.231-.239.381-.19.6.018.88.844.885.838.029,1.694-.229.229-.448.47-.69.685-.22.2-.226.345-.006.552.425.4.822.829,1.244,1.231.208.2.216.341.012.562-.858.929-.851.935-1.728.058l-1.444-1.444A.844.844,0,0,1,117.527,479.758Z" transform="translate(-87.158 -465.691)" fill="#fff"/>
      <path id="Path_12484" data-name="Path 12484" d="M190.044,479.639a.846.846,0,0,1-.307.675c-.665.664-1.336,1.323-1.99,2-.218.225-.366.226-.6.006-.894-.853-.9-.842-.021-1.73.294-.3.8-.552.812-.919.014-.406-.541-.632-.816-.965-.01-.012-.023-.023-.034-.035-.854-.855-.828-1.082.171-1.794a.275.275,0,0,1,.417.052q1.08,1.086,2.159,2.172A.709.709,0,0,1,190.044,479.639Z" transform="translate(-147.163 -465.601)" fill="#fff"/>
      <path id="Path_12485" data-name="Path 12485" d="M30.232,452.064c-.777,0-1.555-.008-2.332,0-.31,0-.435-.111-.43-.426.021-1.456-.165-1.181,1.157-1.2,1.279-.017,2.559.009,3.838-.01.4-.006.542.123.531.527-.033,1.293.14,1.085-1.064,1.1-.567.009-1.134,0-1.7,0Z" transform="translate(-8.789 -442.655)" fill="#fff"/>
      <path id="Path_12486" data-name="Path 12486" d="M65.793,482.074c-.631,0-1.263-.009-1.894,0-.311.006-.433-.114-.429-.427.021-1.454-.165-1.177,1.158-1.2,1.036-.016,2.073.007,3.109-.008.356-.005.487.12.479.478-.028,1.37.152,1.126-1.112,1.151-.437.009-.874,0-1.312,0Z" transform="translate(-40.117 -468.771)" fill="#fff"/>
      <path id="Path_12487" data-name="Path 12487" d="M65.874,540.469c.632,0,1.263.009,1.894,0,.311-.006.434.114.429.427-.021,1.455.165,1.177-1.158,1.2-1.036.016-2.073-.007-3.109.008-.356.005-.487-.119-.48-.478.028-1.371-.152-1.127,1.111-1.151.437-.009.874,0,1.311,0Z" transform="translate(-40.101 -521.003)" fill="#fff"/>
      <path id="Path_12488" data-name="Path 12488" d="M28.837,480.246c.162,0,.325-.011.485,0,.332.027.785-.16.969.109.242.353.085.846.077,1.278,0,.224-.19.232-.355.233-.809,0-1.618,0-2.427,0-.261,0-.365-.1-.386-.369-.1-1.256-.106-1.256,1.151-1.256Z" transform="translate(-8.519 -468.567)" fill="#fff"/>
      <path id="Path_12489" data-name="Path 12489" d="M29.018,542.071c-.388,0-.777-.006-1.165,0-.265.006-.379-.108-.377-.375.012-1.539-.168-1.215,1.154-1.247.534-.013,1.068.009,1.6,0,.311-.008.433.114.428.427-.021,1.454.164,1.168-1.156,1.2-.162,0-.324,0-.485,0Z" transform="translate(-8.792 -520.984)" fill="#fff"/>
      <path id="Path_12490" data-name="Path 12490" d="M-7.689,452.126h-.049c-1.255,0-1.25,0-1.129-1.275.023-.242.112-.35.355-.348q.849.007,1.7,0c.245,0,.36.107.348.351,0,.016,0,.032,0,.048C-6.479,452.406-6.272,452.087-7.689,452.126Z" transform="translate(22.877 -442.715)" fill="#fff"/>
      <path id="Path_12491" data-name="Path 12491" d="M82.287,452.139h-.049c-1.248,0-1.3-.068-1.151-1.3.027-.218.112-.322.33-.321.582,0,1.164,0,1.747,0a.181.181,0,0,1,.1.011c.474.337.144.825.222,1.237.05.262-.107.38-.371.372s-.55,0-.825,0Z" transform="translate(-55.397 -442.728)" fill="#fff"/>
      <path id="Path_12492" data-name="Path 12492" d="M-7.707,482.124h-.049c-1.226,0-1.25-.034-1.12-1.285.026-.248.13-.34.365-.339.566,0,1.132,0,1.7,0,.128,0,.288,0,.309.166a4.348,4.348,0,0,1-.008,1.3c-.028.16-.2.144-.323.146-.291.006-.582,0-.873,0Z" transform="translate(22.886 -468.82)" fill="#fff"/>
      <path id="Path_12493" data-name="Path 12493" d="M-7.556,512.133h-.1c-1.256,0-1.252,0-1.148-1.256.019-.228.08-.368.336-.366.582,0,1.164,0,1.747,0a.178.178,0,0,1,.1.011c.469.341.14.827.218,1.24.05.266-.114.376-.374.368s-.517,0-.776,0Z" transform="translate(22.812 -494.936)" fill="#fff"/>
      <path id="Path_12494" data-name="Path 12494" d="M-7.515,540.486h.1c1.124,0,1.313.239,1.089,1.357-.035.175-.115.26-.285.261-.615,0-1.229,0-1.843,0A.087.087,0,0,1-8.5,542.1c-.464-.345-.136-.83-.213-1.244-.05-.269.12-.372.378-.365.275.008.55,0,.825,0Z" transform="translate(22.739 -521.022)" fill="#fff"/>
      <path id="Path_12495" data-name="Path 12495" d="M-13.688,410.139a.787.787,0,0,1-.793-.847.785.785,0,0,1,.822-.769.787.787,0,0,1,.793.846A.788.788,0,0,1-13.688,410.139Z" transform="translate(27.72 -406.183)" fill="#fff"/>
      <path id="Path_12496" data-name="Path 12496" d="M5.139,409.34a.808.808,0,1,1-.769-.823A.789.789,0,0,1,5.139,409.34Z" transform="translate(12.051 -406.177)" fill="#fff"/>
      <path id="Path_12497" data-name="Path 12497" d="M23.139,409.314a.808.808,0,1,1-.8-.792A.788.788,0,0,1,23.139,409.314Z" transform="translate(-3.613 -406.181)" fill="#fff"/>
    </g>
  </g>
</svg>
