<svg xmlns="http://www.w3.org/2000/svg" width="116" height="116" viewBox="0 0 116 116">
  <g id="Group_28020" data-name="Group 28020" transform="translate(-909 -982)">
    <g id="Ellipse_785" data-name="Ellipse 785" transform="translate(909 982)" fill="rgba(246,119,18,0.05)" stroke="#f67712" stroke-width="1">
      <circle cx="58" cy="58" r="58" stroke="none"/>
      <circle cx="58" cy="58" r="57.5" fill="none"/>
    </g>
    <g id="Group_27171" data-name="Group 27171" transform="translate(932 1011)">
      <path id="Path_12556" data-name="Path 12556" d="M81.1,78.632q0,12.1,0,24.2a4.428,4.428,0,0,1-6.712,3.856,4.11,4.11,0,0,1-2.164-3.673,1.9,1.9,0,0,0-.611-1.444,42.336,42.336,0,0,0-9.719-7.141,56.433,56.433,0,0,0-15.656-6.023c-1.561-.324-1.211-.416-1.563.955-.867,3.371-1.689,6.753-2.533,10.131-.353,1.414-.793,1.753-2.264,1.753-1.6,0-3.209,0-4.813,0-1.317-.005-1.917-.613-1.919-1.947,0-3.484-.016-6.968.012-10.451,0-.631-.175-.864-.815-.815-.661.05-1.328.015-1.993.008a4.925,4.925,0,0,1-4.9-4.9q-.023-4.5,0-9.007a4.912,4.912,0,0,1,4.919-4.884c3.254-.014,6.513-.112,9.761.023A31,31,0,0,0,51.84,67.33a58.188,58.188,0,0,0,16.3-8.565,36.528,36.528,0,0,0,3.6-3.186,1.515,1.515,0,0,0,.475-1.152,4.448,4.448,0,0,1,8.809-.883,6.152,6.152,0,0,1,.077,1.23Q81.106,66.7,81.1,78.632Zm-8.9.009V60.969c0-.16.006-.322,0-.481-.007-.131.051-.3-.093-.376s-.245.071-.346.153c-.445.361-.874.742-1.331,1.087A59.463,59.463,0,0,1,46.109,72.39c-.636.129-.785.383-.781.994.029,3.506.036,7.014,0,10.52-.008.688.236.874.856,1a59.022,59.022,0,0,1,25.38,11.93c.167.134.305.448.544.322.214-.113.1-.421.1-.639Q72.208,87.58,72.2,78.641Zm5.5.07q0-11.862,0-23.726c0-1.015-.376-1.569-1.05-1.569s-1.052.552-1.052,1.568q0,23.656,0,47.314a2.322,2.322,0,0,0,.107.881,1,1,0,0,0,1.887,0,2.661,2.661,0,0,0,.108-1.019Q77.708,90.436,77.706,78.711Zm-41.165-.138c0,1.811.011,3.622-.008,5.433,0,.468.142.656.63.648,1.375-.023,2.751-.027,4.126,0,.52.011.666-.184.665-.683q-.024-5.329,0-10.659c0-.5-.145-.693-.665-.683-1.352.027-2.705.032-4.057,0-.557-.014-.709.188-.7.719C36.557,75.089,36.541,76.831,36.541,78.573Zm-3.4.069c0-1.789-.011-3.576.007-5.364.005-.468-.141-.67-.63-.647-.618.031-1.238-.01-1.856.014a1.651,1.651,0,0,0-1.814,1.8q-.041,4.2,0,8.391a1.652,1.652,0,0,0,1.814,1.8c.6.023,1.194-.025,1.787.016.558.039.71-.186.7-.717C33.126,82.173,33.142,80.408,33.142,78.642Zm3.4,14.3c0,1.029-.019,2.059,0,3.088.049,2.18-.442,1.772,1.9,1.826a.579.579,0,0,0,.67-.514q1.073-4.362,2.181-8.714c.132-.515-.069-.591-.5-.586-1.212.014-2.425.022-3.637,0-.488-.01-.634.181-.627.647C36.553,90.1,36.541,91.52,36.54,92.939Z" transform="translate(-25.433 -49.977)" fill="#f67712"/>
      <path id="Path_12557" data-name="Path 12557" d="M89.606,67.947a1.652,1.652,0,0,1,1-1.39c1.643-.807,3.292-1.6,4.957-2.363a1.7,1.7,0,0,1,1.513,3.047c-1.689.866-3.4,1.706-5.134,2.467A1.719,1.719,0,0,1,89.606,67.947Z" transform="translate(-31.813 -51.373)" fill="#f67712"/>
      <path id="Path_12558" data-name="Path 12558" d="M96.191,98.933a1.6,1.6,0,0,1-.481-.1c-1.757-.828-3.521-1.642-5.25-2.523a1.559,1.559,0,0,1-.818-1.745,1.726,1.726,0,0,1,2.484-1.238c1.631.775,3.264,1.545,4.877,2.356a1.665,1.665,0,0,1,.938,1.935A1.7,1.7,0,0,1,96.191,98.933Z" transform="translate(-31.814 -54.268)" fill="#f67712"/>
      <path id="Path_12559" data-name="Path 12559" d="M97.107,83.315c-.916,0-1.831.014-2.747,0a1.643,1.643,0,0,1-1.715-1.733,1.617,1.617,0,0,1,1.72-1.653c1.83-.014,3.662-.017,5.492,0a1.692,1.692,0,0,1,0,3.383C98.938,83.33,98.022,83.315,97.107,83.315Z" transform="translate(-32.116 -52.953)" fill="#f67712"/>
    </g>
  </g>
</svg>
