<svg xmlns="http://www.w3.org/2000/svg" width="129" height="129" viewBox="0 0 129 129">
  <g id="Group_28120" data-name="Group 28120" transform="translate(-204 -3116)">
    <g id="Ellipse_795" data-name="Ellipse 795" transform="translate(204 3116)" fill="#f7f1ff" stroke="#69528c" stroke-width="1">
      <circle cx="64.5" cy="64.5" r="64.5" stroke="none"/>
      <circle cx="64.5" cy="64.5" r="64" fill="none"/>
    </g>
    <g id="torsos-female-male" transform="translate(236.463 3153.539)">
      <path id="Path_14870" data-name="Path 14870" d="M23.47,29.117V24.383h.016a27.69,27.69,0,0,1,2.5-10.9q.247-.809.558-1.583a8.415,8.415,0,0,0-4.685-1.492c-5.25,0-9.5,4.945-9.5,11.052a11.37,11.37,0,0,0,5.137,9.811L4.618,37.268a2.5,2.5,0,0,0-1.331,2.3V49.725a2.313,2.313,0,0,0,2.121,2.465h8.51V41.528a6.978,6.978,0,0,1,3.892-6.363l5.659-2.636V29.117Z" transform="translate(-3.287 -4.35)" fill="#69528c"/>
      <path id="Path_14871" data-name="Path 14871" d="M59.76,41.125,48.2,35.612l-4.886-2.331c.122-.077.239-.165.359-.247h6.416a1.8,1.8,0,0,0,1.8-1.8V26.5h-.016c-.2-6.595-2.485-12.4-5.925-16.036a11.511,11.511,0,0,0-6.8-3.856q-.174-.029-.35-.052c-.137-.017-.272-.034-.41-.046q-.442-.041-.887-.044c-.294,0-.585.017-.875.042-.138.012-.275.029-.411.046-.116.015-.231.032-.346.05a11.484,11.484,0,0,0-6.748,3.788c-3.477,3.636-5.795,9.469-5.993,16.106h-.016v4.734a1.8,1.8,0,0,0,1.8,1.8h6.434c.176.12.351.241.532.351L27.2,35.564,15.269,41.12a3.225,3.225,0,0,0-1.718,2.96V57.189a2.983,2.983,0,0,0,2.736,3.181H58.721a2.983,2.983,0,0,0,2.736-3.181V44.08a3.237,3.237,0,0,0-1.7-2.955Z" transform="translate(2.228 -6.468)" fill="#69528c"/>
    </g>
  </g>
</svg>
