<svg xmlns="http://www.w3.org/2000/svg" width="116" height="116" viewBox="0 0 116 116">
  <g id="Group_28117" data-name="Group 28117" transform="translate(-896 -1269)">
    <g id="Group_28021" data-name="Group 28021" transform="translate(-339 287)">
      <g id="Ellipse_786" data-name="Ellipse 786" transform="translate(1235 982)" fill="rgba(112,122,225,0.05)" stroke="#707ae1" stroke-width="1">
        <circle cx="58" cy="58" r="58" stroke="none"/>
        <circle cx="58" cy="58" r="57.5" fill="none"/>
      </g>
      <g id="Group_27170" data-name="Group 27170" transform="translate(1258 1005)">
        <path id="Path_12546" data-name="Path 12546" d="M177.5,108.465c-3.9,0-7.794.009-11.689-.008a1.681,1.681,0,0,0-1.325.528,6.532,6.532,0,0,1-3.727,1.6,13.6,13.6,0,0,1-7.236-.6,3.716,3.716,0,0,1-1.555-.983,1.619,1.619,0,0,0-1.392-.544q-11.655.018-23.31.005a3.626,3.626,0,0,1-3.82-3.37,8.641,8.641,0,0,1,.366-2.437q2.388-12.305,4.8-24.606a2.5,2.5,0,0,1,2.747-2.242h.206A4.959,4.959,0,0,0,133,75.745c.537-.183.316-.837.5-1.259a2.369,2.369,0,0,1,1.923-1.574c.69-.082.818-.3.662-1a9.118,9.118,0,0,1,.978-6.574,2.211,2.211,0,0,0,.276-1.289,4.724,4.724,0,0,1,2.3-4.47,1.463,1.463,0,0,0,.743-1.043,5.854,5.854,0,0,1,6.825-4.711.975.975,0,0,0,1-.358,8.069,8.069,0,0,1,9.8-1.708.936.936,0,0,0,1.11-.07,4.737,4.737,0,0,1,6.35.733,1.662,1.662,0,0,0,1.24.576,10.055,10.055,0,0,1,9.2,7.524,1.09,1.09,0,0,0,.774.836,4.8,4.8,0,0,1,3.052,5.691,1.512,1.512,0,0,0,.114,1.114,6.78,6.78,0,0,1,.713,3.8c-.048.544.032.865.693,1a2.31,2.31,0,0,1,1.858,2.134c.083.611.367.761.909.72.387-.03.779-.012,1.168,0a2.492,2.492,0,0,1,2.662,2.182q1.46,7.378,2.885,14.763c.742,3.82,1.515,7.636,2.2,11.466a3.53,3.53,0,0,1-3.606,4.239C185.389,108.478,181.446,108.465,177.5,108.465Zm-18-15.344q0,3.335,0,6.67c0,.871,0,.871.811.621a40.036,40.036,0,0,1,23.552-.046c.893.274.953.2.8-.707q-1.07-6.4-2.127-12.8-.9-5.453-1.8-10.907c-.068-.418-.242-.645-.706-.663-.564-.023-.953.29-1.194,1.155a9.967,9.967,0,0,1-3.394,5.287.563.563,0,0,0-.158.82,14.656,14.656,0,0,1,.725,1.78,3.671,3.671,0,0,1-1.508,4.325,3.52,3.52,0,0,1-4.438-.44,9.924,9.924,0,0,0-3.958-2.36c-1.494-.547-3.053-1.227-3.763-2.713a2.86,2.86,0,0,0-2.589-1.756,1.1,1.1,0,0,0-.88.207,7.359,7.359,0,0,1-10.91-1.825.651.651,0,0,0-.778-.346,8.835,8.835,0,0,1-3.75-.059,9.327,9.327,0,0,1-5.717-3.774c-.452-.639-.972-.3-1.483-.267-.483.034-.449.445-.51.77-.1.54-.185,1.082-.275,1.625q-1.822,10.974-3.646,21.947c-.152.91-.079.982.8.706a38.9,38.9,0,0,1,9.923-1.714,40.294,40.294,0,0,1,13.695,1.773c.739.226.744.223.744-.565q0-6.6,0-13.2a2.357,2.357,0,0,1,.147-1.08,1.234,1.234,0,0,1,2.238,0,2.2,2.2,0,0,1,.149,1.01Q159.5,89.855,159.5,93.121Zm15.425-14.4a1.645,1.645,0,0,0-.281-.016,7.18,7.18,0,0,1-5.9-1.357.874.874,0,0,0-.837-.076,4.111,4.111,0,0,1-4.417-1.786c-.5-.793-.439-1.53.171-1.953s1.312-.252,1.876.509a1.743,1.743,0,0,0,1.161.782c1.368.2,2.206-.9,1.781-2.351a1.258,1.258,0,0,1,.687-1.7,1.271,1.271,0,0,1,1.636.852A3.875,3.875,0,0,1,170.7,75c-.171.344-.2.6.2.784a4.833,4.833,0,0,0,5.029-.319,4.671,4.671,0,0,0,2.15-4.475c-.072-1-.134-.991-1.037-.646a1.24,1.24,0,0,1-1.592-.546,1.2,1.2,0,0,1,.435-1.624c.149-.106.317-.186.466-.293a2.419,2.419,0,0,0,.941-2.554,2.372,2.372,0,0,0-1.92-1.744,2.754,2.754,0,0,0-1.891.444,1.225,1.225,0,0,1-1.7-.349,1.2,1.2,0,0,1,.339-1.7,3.435,3.435,0,0,1,.827-.484.591.591,0,0,0,.394-.9,7.5,7.5,0,0,0-6.027-5.023c-.364-.066-.473.072-.587.376-.284.753-.732,1.039-1.388.949-.62-.086-.985-.53-1.078-1.316a2.38,2.38,0,0,0-4.756.017c-.112.909-.656,1.4-1.439,1.3a1.326,1.326,0,0,1-1.056-1.647c.176-1.273.168-1.289-1.091-1.689a5.059,5.059,0,0,0-1.345-.256,5.672,5.672,0,0,0-5.78,4.066,1.29,1.29,0,0,1-1.621.987,1.22,1.22,0,0,1-.779-1.6c.119-.46-.01-.605-.445-.546a3.566,3.566,0,0,0-2.867,1.988c-.226.441-.188.7.367.825a4.608,4.608,0,0,1,2.341,1.369c.675.72.738,1.532.158,2.059s-1.245.418-1.966-.331c-.032-.033-.061-.068-.094-.1a2.371,2.371,0,0,0-4.044,1.726,2.5,2.5,0,0,0,1.164,2.066,1.218,1.218,0,0,1,.314,1.757,1.276,1.276,0,0,1-1.78.239,1.865,1.865,0,0,1-.221-.164c-.308-.267-.5-.24-.62.187a7.568,7.568,0,0,0-.352,2.368,7.138,7.138,0,0,0,7.884,6.828c.54-.05.629-.286.571-.762-.054-.452-.4-.444-.688-.539a4.1,4.1,0,0,1-2.932-3.686c-.044-.875.386-1.461,1.122-1.526.707-.064,1.184.381,1.33,1.259a1.872,1.872,0,0,0,.825,1.366c.411.261.756.332.932-.273a3.43,3.43,0,0,1,.36-.74,1.252,1.252,0,1,1,2.223,1.134c-.085.187-.194.366-.267.557a4.811,4.811,0,0,0,.883,5.256,4.882,4.882,0,0,0,7.165.158c.426-.418.863-.811,1.5-.582a9.775,9.775,0,0,0,6.075.216,1.187,1.187,0,0,1,1.426.791,1.214,1.214,0,0,1-.681,1.543,7.369,7.369,0,0,1-.987.289c-.23.064-.581-.023-.63.285-.04.258.245.424.435.58a9.668,9.668,0,0,0,3.127,1.542,8.006,8.006,0,0,1,2.691,1.484c.329.284.627.6.938.909a1.148,1.148,0,0,0,1.5.216,1.1,1.1,0,0,0,.483-1.429c-.162-.429-.342-.85-.505-1.278s-.387-.562-.846-.377a7.071,7.071,0,0,1-1.389.379,1.277,1.277,0,0,1-1.508-.981,1.228,1.228,0,0,1,.9-1.42c.325-.106.668-.16,1-.259A7.2,7.2,0,0,0,174.93,78.721Zm2.681,27.213q5.74,0,11.481,0c1.188,0,1.569-.483,1.344-1.64q-2.43-12.471-4.857-24.942c-.205-1.059-.2-1.038-1.275-1.018-.518.011-.618.221-.539.685q1.412,8.4,2.8,16.8c.258,1.557.549,3.112.731,4.679a2.316,2.316,0,0,1-1.817,2.624,2.994,2.994,0,0,1-1.747-.175,39.217,39.217,0,0,0-18.2-1.223c-.476.078-.6.268-.555.727.09.865.14,1.735.181,2.6.03.634.261.907.965.9C169.956,105.916,173.783,105.934,177.611,105.933Zm-38.767,0c3.85,0,7.7-.015,11.551.013.667,0,.894-.256.92-.869q.059-1.371.185-2.74c.036-.387-.115-.537-.471-.6a39.055,39.055,0,0,0-5.462-.548,37.326,37.326,0,0,0-12.994,1.825,2.533,2.533,0,0,1-3.381-2.984c.693-3.969,1.336-7.946,2-11.919q.763-4.573,1.523-9.145c.036-.218.108-.458-.178-.593a1.114,1.114,0,0,0-1.616.815Q128.491,91.7,126.063,104.2c-.253,1.3.1,1.728,1.436,1.729Q133.172,105.938,138.844,105.934Zm19.411,2.333a8.877,8.877,0,0,0,3.94-.692c.325-.145.675-.275.621-.778-.133-1.274-.247-2.551-.328-3.83-.03-.466-.208-.53-.606-.416a24.251,24.251,0,0,0-2.917,1.019,1.71,1.71,0,0,1-1.454,0,26.323,26.323,0,0,0-2.918-1.019c-.4-.121-.579-.05-.606.414-.07,1.188-.137,2.379-.3,3.555a.886.886,0,0,0,.652,1.091A9.384,9.384,0,0,0,158.255,108.268Z" transform="translate(-123.437 -41.418)" fill="#707ae1"/>
        <path id="Path_12547" data-name="Path 12547" d="M149.451,41.549a1.238,1.238,0,0,1,1.178.8c.456,1.074.91,2.149,1.329,3.238a1.211,1.211,0,0,1-.664,1.594,1.161,1.161,0,0,1-1.571-.574c-.52-1.144-1.013-2.305-1.428-3.491A1.192,1.192,0,0,1,149.451,41.549Z" transform="translate(-125.902 -40.5)" fill="#707ae1"/>
        <path id="Path_12548" data-name="Path 12548" d="M136.3,61.763a1.164,1.164,0,0,1-1.519,1.186c-1.2-.421-2.383-.919-3.541-1.454a1.146,1.146,0,0,1-.518-1.581,1.2,1.2,0,0,1,1.547-.634c1.107.425,2.2.886,3.291,1.353A1.165,1.165,0,0,1,136.3,61.763Z" transform="translate(-124.148 -42.254)" fill="#707ae1"/>
        <path id="Path_12549" data-name="Path 12549" d="M175.479,42.963a5.793,5.793,0,0,1-.185.609q-.551,1.371-1.126,2.732c-.352.829-.988,1.166-1.666.9a1.269,1.269,0,0,1-.653-1.821c.41-1.019.821-2.04,1.27-3.043a1.23,1.23,0,0,1,2.36.621Z" transform="translate(-128.236 -40.501)" fill="#707ae1"/>
        <path id="Path_12550" data-name="Path 12550" d="M188.58,63.035c-.744-.081-1.18-.352-1.318-.93a1.123,1.123,0,0,1,.58-1.4c1.163-.527,2.344-1.019,3.54-1.462a1.107,1.107,0,0,1,1.382.607,1.019,1.019,0,0,1-.218,1.426A21.1,21.1,0,0,1,188.58,63.035Z" transform="translate(-129.778 -42.252)" fill="#707ae1"/>
        <path id="Path_12551" data-name="Path 12551" d="M184.13,49.372a1.167,1.167,0,0,1,1.1,1.711,4.553,4.553,0,0,1-1.767,1.781,1.171,1.171,0,0,1-1.738-1.129A3.534,3.534,0,0,1,184.13,49.372Z" transform="translate(-129.232 -41.277)" fill="#707ae1"/>
        <path id="Path_12552" data-name="Path 12552" d="M142.019,51.653a1.179,1.179,0,0,1-.584,1.164,1.109,1.109,0,0,1-1.29-.028,6.578,6.578,0,0,1-1.541-1.543,1.115,1.115,0,0,1,.066-1.455,1.1,1.1,0,0,1,1.363-.349,4.621,4.621,0,0,1,1.919,1.89A.843.843,0,0,1,142.019,51.653Z" transform="translate(-124.921 -41.274)" fill="#707ae1"/>
        <path id="Path_12553" data-name="Path 12553" d="M160.684,42.174a5.309,5.309,0,0,1,0-.548,1.254,1.254,0,1,1,2.507.03,7.09,7.09,0,0,1,0,1.1,1.272,1.272,0,0,1-1.269,1.27,1.287,1.287,0,0,1-1.243-1.3c-.014-.182,0-.366,0-.549Z" transform="translate(-127.139 -40.384)" fill="#707ae1"/>
        <path id="Path_12554" data-name="Path 12554" d="M158.787,77.4a1.339,1.339,0,0,1-1.481-1.2,1.254,1.254,0,0,1,1.292-1.311,3.514,3.514,0,0,0,2.085-.78c.521-.444.505-.555-.126-.778a7.182,7.182,0,0,1-2.722-1.688,1.32,1.32,0,0,1-.223-1.944q.819-.869,1.925.124a4.643,4.643,0,0,0,7.836-2.2c.28-.921.835-1.317,1.586-1.132.736.182,1.063.846.827,1.754a6.939,6.939,0,0,1-4.867,5.142,1.97,1.97,0,0,0-1.259,1.006A5.809,5.809,0,0,1,158.787,77.4Z" transform="translate(-126.801 -42.975)" fill="#707ae1"/>
        <path id="Path_12555" data-name="Path 12555" d="M156.983,61.26a1.283,1.283,0,0,1,1.544,1.092c.081.738-.412,1.257-1.293,1.362a2.973,2.973,0,0,0-2.889,2.927,1.323,1.323,0,0,1-1.32,1.306,1.348,1.348,0,0,1-1.2-1.556A5.459,5.459,0,0,1,156.983,61.26Z" transform="translate(-126.259 -42.459)" fill="#707ae1"/>
      </g>
    </g>
  </g>
</svg>
