<?xml version="1.0" encoding="UTF-8"?><svg id="Layer_2" xmlns="http://www.w3.org/2000/svg" viewBox="0 0 237.6 181.52"><g id="Layer_1-2"><g><path d="M36.34,0h-.02c-2.25,0-4.36,.88-5.96,2.47-1.61,1.61-2.5,3.75-2.5,6.04v127.49c0,4.68,3.82,8.49,8.51,8.5,19.79,.05,52.95,4.17,75.82,28.11V39.18c0-1.59-.4-3.07-1.17-4.3C92.26,4.64,56.18,.05,36.34,0h0Z"/><path d="M209.73,136V8.5c0-2.28-.89-4.43-2.5-6.04-1.59-1.59-3.71-2.47-5.96-2.47h-.02c-19.83,.05-55.91,4.64-74.68,34.88-.76,1.23-1.17,2.72-1.17,4.3V172.6c22.87-23.93,56.03-28.06,75.82-28.1,4.69-.02,8.51-3.83,8.51-8.5h0Z"/><path d="M229.1,29.4h-6.16v106.59c0,11.94-9.73,21.67-21.68,21.7-16.79,.04-44.46,3.32-64.07,21.88,33.9-8.3,69.64-2.91,90.01,1.74,2.54,.58,5.17-.02,7.21-1.64,2.03-1.62,3.2-4.04,3.2-6.64V37.9c0-4.69-3.81-8.5-8.5-8.5h0Z"/><path d="M14.66,136V29.4h-6.16c-4.69,0-8.5,3.81-8.5,8.5V173.02c0,2.6,1.16,5.02,3.19,6.64,2.04,1.62,4.66,2.23,7.21,1.64,20.37-4.64,56.11-10.04,90.01-1.74-19.6-18.55-47.28-21.83-64.07-21.87-11.96-.03-21.68-9.76-21.68-21.7h0Z"/></g></g></svg>