<svg xmlns="http://www.w3.org/2000/svg" width="116" height="116" viewBox="0 0 116 116">
  <g id="Group_28118" data-name="Group 28118" transform="translate(-1258 -1269)">
    <g id="Group_28022" data-name="Group 28022" transform="translate(-279 287)">
      <g id="Ellipse_787" data-name="Ellipse 787" transform="translate(1537 982)" fill="rgba(70,172,63,0.05)" stroke="#46ac3f" stroke-width="1">
        <circle cx="58" cy="58" r="58" stroke="none"/>
        <circle cx="58" cy="58" r="57.5" fill="none"/>
      </g>
      <g id="Group_27169" data-name="Group 27169" transform="translate(1568 1007)">
        <path id="Path_12544" data-name="Path 12544" d="M241.26,62.934a2.342,2.342,0,0,0-1.808,1.318c-.421.864-.921,1.69-1.425,2.511a2.872,2.872,0,0,1-3.053,1.379,2.952,2.952,0,0,1-2.265-2.479A2.66,2.66,0,0,1,233.034,64c.867-1.693,1.755-3.375,2.64-5.059a3.309,3.309,0,0,1,1.291-1.3c1.853-1.1,3.694-2.216,5.561-3.292a4.2,4.2,0,0,1,3.773-.316c1.875.739,3.737,1.512,5.6,2.292a4.172,4.172,0,0,1,1.867,1.572c.485.724,1.005,1.425,1.469,2.16a.636.636,0,0,0,.856.3c1.005-.314,2.018-.607,3.032-.891a2.913,2.913,0,1,1,1.8,5.54c-1.617.582-3.246,1.129-4.867,1.7a3.328,3.328,0,0,1-3.464-.661,1.521,1.521,0,0,0-.719-.469c-.085.783-.177,1.547-.248,2.314-.036.389.333.459.563.618a7.584,7.584,0,0,1,3.592,6.871c-.158,3.289-.358,6.583-.8,9.851-.054.4.065.5.414.476.023,0,.046,0,.068,0,1.608-.01,1.421.149,1.429-1.368.008-1.352,0-2.7,0-4.057.008-1.279.323-1.59,1.582-1.591,3.369,0,6.739-.013,10.109.012.6,0,.8-.168.786-.778-.037-1.718-.015-3.438-.012-5.158,0-1.084.34-1.45,1.428-1.46,1.856-.018,3.713-.007,5.57-.007,2.43,0,4.86,0,7.289,0,1.315,0,1.619.314,1.619,1.618q0,17.638,0,35.277c0,1.309-.3,1.611-1.628,1.611q-25.374,0-50.75,0c-1.368,0-1.638-.285-1.639-1.658q0-7.427,0-14.853c0-1.267.267-1.535,1.528-1.535,3.186,0,6.372-.018,9.559.014.674.007.939-.149.906-.874-.059-1.235-.018-2.475-.015-3.712,0-1.2.286-1.48,1.514-1.482,1.123,0,2.246-.014,3.369.005.451.008.625-.1.493-.591a10.537,10.537,0,0,1,.063-3.278c.084-1.852.248-3.7.371-5.549a1.016,1.016,0,0,0-.834-1.227c-.7-.137-1.2.312-1.307,1.155q-.216,1.635-.422,3.269a3.785,3.785,0,0,1-.769,1.958c-2.388,2.962-4.742,5.952-7.186,8.868a3.267,3.267,0,1,1-5.059-4.134c1.687-2.315,3.348-4.65,5.062-6.945a5.26,5.26,0,0,0,1.106-2.665C240.131,72.052,240.7,67.535,241.26,62.934Zm17,44.788q12.064,0,24.13,0c.49,0,.872.029.87-.688q-.028-16.464,0-32.93c0-.542-.176-.714-.712-.711q-5.224.027-10.449,0c-.587,0-.739.214-.73.765.027,1.695.012,3.392.009,5.087,0,1.179-.281,1.463-1.452,1.463-3.369,0-6.737.018-10.106-.014-.675-.006-.861.212-.844.862.041,1.558.016,3.117.013,4.675,0,1.211-.284,1.491-1.5,1.491-3.8,0-7.608.016-11.412-.014-.675-.005-.865.206-.843.86.045,1.35.021,2.7.01,4.055-.006.774-.28,1.081-1.041,1.182a7.256,7.256,0,0,1-.96.048c-3.024,0-6.049.019-9.074-.011-.678-.007-.915.177-.91.888.032,3.987.014,7.975.015,11.961,0,1.026,0,1.027,1,1.027ZM250.6,83.594c-.034,1.322.318,1.891,1.111,1.961s1.317-.544,1.4-1.679c.192-2.465.386-4.93.55-7.4a8.79,8.79,0,0,0-.059-2.534,5.686,5.686,0,0,0-3.254-4.095,1.236,1.236,0,0,1-.883-1.313q.258-2.526.516-5.054a1.161,1.161,0,0,1,.7-1.093,1.125,1.125,0,0,1,1.2.3,19.768,19.768,0,0,1,1.538,1.372,2.051,2.051,0,0,0,2.543.506c1.276-.507,2.591-.915,3.89-1.367.151-.052.3-.1.45-.169A.831.831,0,0,0,260.876,62c-.141-.531-.552-.637-1.026-.563a7.956,7.956,0,0,0-.933.227q-1.652.471-3.3.955a1.2,1.2,0,0,1-1.482-.541c-.607-.917-1.246-1.813-1.856-2.728a3.368,3.368,0,0,0-1.611-1.331c-1.556-.611-3.109-1.237-4.641-1.907a2.83,2.83,0,0,0-2.807.2c-1.662,1.018-3.344,2-5.022,2.987a2.232,2.232,0,0,0-.892.923c-.764,1.488-1.542,2.968-2.3,4.457-.326.637-.253,1.11.213,1.307.587.248.949-.06,1.227-.556.548-.98,1.114-1.95,1.665-2.928a1.831,1.831,0,0,1,.845-.869c1.029-.448,2.048-.921,3.088-1.344a1.029,1.029,0,0,1,1.486,1.138c-.63,5.226-1.29,10.449-1.88,15.679a6.11,6.11,0,0,1-1.28,3.106c-1.767,2.341-3.465,4.734-5.186,7.11-.559.772-.531,1.5.058,1.945.623.472,1.273.325,1.889-.436q3.376-4.166,6.751-8.335a2.713,2.713,0,0,0,.594-1.436c.134-1.137.271-2.273.438-3.405a3.123,3.123,0,0,1,6.11-.384,5.015,5.015,0,0,1,.081,1.842C250.927,79.321,250.759,81.535,250.6,83.594Z" transform="translate(-231.251 -43.381)" fill="#46ac3f"/>
        <path id="Path_12545" data-name="Path 12545" d="M258.579,48.292a5.988,5.988,0,1,1-5.953-6.053A6.053,6.053,0,0,1,258.579,48.292Zm-2.095-.038a3.8,3.8,0,0,0-3.818-3.915,3.9,3.9,0,1,0-.1,7.795A3.791,3.791,0,0,0,256.484,48.254Z" transform="translate(-232.777 -42.239)" fill="#46ac3f"/>
      </g>
    </g>
  </g>
</svg>
