<?xml version="1.0" encoding="UTF-8"?><svg id="Layer_2" xmlns="http://www.w3.org/2000/svg" xmlns:xlink="http://www.w3.org/1999/xlink" viewBox="0 0 346 356"><defs><style>.cls-1{fill:none;}.cls-2{clip-path:url(#clippath);}</style><clipPath id="clippath"><rect class="cls-1" width="346" height="356"/></clipPath></defs><g id="Layer_1-2"><g><g class="cls-2"><path d="M341.29,64.72L276.33,5.3c-6.36-5.88-16.17-5.88-22.53,0l-64.96,59.42c-4.27,3.9-5.7,10.02-3.61,15.4,2.09,5.39,7.27,8.94,13.05,8.94h25.78c1.61,0,2.91,1.3,2.91,2.91v173.49c0,7.57,6.15,13.71,13.72,13.71h47.3c7.57,0,13.71-6.14,13.72-13.71V91.97c0-1.61,1.3-2.91,2.91-2.91h27.22c5.78,0,10.96-3.55,13.05-8.94,2.09-5.38,.66-11.5-3.61-15.4h0Z"/></g><path d="M295.71,333.38h-62.73c-5.8,0-10.5,4.7-10.5,10.5s4.7,10.5,10.5,10.5h62.73c5.8,0,10.5-4.7,10.5-10.5s-4.7-10.5-10.5-10.5h0Z"/><path d="M295.71,300.21h-62.73c-5.8,0-10.5,4.7-10.5,10.5s4.7,10.5,10.5,10.5h62.73c5.8,0,10.5-4.7,10.5-10.5s-4.7-10.5-10.5-10.5h0Z"/><path d="M14.84,213.79H59.99c8.2,0,14.79,6.59,14.79,14.79v112.51c0,8.2-6.59,14.79-14.79,14.79H14.84c-8.2,0-14.79-6.59-14.79-14.79v-112.51c0-8.2,6.6-14.79,14.79-14.79h0Z"/><path d="M122.82,147.25h45.16c8.17,0,14.79,6.62,14.79,14.79v179.05c0,8.17-6.62,14.79-14.79,14.79h-45.16c-8.17,0-14.79-6.62-14.79-14.79V162.04c0-3.92,1.56-7.68,4.33-10.45,2.77-2.77,6.53-4.33,10.46-4.33h0Z"/></g></g></svg>