<?xml version="1.0" encoding="UTF-8"?><svg id="Layer_2" xmlns="http://www.w3.org/2000/svg" viewBox="0 0 512 512"><g id="Capa_1"><path d="M497,482H15c-8.29,0-15,6.71-15,15s6.71,15,15,15H497c8.29,0,15-6.71,15-15s-6.71-15-15-15Z"/><path d="M137,332H45c-8.29,0-15,6.71-15,15v105h122v-105c0-8.29-6.71-15-15-15Z"/><path d="M287,242h-90c-8.29,0-15,6.71-15,15v195h120v-195c0-8.29-6.71-15-15-15Z"/><path d="M507.6,124.39L402.6,4.39c-5.86-5.86-15.35-5.86-21.21,0l-105,120c-4.29,4.29-5.58,10.74-3.25,16.35,2.31,5.61,7.79,9.26,13.86,9.26h45V452h120V150h45c6.06,0,11.54-3.65,13.86-9.26,2.33-5.61,1.04-12.06-3.25-16.35Z"/></g></svg>